<?xml version="1.0" standalone="no"?>
<!DOCTYPE svg PUBLIC "-//W3C//DTD SVG 20010904//EN"
 "http://www.w3.org/TR/2001/REC-SVG-20010904/DTD/svg10.dtd">
<svg version="1.0" xmlns="http://www.w3.org/2000/svg"
 width="280.716093pt" height="341.740927pt" viewBox="0 0 280.716093 341.740927"
 preserveAspectRatio="xMidYMid meet">
<metadata>
Created by potrace 1.12, written by Peter Selinger 2001-2015
</metadata>
<g transform="translate(-116.021686,426.948690) scale(0.100000,-0.100000)"
fill="#000000" stroke="none">
<path d="M3183 4249 c-60 -23 -98 -63 -113 -120 -9 -33 -7 -57 15 -145 28
-118 30 -142 14 -178 -15 -32 -58 -52 -154 -72 -65 -13 -101 -30 -234 -109
-166 -99 -210 -136 -236 -199 -30 -71 -3 -144 108 -293 110 -147 137 -199 137
-260 0 -39 -6 -59 -29 -90 -47 -65 -60 -98 -92 -226 -27 -108 -41 -143 -130
-308 -54 -103 -99 -191 -99 -197 0 -6 -14 -22 -31 -36 -29 -25 -37 -26 -138
-26 -118 1 -150 -7 -346 -87 -198 -80 -273 -90 -377 -48 -34 14 -71 25 -83 25
-40 0 -71 -48 -149 -232 -104 -245 -112 -314 -32 -294 36 9 136 88 226 178 78
78 82 80 119 75 35 -4 46 0 98 39 72 54 140 71 334 84 359 25 417 30 454 41
31 9 73 43 193 163 84 83 178 186 209 229 52 71 73 91 73 68 0 -6 39 -43 87
-83 135 -112 222 -199 250 -245 22 -38 25 -56 28 -165 2 -107 8 -140 39 -248
20 -69 57 -168 81 -220 44 -94 44 -97 43 -195 -1 -110 12 -154 55 -194 35 -32
119 -37 269 -17 129 17 173 34 191 73 15 33 -3 46 -98 74 -142 43 -209 95
-239 189 -9 25 -24 154 -36 287 -23 276 -39 375 -75 486 -45 139 -152 331
-280 502 -92 124 -93 127 -50 276 45 160 52 174 80 189 57 30 297 -24 363 -81
25 -23 42 -29 77 -29 98 0 184 137 119 191 -9 7 -72 23 -142 36 -162 29 -260
74 -287 130 -17 35 -17 43 -2 148 10 61 17 141 17 180 0 62 -4 75 -40 136 -22
37 -40 74 -40 82 0 18 21 27 66 27 58 0 71 13 88 89 29 128 16 277 -29 337
-34 44 -117 84 -174 83 -26 0 -69 -9 -98 -20z m-352 -916 c16 -74 15 -162 0
-237 l-13 -59 -19 30 c-20 31 -92 214 -104 266 -6 24 -4 27 16 28 13 0 40 7
59 14 19 7 38 14 42 14 4 1 12 -25 19 -56z"/>
</g>
</svg>
