<svg id="svg" version="1.1" xmlns="http://www.w3.org/2000/svg" xmlns:xlink="http://www.w3.org/1999/xlink" width="400" height="397.98488664987406" viewBox="0, 0, 400,397.98488664987406"><g id="svgg"><path id="path0" d="M192.239 36.632 C 115.600 40.804,52.967 95.536,39.223 170.348 C 36.037 187.695,35.883 210.301,38.845 226.194 L 39.499 229.701 40.346 228.943 C 40.813 228.526,44.687 225.085,48.955 221.295 C 53.224 217.505,58.131 213.134,59.859 211.580 C 61.588 210.027,63.322 208.756,63.712 208.756 C 64.116 208.756,72.776 217.051,83.820 228.017 L 103.218 247.277 106.435 243.905 C 108.204 242.051,112.333 237.682,115.610 234.197 C 118.887 230.712,123.275 226.143,125.361 224.044 C 127.447 221.945,131.572 217.674,134.527 214.553 C 143.002 205.604,143.612 204.961,146.829 201.592 C 148.501 199.841,151.646 196.527,153.817 194.229 C 155.989 191.930,159.387 188.339,161.370 186.248 C 169.700 177.462,175.822 170.984,177.313 169.377 C 178.189 168.433,181.726 164.707,185.174 161.096 L 191.443 154.531 191.443 125.425 C 191.443 107.584,191.298 96.318,191.070 96.318 C 190.848 96.318,190.646 101.558,190.572 109.247 L 190.448 122.175 189.147 123.475 C 187.379 125.243,184.847 125.327,183.193 123.673 L 182.090 122.570 181.971 108.350 C 181.822 90.503,182.089 88.710,185.436 85.038 C 188.005 82.221,188.200 82.189,202.985 82.189 L 216.318 82.189 218.202 83.318 C 223.455 86.464,223.821 87.924,223.994 106.468 L 224.136 121.592 223.212 122.954 C 222.034 124.692,220.509 125.224,218.463 124.611 C 215.769 123.804,215.721 123.534,215.721 109.074 C 215.721 98.001,215.643 96.318,215.124 96.318 C 214.599 96.318,214.527 99.782,214.527 125.106 L 214.527 153.894 259.545 198.788 L 304.562 243.683 308.799 239.530 C 333.604 215.213,332.661 216.119,333.146 216.119 C 333.356 216.119,334.469 216.993,335.620 218.060 C 337.841 220.120,338.094 220.351,343.421 225.167 C 346.916 228.325,350.426 231.505,353.191 234.016 C 354.044 234.790,355.654 236.268,356.770 237.300 C 359.203 239.552,358.943 239.923,360.601 231.841 C 365.941 205.808,364.521 176.222,356.741 151.443 C 341.977 104.422,308.170 67.664,261.942 48.371 C 241.917 40.014,214.609 35.415,192.239 36.632 M207.786 63.898 C 215.526 69.262,212.114 80.616,202.769 80.590 C 194.398 80.567,190.715 70.162,197.134 64.667 C 200.093 62.134,204.755 61.797,207.786 63.898 M202.587 133.532 C 202.587 139.237,202.732 142.488,202.985 142.488 C 203.239 142.488,203.383 139.237,203.383 133.532 C 203.383 127.828,203.239 124.577,202.985 124.577 C 202.732 124.577,202.587 127.828,202.587 133.532 " stroke="none" fill="#4cbceb" fill-rule="evenodd"></path><path id="path1" d="M188.060 14.335 C 155.175 16.560,121.084 28.146,96.125 45.582 C 94.808 46.502,93.104 47.682,92.337 48.204 C 90.117 49.716,88.089 51.269,82.985 55.364 C 29.078 98.611,3.997 168.238,17.767 236.418 C 19.757 246.272,24.203 261.189,27.079 267.662 C 27.468 268.537,28.435 270.824,29.229 272.744 C 42.599 305.086,69.839 336.668,101.294 356.297 C 123.050 369.873,144.736 377.914,171.940 382.491 C 194.469 386.281,227.346 384.483,248.756 378.290 C 282.381 368.564,308.642 353.470,331.450 330.761 C 360.572 301.765,377.346 268.903,384.484 226.866 C 387.027 211.889,387.027 186.584,384.483 171.542 C 380.814 149.852,375.919 134.528,366.872 116.418 C 347.599 77.836,313.111 45.384,274.030 29.058 C 271.841 28.144,269.512 27.164,268.856 26.880 C 247.690 17.748,214.284 12.561,188.060 14.335 M217.512 37.437 C 232.285 38.934,249.452 43.158,261.942 48.371 C 337.250 79.800,377.696 157.825,359.576 236.716 C 358.049 243.366,357.680 244.805,356.746 247.761 C 347.211 277.939,328.838 305.124,304.674 324.810 C 299.298 329.189,294.044 333.076,289.950 335.703 C 288.637 336.546,286.935 337.641,286.169 338.138 C 270.251 348.455,246.927 356.971,225.274 360.374 C 152.605 371.794,79.628 332.029,50.377 265.075 C 49.564 263.214,48.738 261.333,48.542 260.896 C 40.976 244.049,36.211 217.936,36.739 196.219 C 39.081 99.980,121.374 27.698,217.512 37.437 M198.010 147.650 C 193.818 152.136,169.988 177.260,161.004 186.667 C 159.226 188.527,156.348 191.564,154.608 193.415 C 152.867 195.266,149.726 198.580,147.628 200.778 C 135.990 212.975,127.363 222.196,127.363 222.437 C 127.363 222.980,136.569 233.632,137.035 233.629 C 137.298 233.628,141.221 229.733,145.754 224.973 C 150.286 220.213,155.331 214.994,156.964 213.376 L 159.934 210.434 177.905 228.302 C 187.789 238.129,196.017 246.169,196.189 246.169 C 196.361 246.169,203.438 239.363,211.915 231.045 C 220.392 222.726,227.471 215.868,227.645 215.804 C 227.820 215.740,229.254 217.307,230.832 219.287 C 232.411 221.266,233.858 222.886,234.049 222.886 C 234.240 222.886,237.135 220.380,240.482 217.318 C 247.578 210.827,246.822 211.078,249.764 214.229 C 258.170 223.232,264.036 228.869,264.483 228.375 C 264.739 228.092,267.522 225.110,270.666 221.747 L 276.383 215.634 239.714 179.061 C 219.546 158.946,202.986 142.499,202.915 142.513 C 202.844 142.528,200.637 144.839,198.010 147.650 " stroke="none" fill="#fbfbfb" fill-rule="evenodd"></path><path id="path2" d="M184.279 0.637 C 183.294 0.717,180.249 0.986,177.512 1.235 C 174.776 1.484,172.313 1.696,172.040 1.706 C 171.766 1.716,171.542 1.836,171.542 1.973 C 171.542 2.109,169.527 2.456,167.065 2.744 C 164.602 3.031,162.498 3.382,162.388 3.524 C 162.279 3.665,161.920 3.809,161.592 3.844 C 159.462 4.068,153.000 5.337,152.836 5.563 C 152.726 5.714,151.025 6.153,149.055 6.539 C 147.085 6.924,145.294 7.376,145.075 7.542 C 144.856 7.708,143.426 8.151,141.898 8.527 C 140.370 8.902,138.937 9.355,138.714 9.534 C 138.491 9.712,137.682 9.991,136.915 10.154 C 136.149 10.317,135.075 10.636,134.527 10.863 C 133.980 11.091,133.443 11.307,133.333 11.343 C 133.224 11.380,132.630 11.619,132.014 11.874 C 131.398 12.129,130.679 12.338,130.416 12.338 C 130.153 12.338,129.314 12.666,128.551 13.067 C 127.788 13.468,126.313 14.028,125.274 14.313 C 124.234 14.597,123.383 14.957,123.383 15.113 C 123.383 15.269,122.308 15.722,120.995 16.119 C 119.682 16.517,118.607 16.993,118.607 17.177 C 118.607 17.362,118.402 17.512,118.151 17.512 C 117.901 17.512,116.392 18.139,114.799 18.905 C 113.206 19.672,111.710 20.299,111.474 20.299 C 111.238 20.299,111.045 20.453,111.045 20.642 C 111.045 20.832,110.194 21.308,109.154 21.700 C 108.114 22.093,107.174 22.531,107.065 22.673 C 106.955 22.815,106.268 23.173,105.538 23.468 C 104.808 23.763,103.995 24.221,103.732 24.484 C 103.469 24.747,102.454 25.352,101.477 25.827 C 98.826 27.118,97.337 27.950,97.114 28.265 C 97.005 28.419,96.305 28.858,95.560 29.241 C 94.814 29.623,94.008 30.103,93.769 30.308 C 93.529 30.513,92.348 31.292,91.144 32.040 C 89.940 32.787,88.765 33.561,88.532 33.760 C 88.299 33.959,87.731 34.323,87.270 34.570 C 86.808 34.818,86.192 35.247,85.902 35.525 C 85.611 35.802,84.164 36.823,82.687 37.792 C 81.209 38.761,80.000 39.687,80.000 39.850 C 80.000 40.012,79.687 40.246,79.303 40.369 C 78.920 40.492,78.131 40.996,77.550 41.490 C 76.969 41.984,75.930 42.836,75.241 43.383 C 74.552 43.930,73.476 44.826,72.850 45.373 C 72.224 45.920,71.275 46.726,70.741 47.164 C 69.341 48.312,65.010 52.136,63.528 53.532 C 62.831 54.189,61.372 55.550,60.285 56.557 C 58.403 58.300,56.547 60.248,51.218 66.070 C 49.916 67.493,48.247 69.304,47.510 70.096 C 46.772 70.888,46.169 71.673,46.169 71.842 C 46.169 72.010,45.766 72.532,45.274 73.002 C 44.781 73.471,43.930 74.457,43.383 75.193 C 42.836 75.929,41.898 77.087,41.300 77.768 C 40.701 78.448,40.209 79.139,40.205 79.303 C 40.202 79.468,39.886 79.960,39.502 80.398 C 37.822 82.318,36.868 83.633,36.346 84.746 C 36.200 85.057,35.830 85.595,35.524 85.940 C 33.976 87.683,33.036 89.003,33.035 89.433 C 33.035 89.696,32.801 90.054,32.516 90.229 C 32.230 90.404,31.685 91.219,31.303 92.040 C 30.922 92.861,30.466 93.532,30.290 93.532 C 30.114 93.532,29.638 94.338,29.232 95.323 C 28.826 96.308,28.373 97.114,28.225 97.114 C 28.078 97.114,27.735 97.652,27.463 98.308 C 27.191 98.965,26.856 99.505,26.718 99.507 C 26.580 99.510,26.111 100.271,25.675 101.199 C 25.238 102.126,24.656 103.122,24.381 103.412 C 24.106 103.701,23.881 104.168,23.881 104.451 C 23.881 104.733,23.451 105.596,22.927 106.369 C 22.403 107.142,21.740 108.420,21.454 109.210 C 21.168 110.000,20.791 110.647,20.617 110.647 C 20.442 110.647,20.299 110.822,20.299 111.036 C 20.299 111.250,19.672 112.764,18.905 114.401 C 18.139 116.037,17.512 117.564,17.512 117.793 C 17.512 118.022,17.362 118.209,17.177 118.209 C 16.993 118.209,16.619 118.970,16.347 119.900 C 16.075 120.831,15.626 121.950,15.349 122.388 C 15.073 122.826,14.620 123.900,14.342 124.776 C 14.064 125.652,13.597 126.905,13.304 127.562 C 12.536 129.284,11.490 132.256,11.447 132.836 C 11.426 133.109,11.294 133.333,11.153 133.333 C 11.012 133.333,10.661 134.274,10.372 135.423 C 10.084 136.572,9.703 137.696,9.526 137.921 C 9.349 138.146,8.901 139.668,8.531 141.304 C 8.161 142.940,7.735 144.368,7.584 144.478 C 7.434 144.587,6.983 146.289,6.583 148.259 C 6.183 150.229,5.721 152.020,5.556 152.239 C 5.391 152.458,4.958 154.399,4.594 156.552 C 4.229 158.706,3.768 160.855,3.569 161.328 C 3.370 161.802,2.941 164.159,2.614 166.567 C 2.288 168.975,1.850 171.862,1.640 172.982 C -0.165 182.622,0.165 222.838,2.091 228.060 C 2.212 228.388,2.583 230.537,2.915 232.836 C 3.658 237.980,5.072 245.097,5.564 246.169 C 5.764 246.607,6.216 248.398,6.567 250.149 C 6.919 251.900,7.379 253.649,7.590 254.036 C 7.802 254.422,8.254 255.943,8.595 257.415 C 8.937 258.888,9.358 260.273,9.531 260.494 C 9.704 260.715,10.066 261.836,10.336 262.985 C 10.605 264.134,10.997 265.075,11.207 265.075 C 11.417 265.075,11.474 265.262,11.333 265.490 C 11.191 265.719,11.257 266.124,11.479 266.391 C 11.700 266.658,12.095 267.725,12.356 268.762 C 12.617 269.798,12.974 270.647,13.150 270.647 C 13.325 270.647,13.596 271.229,13.752 271.940 C 13.907 272.652,14.543 274.347,15.165 275.707 C 15.787 277.067,16.410 278.634,16.549 279.189 C 16.689 279.745,16.962 280.199,17.158 280.199 C 17.353 280.199,17.512 280.374,17.512 280.587 C 17.512 280.800,18.025 282.099,18.652 283.473 C 19.279 284.846,19.918 286.373,20.072 286.866 C 20.226 287.358,20.483 287.761,20.643 287.761 C 20.804 287.761,21.168 288.408,21.454 289.198 C 21.740 289.988,22.403 291.266,22.927 292.039 C 23.451 292.812,23.881 293.675,23.881 293.957 C 23.881 294.240,24.108 294.707,24.385 294.996 C 24.663 295.286,25.227 296.284,25.640 297.214 C 26.052 298.144,26.508 298.905,26.653 298.905 C 26.798 298.905,27.162 299.532,27.463 300.299 C 27.763 301.065,28.142 301.692,28.304 301.692 C 28.466 301.692,28.915 302.408,29.302 303.284 C 29.688 304.159,30.121 304.876,30.265 304.876 C 30.408 304.876,30.844 305.581,31.233 306.444 C 31.622 307.307,32.187 308.107,32.488 308.223 C 32.789 308.338,33.035 308.633,33.035 308.878 C 33.035 309.315,35.145 312.514,36.119 313.555 C 36.393 313.848,36.617 314.219,36.617 314.381 C 36.617 314.543,36.932 315.023,37.317 315.447 C 37.701 315.872,38.340 316.723,38.736 317.340 C 39.495 318.522,40.220 319.431,41.692 321.047 C 42.184 321.588,42.588 322.156,42.589 322.309 C 42.590 322.462,43.396 323.475,44.380 324.560 C 45.364 325.646,46.169 326.640,46.169 326.769 C 46.169 326.898,46.841 327.725,47.662 328.606 C 48.483 329.487,50.587 331.786,52.338 333.715 C 56.262 338.037,62.022 343.881,62.358 343.881 C 62.495 343.881,63.444 344.731,64.468 345.771 C 66.500 347.836,70.604 351.471,71.422 351.931 C 71.704 352.090,72.471 352.720,73.126 353.332 C 73.781 353.944,75.370 355.246,76.659 356.227 C 77.948 357.208,79.348 358.321,79.770 358.702 C 80.193 359.082,80.865 359.498,81.264 359.624 C 81.663 359.751,81.990 360.010,81.990 360.199 C 81.990 360.388,82.317 360.647,82.716 360.774 C 83.115 360.900,83.787 361.316,84.208 361.696 C 84.630 362.077,86.049 363.105,87.360 363.980 C 88.672 364.856,89.956 365.768,90.212 366.007 C 90.469 366.247,91.231 366.671,91.906 366.951 C 92.582 367.231,93.134 367.590,93.134 367.749 C 93.134 367.908,93.851 368.361,94.726 368.756 C 95.602 369.151,96.318 369.614,96.318 369.786 C 96.318 369.957,96.945 370.324,97.711 370.601 C 98.478 370.879,99.104 371.221,99.104 371.363 C 99.104 371.504,99.866 371.956,100.796 372.366 C 101.726 372.777,102.577 373.216,102.687 373.343 C 103.019 373.727,107.172 375.939,108.657 376.522 C 109.423 376.823,110.139 377.181,110.249 377.318 C 110.445 377.563,114.234 379.422,118.682 381.453 C 119.927 382.022,121.225 382.488,121.567 382.488 C 121.909 382.488,122.189 382.638,122.189 382.823 C 122.189 383.007,123.308 383.493,124.677 383.903 C 126.045 384.313,127.385 384.862,127.654 385.124 C 127.923 385.385,128.863 385.721,129.743 385.869 C 130.623 386.018,131.343 386.283,131.343 386.458 C 131.343 386.634,132.552 387.095,134.030 387.484 C 135.507 387.873,136.899 388.328,137.122 388.496 C 137.345 388.664,138.778 389.111,140.306 389.491 C 141.834 389.870,143.174 390.301,143.284 390.449 C 143.393 390.597,145.095 391.048,147.065 391.452 C 149.035 391.855,150.736 392.313,150.846 392.469 C 150.955 392.625,152.478 392.987,154.229 393.274 C 155.980 393.561,157.504 393.923,157.614 394.078 C 157.725 394.233,159.964 394.656,162.589 395.018 C 165.215 395.380,167.721 395.838,168.159 396.035 C 173.496 398.440,226.663 398.454,232.239 396.051 C 232.677 395.862,235.181 395.407,237.804 395.040 C 240.426 394.673,242.755 394.232,242.978 394.061 C 243.201 393.889,244.771 393.518,246.468 393.236 C 248.164 392.954,249.552 392.602,249.552 392.455 C 249.552 392.307,251.254 391.865,253.333 391.474 C 255.413 391.082,257.114 390.625,257.114 390.457 C 257.114 390.290,258.234 389.934,259.602 389.666 C 260.970 389.398,262.806 388.861,263.682 388.473 C 264.557 388.085,265.805 387.641,266.454 387.486 C 267.103 387.332,268.357 386.881,269.240 386.484 C 270.123 386.087,271.428 385.638,272.139 385.486 C 272.851 385.334,273.433 385.069,273.433 384.896 C 273.433 384.724,274.507 384.281,275.821 383.912 C 277.134 383.544,278.210 383.117,278.212 382.964 C 278.214 382.812,279.289 382.352,280.600 381.943 C 281.912 381.534,282.985 381.042,282.985 380.849 C 282.985 380.656,283.210 380.498,283.484 380.498 C 283.758 380.498,285.275 379.871,286.854 379.104 C 288.434 378.338,289.911 377.711,290.137 377.711 C 290.362 377.711,290.547 377.550,290.547 377.353 C 290.547 377.156,291.443 376.673,292.537 376.280 C 293.632 375.886,294.527 375.447,294.527 375.305 C 294.527 375.162,295.333 374.713,296.318 374.307 C 297.303 373.901,298.109 373.438,298.109 373.279 C 298.109 373.119,298.483 372.870,298.940 372.725 C 299.898 372.421,303.630 370.187,304.407 369.453 C 304.696 369.179,305.127 368.955,305.364 368.955 C 305.601 368.955,306.383 368.507,307.100 367.960 C 307.818 367.413,308.551 366.965,308.730 366.965 C 308.908 366.964,309.534 366.561,310.120 366.069 C 311.071 365.270,311.945 364.690,314.562 363.121 C 314.985 362.867,315.442 362.509,315.576 362.325 C 315.711 362.141,316.896 361.281,318.209 360.414 C 319.522 359.547,320.866 358.604,321.194 358.317 C 321.522 358.031,322.955 356.891,324.378 355.784 C 328.950 352.227,328.958 352.221,335.138 346.667 C 340.267 342.056,351.443 330.678,351.443 330.066 C 351.443 329.881,351.935 329.276,352.537 328.722 C 353.139 328.168,353.901 327.367,354.230 326.942 C 355.469 325.340,358.018 322.181,358.226 321.990 C 358.345 321.881,359.560 320.269,360.927 318.408 C 362.293 316.547,363.684 314.697,364.017 314.297 C 364.350 313.897,364.820 313.136,365.062 312.606 C 365.303 312.076,365.643 311.642,365.816 311.642 C 365.990 311.642,366.444 310.970,366.826 310.149 C 367.207 309.328,367.729 308.527,367.986 308.368 C 368.243 308.209,368.677 307.537,368.951 306.875 C 369.225 306.213,369.580 305.672,369.739 305.672 C 369.898 305.672,370.351 304.955,370.746 304.080 C 371.141 303.204,371.604 302.488,371.775 302.488 C 371.946 302.488,372.208 302.085,372.359 301.592 C 372.509 301.100,372.858 300.428,373.134 300.100 C 373.411 299.771,374.377 298.070,375.281 296.318 C 376.185 294.567,377.189 292.788,377.510 292.365 C 377.832 291.943,378.292 291.002,378.531 290.276 C 378.771 289.550,379.132 288.955,379.334 288.955 C 379.536 288.955,379.701 288.757,379.701 288.516 C 379.701 288.274,380.123 287.237,380.638 286.211 C 381.153 285.186,381.794 283.682,382.062 282.870 C 382.330 282.058,382.686 281.393,382.853 281.393 C 383.020 281.393,383.394 280.632,383.684 279.701 C 383.975 278.771,384.517 277.473,384.888 276.816 C 385.260 276.159,385.806 274.771,386.103 273.731 C 386.399 272.692,386.758 271.841,386.901 271.841 C 387.044 271.841,387.390 270.990,387.672 269.950 C 387.953 268.910,388.311 267.881,388.467 267.662 C 388.623 267.443,389.059 266.279,389.435 265.075 C 389.812 263.871,390.357 262.348,390.647 261.692 C 390.937 261.035,391.393 259.378,391.659 258.010 C 391.925 256.642,392.275 255.522,392.435 255.522 C 392.596 255.522,393.037 253.955,393.416 252.040 C 393.795 250.124,394.244 248.378,394.413 248.159 C 394.582 247.940,394.947 246.507,395.224 244.975 C 395.500 243.443,395.866 242.010,396.035 241.791 C 396.205 241.572,396.644 239.244,397.011 236.617 C 397.377 233.990,397.830 231.549,398.016 231.192 C 400.407 226.613,400.436 173.058,398.050 167.363 C 397.867 166.925,397.352 164.418,396.905 161.791 C 395.880 155.763,394.902 151.231,394.446 150.404 C 394.252 150.052,393.785 148.216,393.410 146.324 C 393.034 144.433,392.596 142.886,392.435 142.886 C 392.275 142.886,391.924 141.766,391.656 140.398 C 391.388 139.030,390.851 137.194,390.463 136.318 C 390.075 135.443,389.631 134.195,389.476 133.546 C 389.322 132.897,388.871 131.643,388.474 130.760 C 388.077 129.877,387.628 128.572,387.476 127.861 C 387.324 127.149,387.064 126.567,386.897 126.567 C 386.730 126.567,386.268 125.493,385.871 124.179 C 385.473 122.866,385.016 121.791,384.856 121.791 C 384.695 121.791,384.446 121.299,384.303 120.697 C 383.801 118.594,376.805 104.454,374.211 100.299 C 373.732 99.532,373.026 98.279,372.641 97.512 C 372.255 96.746,371.716 95.976,371.443 95.801 C 371.169 95.626,370.945 95.223,370.945 94.906 C 370.945 94.588,370.626 94.009,370.236 93.619 C 369.845 93.228,369.210 92.243,368.824 91.430 C 368.438 90.616,367.951 89.950,367.743 89.950 C 367.534 89.950,367.363 89.750,367.363 89.506 C 367.363 89.262,366.736 88.208,365.970 87.164 C 365.204 86.120,364.577 85.156,364.577 85.021 C 364.577 84.886,364.219 84.373,363.781 83.881 C 362.170 82.068,361.791 81.587,361.791 81.353 C 361.791 80.931,354.902 72.438,354.559 72.438 C 354.378 72.438,354.229 72.213,354.229 71.938 C 354.229 71.663,353.499 70.633,352.607 69.650 C 351.715 68.666,349.880 66.640,348.528 65.148 C 344.374 60.564,336.768 53.118,332.596 49.552 C 332.340 49.333,331.401 48.527,330.510 47.761 C 329.619 46.995,328.313 45.920,327.608 45.373 C 326.903 44.826,325.817 43.930,325.194 43.383 C 323.642 42.020,322.670 41.277,319.204 38.803 C 317.562 37.631,315.905 36.392,315.522 36.048 C 315.139 35.704,314.732 35.423,314.617 35.423 C 314.419 35.423,310.696 32.999,309.851 32.320 C 309.632 32.144,308.829 31.651,308.067 31.224 C 307.305 30.797,306.469 30.252,306.210 30.013 C 305.951 29.773,305.187 29.349,304.512 29.069 C 303.836 28.789,303.284 28.430,303.284 28.271 C 303.284 28.112,302.567 27.659,301.692 27.264 C 300.816 26.869,300.100 26.423,300.100 26.272 C 300.100 26.121,299.383 25.762,298.507 25.473 C 297.632 25.184,296.915 24.815,296.915 24.652 C 296.915 24.490,296.110 24.026,295.126 23.622 C 294.142 23.217,293.336 22.769,293.335 22.627 C 293.334 22.485,292.438 22.046,291.343 21.653 C 290.249 21.259,289.353 20.812,289.353 20.658 C 289.353 20.504,288.458 20.056,287.363 19.663 C 286.269 19.269,285.373 18.827,285.373 18.680 C 285.373 18.532,284.567 18.186,283.582 17.910 C 282.597 17.635,281.791 17.282,281.791 17.126 C 281.791 16.971,281.030 16.608,280.100 16.319 C 279.169 16.031,278.050 15.582,277.612 15.322 C 277.174 15.061,275.831 14.526,274.627 14.132 C 273.423 13.738,272.348 13.302,272.239 13.164 C 271.990 12.851,267.371 11.364,266.965 11.467 C 266.801 11.508,266.667 11.397,266.667 11.220 C 266.667 11.042,265.726 10.661,264.577 10.372 C 263.428 10.084,262.304 9.703,262.079 9.526 C 261.854 9.349,260.332 8.903,258.696 8.536 C 257.060 8.168,255.542 7.726,255.323 7.553 C 255.104 7.381,253.313 6.924,251.343 6.539 C 249.373 6.153,247.672 5.719,247.562 5.575 C 247.174 5.062,232.957 2.448,230.348 2.410 C 229.527 2.398,228.856 2.248,228.856 2.077 C 228.856 1.906,228.453 1.730,227.960 1.687 C 227.468 1.644,225.453 1.414,223.483 1.176 C 220.090 0.766,188.095 0.326,184.279 0.637 M217.711 14.315 C 219.353 14.524,222.935 14.975,225.672 15.317 C 286.798 22.972,342.732 63.875,369.095 120.200 C 370.375 122.936,371.589 125.493,371.792 125.883 C 371.995 126.273,372.617 127.795,373.174 129.266 C 373.732 130.737,374.635 133.104,375.182 134.527 C 376.105 136.932,377.418 140.787,379.111 146.070 C 395.609 197.544,385.601 259.424,353.323 305.507 C 334.373 332.562,303.657 357.816,276.020 369.063 C 275.144 369.419,273.085 370.275,271.443 370.963 C 235.708 385.955,192.199 388.969,153.632 379.122 C 116.965 369.761,84.010 349.281,58.405 319.941 C 47.583 307.540,36.104 289.477,29.859 275.025 C 29.150 273.383,28.333 271.502,28.044 270.846 C 27.551 269.726,26.795 267.787,24.512 261.794 C 13.804 233.681,10.835 196.909,16.735 165.484 C 21.782 138.604,31.462 115.844,48.133 91.663 C 60.620 73.550,79.484 55.885,101.493 41.696 C 113.733 33.804,134.124 24.733,148.259 20.891 C 163.036 16.875,175.801 14.681,189.652 13.778 C 193.698 13.514,214.552 13.913,217.711 14.315 M199.113 63.719 C 190.767 67.851,193.691 80.273,202.985 80.170 C 212.238 80.068,215.112 68.013,206.879 63.838 C 204.459 62.610,201.446 62.564,199.113 63.719 M189.993 82.755 C 186.741 83.564,184.223 86.195,183.028 90.033 C 181.778 94.050,181.909 121.703,183.185 123.186 C 184.532 124.753,186.962 124.970,188.485 123.660 L 189.652 122.657 189.851 109.388 C 190.045 96.451,190.070 96.119,190.846 96.119 C 191.633 96.119,191.644 96.451,191.841 124.942 L 192.040 153.765 193.391 152.206 C 194.134 151.348,196.414 148.903,198.458 146.773 L 202.174 142.898 202.281 133.638 C 202.373 125.720,202.475 124.378,202.985 124.378 C 203.493 124.378,203.612 125.772,203.781 133.740 L 203.980 143.103 208.955 148.028 L 213.930 152.954 214.129 124.542 C 214.313 98.293,214.380 96.120,215.000 96.001 C 215.617 95.882,215.682 96.939,215.796 109.063 L 215.920 122.255 217.220 123.416 C 219.101 125.096,222.159 124.689,223.272 122.609 C 223.980 121.285,223.812 92.922,223.081 90.460 C 222.158 87.351,220.220 84.774,217.922 83.599 L 215.944 82.587 203.594 82.516 C 196.801 82.476,190.681 82.584,189.993 82.755 M53.893 217.370 C 40.089 229.653,39.801 229.922,39.801 230.563 C 39.801 232.148,42.985 244.178,45.090 250.547 C 46.541 254.937,47.303 256.925,50.353 264.279 C 51.617 267.324,57.947 279.737,59.336 281.891 C 73.588 304.002,87.323 319.066,103.838 330.699 C 122.506 343.848,141.437 352.559,161.791 357.366 C 239.748 375.777,319.003 336.352,350.522 263.483 C 353.603 256.359,358.594 241.711,358.604 239.758 C 358.606 239.516,356.234 237.190,353.333 234.591 C 350.433 231.991,345.102 227.175,341.487 223.887 C 337.872 220.600,334.514 217.569,334.024 217.152 L 333.133 216.393 330.447 218.913 C 328.970 220.299,323.819 225.297,319.002 230.020 C 314.184 234.743,308.943 239.858,307.356 241.387 L 304.469 244.166 290.408 230.110 L 276.347 216.053 270.445 222.437 C 267.198 225.949,264.344 228.898,264.102 228.991 C 263.860 229.084,259.995 225.375,255.513 220.749 C 251.031 216.123,247.159 212.338,246.910 212.338 C 246.661 212.338,243.760 214.801,240.464 217.811 C 233.381 224.279,234.126 224.137,230.647 219.686 C 227.569 215.748,227.689 215.838,226.825 216.816 C 225.763 218.017,196.552 246.562,196.279 246.665 C 196.137 246.718,187.871 238.689,177.910 228.823 L 159.801 210.884 154.674 216.188 C 151.855 219.106,146.757 224.403,143.347 227.960 C 139.936 231.517,137.049 234.415,136.931 234.400 C 136.813 234.385,134.567 231.800,131.940 228.656 C 129.313 225.512,127.054 222.973,126.919 223.012 C 126.784 223.052,122.679 227.294,117.796 232.438 C 104.462 246.486,103.421 247.562,103.159 247.562 C 103.026 247.562,94.169 238.831,83.478 228.159 C 72.786 217.488,63.986 208.710,63.922 208.653 C 63.859 208.596,59.345 212.518,53.893 217.370 " stroke="none" fill="#5c5c5c" fill-rule="evenodd"></path><path id="path3" d="M201.891 62.773 C 202.493 62.864,203.478 62.864,204.080 62.773 C 204.682 62.681,204.189 62.607,202.985 62.607 C 201.781 62.607,201.289 62.681,201.891 62.773 M197.970 64.013 C 197.116 64.633,196.149 65.484,195.821 65.904 C 195.493 66.323,195.926 66.063,196.785 65.325 C 197.644 64.587,198.897 63.743,199.571 63.450 C 200.245 63.157,200.509 62.910,200.159 62.901 C 199.809 62.893,198.824 63.393,197.970 64.013 M205.406 63.034 C 205.498 63.116,206.199 63.483,206.965 63.850 L 208.358 64.517 207.419 63.701 C 206.902 63.253,206.200 62.886,205.860 62.886 C 205.519 62.886,205.315 62.952,205.406 63.034 M210.937 68.060 C 211.370 69.045,211.752 70.657,211.787 71.642 C 211.824 72.697,211.924 73.039,212.030 72.475 C 212.326 70.905,211.752 68.158,210.924 67.181 C 210.166 66.288,210.166 66.306,210.937 68.060 M194.361 68.357 C 193.640 70.082,193.822 74.603,194.643 75.360 C 195.036 75.723,195.076 75.651,194.832 75.025 C 194.202 73.404,194.158 70.240,194.742 68.557 C 195.468 66.467,195.208 66.330,194.361 68.357 M211.010 74.994 C 210.743 75.733,209.728 77.072,208.754 77.970 C 207.780 78.867,207.165 79.602,207.387 79.602 C 208.092 79.602,211.241 76.084,211.516 74.989 C 211.905 73.439,211.572 73.443,211.010 74.994 M195.396 76.729 C 196.958 79.771,204.328 82.000,206.301 80.028 C 206.506 79.823,205.907 79.837,204.924 80.061 C 201.686 80.799,198.677 79.822,196.271 77.253 C 195.387 76.310,195.089 76.131,195.396 76.729 M189.828 82.367 C 187.526 83.066,185.063 84.901,184.192 86.567 C 183.963 87.005,184.471 86.626,185.321 85.726 C 188.299 82.569,188.136 82.601,201.791 82.473 C 211.145 82.385,214.406 82.485,216.005 82.908 C 217.146 83.210,217.990 83.313,217.881 83.137 C 217.223 82.072,192.990 81.408,189.828 82.367 M219.790 84.845 C 220.605 85.614,221.723 87.211,222.274 88.395 C 222.825 89.579,223.278 90.332,223.280 90.068 C 223.291 88.625,220.683 84.718,219.165 83.906 C 218.694 83.654,218.975 84.077,219.790 84.845 M183.134 88.266 C 182.927 88.653,182.652 89.683,182.522 90.555 C 182.274 92.230,182.414 91.993,183.291 89.254 C 183.854 87.495,183.783 87.052,183.134 88.266 M182.071 107.264 C 182.071 115.363,182.124 118.620,182.189 114.501 C 182.253 110.383,182.253 103.756,182.188 99.775 C 182.124 95.794,182.071 99.164,182.071 107.264 M223.861 107.662 C 223.861 115.542,223.914 118.823,223.979 114.951 C 224.044 111.080,224.045 104.632,223.980 100.623 C 223.915 96.614,223.861 99.781,223.861 107.662 M190.130 96.172 C 189.976 96.325,189.851 102.256,189.851 109.351 L 189.851 122.250 188.687 123.414 C 188.047 124.054,187.656 124.577,187.817 124.577 C 187.978 124.577,188.636 124.028,189.279 123.358 L 190.448 122.138 190.572 109.228 C 190.646 101.616,190.849 96.318,191.067 96.318 C 191.291 96.318,191.479 107.748,191.544 125.274 L 191.650 154.229 191.646 125.180 C 191.642 94.990,191.625 94.677,190.130 96.172 M214.312 96.418 C 214.208 96.692,214.170 109.721,214.228 125.373 L 214.334 153.831 214.431 125.104 C 214.521 98.126,214.570 96.366,215.224 96.195 C 215.877 96.024,215.876 96.010,215.211 95.967 C 214.821 95.941,214.417 96.144,214.312 96.418 M182.289 122.464 C 182.289 123.293,184.245 124.618,185.714 124.783 L 187.264 124.957 185.585 124.547 C 184.600 124.307,183.571 123.712,183.097 123.109 C 182.652 122.544,182.289 122.254,182.289 122.464 M216.367 123.166 C 216.599 123.773,218.053 124.788,218.290 124.510 C 218.352 124.437,217.889 123.962,217.262 123.453 C 216.457 122.800,216.194 122.716,216.367 123.166 M222.185 123.654 C 221.691 123.999,220.706 124.434,219.996 124.621 C 218.774 124.943,218.789 124.952,220.275 124.782 C 221.137 124.683,222.207 124.239,222.652 123.794 C 223.608 122.837,223.432 122.784,222.185 123.654 M202.380 124.653 C 202.267 124.949,202.225 129.218,202.289 134.138 L 202.404 143.085 202.496 133.831 C 202.617 121.537,203.327 121.394,203.486 133.632 L 203.604 142.687 203.593 133.565 C 203.583 124.894,203.244 122.403,202.380 124.653 M61.073 210.459 C 59.967 211.493,54.638 216.269,49.232 221.073 C 43.826 225.877,39.403 229.949,39.403 230.122 C 39.403 230.295,40.433 229.479,41.692 228.308 C 42.950 227.138,48.279 222.368,53.532 217.709 C 58.786 213.050,63.255 209.085,63.463 208.898 C 63.701 208.683,63.701 208.561,63.463 208.569 C 63.255 208.575,62.179 209.426,61.073 210.459 M80.779 225.373 C 90.072 234.714,97.743 242.290,97.825 242.208 C 97.950 242.084,64.946 209.121,64.147 208.573 C 64.001 208.472,71.485 216.032,80.779 225.373 M289.948 229.571 C 297.828 237.496,304.384 243.980,304.518 243.980 C 304.651 243.980,309.936 238.918,316.261 232.731 C 333.950 215.428,333.001 216.273,333.861 217.052 C 334.262 217.415,334.755 217.705,334.957 217.698 C 335.410 217.682,333.576 216.119,333.104 216.119 C 332.667 216.119,333.349 215.462,308.793 239.536 L 304.550 243.695 291.064 230.206 C 283.647 222.787,277.138 216.367,276.600 215.939 C 276.062 215.512,282.069 221.646,289.948 229.571 M337.098 219.820 C 338.074 220.850,338.939 221.692,339.022 221.692 C 339.425 221.692,338.736 220.900,337.114 219.498 L 335.323 217.949 337.098 219.820 M342.104 224.282 C 346.079 228.152,351.984 233.467,351.806 233.015 C 351.716 232.786,350.478 231.549,349.055 230.267 C 347.632 228.985,345.572 227.126,344.478 226.137 C 340.653 222.680,339.667 221.910,342.104 224.282 M121.363 228.159 C 111.402 238.719,109.855 240.473,116.328 233.869 C 122.641 227.428,127.598 222.090,127.267 222.090 C 127.169 222.090,124.512 224.821,121.363 228.159 M353.814 234.945 C 354.790 235.974,355.656 236.816,355.738 236.816 C 356.141 236.816,355.453 236.024,353.831 234.622 L 352.040 233.074 353.814 234.945 M356.617 237.338 C 356.617 237.407,357.199 237.989,357.910 238.632 L 359.204 239.801 358.035 238.507 C 356.945 237.302,356.617 237.031,356.617 237.338 M106.344 243.998 C 104.298 246.193,103.245 247.048,102.796 246.876 C 102.372 246.713,102.254 246.787,102.446 247.097 C 102.604 247.353,102.947 247.539,103.208 247.512 C 103.753 247.454,109.677 241.282,109.422 241.038 C 109.330 240.949,107.944 242.281,106.344 243.998 M99.892 244.569 C 100.855 245.549,101.731 246.262,101.840 246.153 C 102.050 245.944,98.816 242.786,98.391 242.786 C 98.255 242.786,98.930 243.588,99.892 244.569 " stroke="none" fill="#62a1bd" fill-rule="evenodd"></path><path id="path4" d="M186.883 13.992 C 184.046 14.182,180.912 14.509,179.918 14.719 L 178.109 15.101 179.900 14.932 C 191.760 13.812,209.092 13.810,220.498 14.927 L 222.289 15.102 220.536 14.726 C 215.607 13.666,197.606 13.274,186.883 13.992 M175.224 15.399 C 175.607 15.499,176.234 15.499,176.617 15.399 C 177.000 15.299,176.687 15.217,175.920 15.217 C 175.154 15.217,174.841 15.299,175.224 15.399 M169.353 16.132 L 166.965 16.655 169.198 16.448 C 170.427 16.334,172.039 16.097,172.780 15.922 L 174.129 15.604 172.935 15.607 C 172.279 15.608,170.667 15.844,169.353 16.132 M227.662 15.907 C 228.428 16.102,230.129 16.357,231.443 16.473 C 233.316 16.640,233.531 16.609,232.438 16.332 C 231.672 16.137,229.970 15.882,228.657 15.765 C 226.783 15.599,226.569 15.629,227.662 15.907 M160.429 17.753 C 157.969 18.291,156.866 18.724,158.043 18.690 C 158.353 18.681,159.950 18.342,161.592 17.936 C 165.075 17.074,164.178 16.934,160.429 17.753 M238.806 17.857 C 240.292 18.346,243.154 18.766,242.189 18.353 C 241.751 18.165,240.587 17.903,239.602 17.770 C 238.423 17.612,238.151 17.641,238.806 17.857 M152.305 19.704 C 150.202 20.282,149.115 20.942,151.046 20.469 C 153.235 19.932,155.430 19.183,154.826 19.179 C 154.498 19.177,153.363 19.414,152.305 19.704 M246.576 19.663 C 247.456 19.956,248.799 20.302,249.561 20.433 C 250.881 20.659,250.871 20.645,249.345 20.138 C 248.464 19.845,247.121 19.499,246.360 19.368 C 245.040 19.142,245.050 19.156,246.576 19.663 M145.132 21.744 C 144.069 22.070,143.280 22.417,143.377 22.515 C 143.475 22.613,144.613 22.351,145.907 21.933 C 147.200 21.516,147.990 21.169,147.662 21.162 C 147.333 21.155,146.195 21.417,145.132 21.744 M252.736 21.238 C 252.736 21.501,257.155 22.779,257.359 22.575 C 257.446 22.488,256.755 22.197,255.823 21.929 C 254.892 21.661,253.816 21.352,253.433 21.241 C 253.050 21.131,252.736 21.130,252.736 21.238 M257.910 22.811 C 257.910 22.986,260.184 23.824,262.687 24.573 C 263.217 24.732,263.217 24.703,262.687 24.316 C 262.358 24.076,261.407 23.691,260.572 23.460 C 259.738 23.229,258.797 22.942,258.483 22.821 C 258.168 22.700,257.910 22.696,257.910 22.811 M139.502 23.667 C 137.965 24.371,138.680 24.381,140.498 23.682 C 141.264 23.387,141.622 23.140,141.294 23.133 C 140.965 23.126,140.159 23.367,139.502 23.667 M134.602 25.347 C 133.658 25.680,132.956 26.024,133.042 26.110 C 133.224 26.292,136.915 25.079,136.915 24.838 C 136.915 24.589,136.463 24.688,134.602 25.347 M265.227 25.508 C 266.295 25.942,267.243 26.223,267.333 26.133 C 267.541 25.925,264.425 24.669,263.773 24.698 C 263.504 24.710,264.158 25.075,265.227 25.508 M128.756 27.691 C 127.443 28.244,125.689 28.978,124.859 29.323 C 124.029 29.668,123.427 30.027,123.520 30.121 C 123.669 30.269,131.271 27.198,131.708 26.813 C 132.161 26.413,130.900 26.788,128.756 27.691 M269.173 26.887 C 269.557 27.308,273.130 28.694,273.326 28.498 C 273.403 28.421,272.697 28.048,271.758 27.668 C 269.117 26.600,268.832 26.514,269.173 26.887 M275.025 29.453 C 275.791 29.872,276.597 30.215,276.816 30.215 C 277.035 30.215,276.587 29.872,275.821 29.453 C 275.055 29.033,274.249 28.690,274.030 28.690 C 273.811 28.690,274.259 29.033,275.025 29.453 M121.095 31.034 C 120.164 31.456,119.403 31.891,119.403 32.000 C 119.403 32.262,122.282 31.072,122.766 30.610 C 123.310 30.090,123.001 30.169,121.095 31.034 M279.005 31.244 C 279.990 31.771,280.975 32.203,281.194 32.203 C 281.413 32.203,280.786 31.771,279.801 31.244 C 278.816 30.716,277.831 30.285,277.612 30.285 C 277.393 30.285,278.020 30.716,279.005 31.244 M115.323 33.856 C 113.627 34.723,112.239 35.522,112.239 35.631 C 112.239 35.809,118.567 32.764,118.972 32.392 C 119.536 31.872,117.989 32.493,115.323 33.856 M281.791 32.404 C 281.791 32.752,284.234 33.908,284.470 33.672 C 284.590 33.553,284.189 33.266,283.580 33.034 C 282.971 32.802,282.319 32.518,282.132 32.402 C 281.944 32.287,281.791 32.287,281.791 32.404 M285.771 34.362 C 285.771 34.468,287.249 35.355,289.055 36.333 C 290.861 37.311,293.055 38.511,293.930 38.999 C 295.237 39.727,295.354 39.747,294.584 39.113 C 293.532 38.246,285.771 34.063,285.771 34.362 M109.751 36.845 C 108.263 37.652,108.354 37.988,109.851 37.214 C 110.507 36.874,111.045 36.512,111.045 36.408 C 111.045 36.152,111.002 36.166,109.751 36.845 M104.948 39.561 C 103.022 40.666,100.772 42.360,102.090 41.712 C 103.048 41.241,107.463 38.480,107.463 38.351 C 107.463 38.126,107.389 38.161,104.948 39.561 M295.920 40.090 C 296.139 40.299,297.035 40.872,297.910 41.364 C 298.786 41.855,299.144 41.960,298.706 41.596 C 297.817 40.857,295.296 39.494,295.920 40.090 M100.000 42.633 C 98.643 43.502,98.204 44.085,99.403 43.426 C 100.316 42.924,101.747 41.818,101.493 41.810 C 101.383 41.807,100.711 42.177,100.000 42.633 M299.900 42.476 C 300.119 42.697,302.000 44.007,304.080 45.387 C 308.520 48.332,314.549 52.809,318.968 56.443 C 320.699 57.867,321.987 58.825,321.831 58.572 C 321.111 57.408,310.156 48.996,304.279 45.095 C 300.327 42.472,299.277 41.844,299.900 42.476 M97.059 44.600 C 96.169 45.375,96.165 45.396,96.993 44.995 C 97.473 44.763,97.976 44.395,98.111 44.177 C 98.502 43.544,98.073 43.716,97.059 44.600 M93.777 46.762 C 91.796 48.133,90.358 49.403,91.542 48.736 C 92.559 48.163,95.920 45.706,95.920 45.535 C 95.920 45.287,95.855 45.324,93.777 46.762 M87.562 51.227 C 73.891 61.561,53.614 82.382,48.009 91.841 C 47.169 93.259,48.334 92.011,50.053 89.652 C 58.894 77.520,71.021 64.932,83.383 55.056 C 90.914 49.040,90.963 48.999,90.746 48.984 C 90.637 48.976,89.204 49.985,87.562 51.227 M322.407 59.163 C 322.418 59.350,323.416 60.308,324.624 61.294 C 328.163 64.177,338.998 75.403,343.449 80.796 C 347.469 85.667,349.510 87.952,348.249 86.169 C 343.474 79.419,322.301 57.291,322.407 59.163 M350.869 90.149 C 352.115 91.900,353.404 93.602,353.735 93.930 C 354.632 94.820,351.025 89.688,349.725 88.226 C 349.109 87.533,349.624 88.398,350.869 90.149 M46.100 94.627 C 44.212 97.294,43.333 98.706,43.561 98.706 C 43.669 98.706,44.663 97.363,45.771 95.721 C 47.985 92.441,48.233 91.612,46.100 94.627 M354.841 95.721 C 360.551 104.775,361.978 107.090,362.631 108.358 C 363.054 109.179,363.501 109.851,363.624 109.851 C 364.166 109.851,356.052 96.479,354.689 95.124 C 354.333 94.771,354.395 95.014,354.841 95.721 M42.739 99.602 C 41.369 101.926,41.279 102.125,41.977 101.294 C 42.786 100.330,43.483 99.104,43.222 99.104 C 43.117 99.104,42.900 99.328,42.739 99.602 M39.312 105.174 C 38.992 105.667,38.514 106.517,38.249 107.065 C 37.573 108.461,38.800 106.971,39.643 105.373 C 40.338 104.054,40.122 103.925,39.312 105.174 M36.067 110.893 C 35.283 112.371,34.706 113.645,34.786 113.724 C 34.865 113.804,35.587 112.675,36.389 111.215 C 37.192 109.756,37.769 108.482,37.671 108.384 C 37.574 108.287,36.852 109.416,36.067 110.893 M365.572 113.831 C 367.241 117.153,368.351 118.817,367.233 116.318 C 366.267 114.162,364.164 110.249,363.970 110.249 C 363.862 110.249,364.583 111.861,365.572 113.831 M32.846 116.995 C 32.153 118.334,32.081 118.751,32.598 118.432 C 32.977 118.198,33.909 115.821,33.621 115.821 C 33.529 115.821,33.180 116.349,32.846 116.995 M367.781 117.853 C 367.770 117.985,368.572 119.776,369.563 121.833 C 370.553 123.889,371.246 125.124,371.102 124.577 C 370.828 123.535,367.816 117.435,367.781 117.853 M30.869 121.200 C 30.010 123.256,30.123 123.488,31.091 121.654 C 31.535 120.812,31.806 120.032,31.694 119.919 C 31.581 119.807,31.210 120.383,30.869 121.200 M29.210 124.819 C 28.880 125.609,28.710 126.355,28.832 126.478 C 28.955 126.600,29.055 126.602,29.055 126.483 C 29.055 126.364,29.326 125.618,29.657 124.825 C 29.988 124.032,30.158 123.383,30.035 123.383 C 29.911 123.383,29.540 124.029,29.210 124.819 M372.178 127.861 C 373.066 130.112,373.618 130.973,373.136 129.353 C 372.650 127.721,371.797 125.771,371.568 125.771 C 371.451 125.771,371.725 126.711,372.178 127.861 M27.297 129.386 C 26.932 130.298,26.708 131.119,26.799 131.210 C 26.890 131.302,27.264 130.630,27.629 129.718 C 27.993 128.806,28.217 127.985,28.126 127.894 C 28.035 127.803,27.662 128.474,27.297 129.386 M373.962 132.139 C 374.345 133.584,374.902 134.530,374.899 133.731 C 374.898 133.403,374.627 132.687,374.298 132.139 L 373.698 131.144 373.962 132.139 M25.498 133.955 C 25.031 135.203,24.718 136.294,24.803 136.379 C 24.888 136.464,25.346 135.519,25.821 134.279 C 26.295 133.038,26.608 131.948,26.515 131.855 C 26.422 131.762,25.964 132.707,25.498 133.955 M375.754 136.770 C 375.736 137.019,375.983 137.825,376.303 138.561 C 376.623 139.298,376.883 139.632,376.882 139.303 C 376.879 138.568,375.799 136.142,375.754 136.770 M23.529 139.343 C 23.284 140.043,23.097 140.813,23.113 141.054 C 23.128 141.295,23.397 140.792,23.711 139.935 C 24.025 139.079,24.212 138.308,24.127 138.223 C 24.042 138.138,23.773 138.642,23.529 139.343 M377.583 142.289 C 377.714 142.945,378.057 144.020,378.346 144.677 L 378.872 145.871 378.636 144.677 C 378.505 144.020,378.162 142.945,377.872 142.289 L 377.346 141.095 377.583 142.289 M21.678 145.061 C 21.317 146.305,21.101 147.403,21.199 147.501 C 21.297 147.599,21.668 146.656,22.023 145.406 C 22.379 144.157,22.594 143.059,22.503 142.967 C 22.411 142.875,22.040 143.818,21.678 145.061 M198.553 146.632 C 194.299 151.107,191.313 154.428,191.542 154.428 C 191.825 154.428,202.302 143.261,202.140 143.133 C 202.057 143.068,200.443 144.643,198.553 146.632 M204.975 144.380 C 204.975 144.599,205.244 145.001,205.572 145.274 C 205.905 145.550,206.169 145.593,206.169 145.371 C 206.169 145.152,205.900 144.750,205.572 144.478 C 205.239 144.201,204.975 144.158,204.975 144.380 M206.965 146.370 C 206.965 146.589,207.234 146.991,207.562 147.264 C 207.895 147.540,208.159 147.583,208.159 147.361 C 208.159 147.142,207.891 146.740,207.562 146.468 C 207.229 146.191,206.965 146.148,206.965 146.370 M379.076 147.175 C 379.200 147.564,379.578 148.945,379.916 150.243 C 380.547 152.666,381.224 153.985,380.736 151.841 C 380.170 149.354,379.273 146.468,379.067 146.468 C 378.948 146.468,378.953 146.786,379.076 147.175 M209.156 148.858 C 209.554 149.297,209.965 149.570,210.071 149.465 C 210.338 149.197,209.346 148.060,208.845 148.060 C 208.619 148.060,208.759 148.419,209.156 148.858 M19.737 151.876 C 19.370 153.334,19.144 154.601,19.235 154.691 C 19.325 154.781,19.698 153.662,20.064 152.204 C 20.431 150.746,20.657 149.479,20.566 149.389 C 20.476 149.299,20.103 150.418,19.737 151.876 M211.144 150.846 C 211.540 151.284,211.933 151.642,212.016 151.642 C 212.099 151.642,211.976 151.284,211.741 150.846 C 211.507 150.408,211.115 150.050,210.870 150.050 C 210.624 150.050,210.748 150.408,211.144 150.846 M212.537 151.929 C 212.537 152.430,213.675 153.423,213.942 153.155 C 214.048 153.050,213.775 152.638,213.336 152.241 C 212.897 151.844,212.537 151.703,212.537 151.929 M381.326 155.224 C 381.317 155.552,381.570 156.716,381.888 157.811 L 382.468 159.801 382.228 158.010 C 381.971 156.091,381.357 154.193,381.326 155.224 M18.002 159.005 C 17.188 162.799,17.138 164.164,17.929 161.020 C 18.365 159.282,18.657 157.670,18.576 157.438 C 18.495 157.205,18.237 157.910,18.002 159.005 M383.025 163.284 C 383.151 163.995,383.460 165.796,383.711 167.285 C 383.963 168.775,384.261 169.902,384.373 169.789 C 384.621 169.541,383.295 161.990,383.003 161.990 C 382.890 161.990,382.900 162.572,383.025 163.284 M15.900 170.129 C 15.622 172.003,15.483 173.626,15.593 173.735 C 15.702 173.845,16.020 172.401,16.299 170.527 C 16.577 168.654,16.716 167.031,16.606 166.921 C 16.497 166.812,16.179 168.256,15.900 170.129 M384.944 174.129 C 384.923 175.687,386.365 188.434,386.416 187.133 C 386.487 185.310,385.673 176.432,385.278 174.726 C 385.101 173.960,384.951 173.692,384.944 174.129 M15.217 175.522 C 15.217 176.289,15.299 176.602,15.399 176.219 C 15.499 175.836,15.499 175.209,15.399 174.826 C 15.299 174.443,15.217 174.756,15.217 175.522 M14.580 179.990 C 13.520 188.561,13.384 207.655,14.329 215.323 C 14.515 216.833,14.540 215.258,14.389 211.542 C 14.028 202.689,14.176 189.790,14.710 183.498 C 15.157 178.232,15.074 175.995,14.580 179.990 M386.634 199.204 C 386.634 203.363,386.693 205.011,386.765 202.865 C 386.836 200.719,386.836 197.316,386.764 195.303 C 386.692 193.289,386.633 195.045,386.634 199.204 M150.191 220.337 C 144.969 225.722,140.630 230.334,140.549 230.586 C 140.468 230.838,141.166 230.239,142.099 229.254 C 143.032 228.269,147.383 223.739,151.766 219.189 L 159.737 210.915 161.261 212.404 C 162.100 213.223,162.786 213.761,162.786 213.600 C 162.786 213.293,160.151 210.547,159.856 210.547 C 159.762 210.547,155.413 214.953,150.191 220.337 M385.725 215.970 C 385.461 218.951,385.165 222.219,385.067 223.232 C 384.901 224.950,384.914 224.981,385.252 223.682 C 385.683 222.023,386.650 210.995,386.388 210.732 C 386.287 210.632,385.989 212.989,385.725 215.970 M240.482 217.318 C 237.135 220.380,234.240 222.886,234.049 222.886 C 233.858 222.886,232.411 221.266,230.832 219.287 C 229.254 217.307,227.815 215.740,227.635 215.804 C 227.170 215.969,214.484 228.547,214.632 228.695 C 214.699 228.762,217.614 225.963,221.109 222.474 C 224.603 218.986,227.552 216.129,227.662 216.126 C 227.771 216.123,229.114 217.725,230.647 219.686 C 234.126 224.137,233.382 224.279,240.456 217.811 C 243.747 214.801,246.583 212.286,246.756 212.221 C 247.031 212.119,255.792 220.877,261.803 227.264 C 262.936 228.468,263.867 229.295,263.872 229.102 C 263.877 228.909,261.227 226.043,257.983 222.734 C 254.740 219.424,251.041 215.597,249.764 214.229 C 246.822 211.078,247.578 210.827,240.482 217.318 M163.783 214.928 C 164.181 215.367,164.592 215.640,164.698 215.534 C 164.965 215.267,163.972 214.129,163.472 214.129 C 163.246 214.129,163.386 214.489,163.783 214.928 M165.773 216.918 C 166.171 217.357,166.582 217.630,166.688 217.524 C 166.955 217.257,165.963 216.119,165.462 216.119 C 165.236 216.119,165.376 216.479,165.773 216.918 M270.800 221.596 C 267.979 224.608,265.403 227.444,265.075 227.897 C 264.401 228.828,266.194 226.972,272.184 220.545 C 274.452 218.111,276.222 216.119,276.118 216.119 C 276.013 216.119,273.620 218.584,270.800 221.596 M167.164 217.999 C 167.164 218.500,168.302 219.493,168.569 219.225 C 168.675 219.120,168.402 218.708,167.963 218.311 C 167.523 217.913,167.164 217.773,167.164 217.999 M14.819 219.303 C 14.819 220.070,14.901 220.383,15.001 220.000 C 15.101 219.617,15.101 218.990,15.001 218.607 C 14.901 218.224,14.819 218.537,14.819 219.303 M169.154 219.989 C 169.154 220.490,170.292 221.483,170.559 221.215 C 170.665 221.110,170.392 220.698,169.953 220.301 C 169.514 219.903,169.154 219.763,169.154 219.989 M15.217 222.886 C 15.217 223.652,15.299 223.965,15.399 223.582 C 15.499 223.199,15.499 222.572,15.399 222.189 C 15.299 221.806,15.217 222.119,15.217 222.886 M171.345 222.490 C 171.743 222.929,172.154 223.202,172.260 223.097 C 172.527 222.829,171.535 221.692,171.034 221.692 C 170.808 221.692,170.948 222.051,171.345 222.490 M127.184 222.886 C 127.649 223.725,134.127 231.244,134.385 231.244 C 134.588 231.244,128.683 224.131,127.446 222.886 C 126.919 222.355,126.890 222.355,127.184 222.886 M172.736 223.399 C 172.736 223.840,195.964 246.784,196.290 246.666 C 196.748 246.499,211.741 231.610,211.741 231.322 C 211.741 231.174,208.248 234.542,203.979 238.807 L 196.218 246.561 184.477 234.825 C 178.020 228.371,172.736 223.229,172.736 223.399 M15.779 227.195 C 15.904 228.580,16.160 230.192,16.348 230.777 C 16.785 232.138,16.388 227.954,15.897 226.026 C 15.648 225.049,15.616 225.372,15.779 227.195 M384.078 228.690 C 384.078 228.891,383.799 230.642,383.460 232.582 C 383.121 234.523,382.924 236.191,383.022 236.289 C 383.120 236.387,383.511 234.748,383.889 232.645 C 384.268 230.543,384.465 228.711,384.329 228.574 C 384.192 228.437,384.079 228.489,384.078 228.690 M213.112 229.818 C 212.687 230.129,212.445 230.488,212.574 230.617 C 212.702 230.745,213.133 230.491,213.530 230.052 C 214.376 229.118,214.202 229.021,213.112 229.818 M138.706 232.438 C 137.302 233.904,137.065 233.911,135.563 232.537 L 134.367 231.443 135.542 232.907 C 137.007 234.732,136.851 234.736,138.706 232.836 C 139.561 231.960,140.169 231.244,140.056 231.244 C 139.943 231.244,139.336 231.781,138.706 232.438 M39.801 232.193 C 39.801 232.931,41.092 238.046,41.240 237.897 C 41.420 237.717,40.250 232.356,39.969 232.075 C 39.876 231.983,39.801 232.036,39.801 232.193 M17.770 238.010 C 17.903 238.995,18.165 240.159,18.353 240.597 C 18.766 241.562,18.346 238.700,17.857 237.214 C 17.641 236.559,17.612 236.831,17.770 238.010 M381.720 241.023 C 381.446 242.246,381.312 243.336,381.422 243.446 C 381.532 243.555,381.832 242.632,382.090 241.393 C 382.347 240.154,382.481 239.064,382.387 238.971 C 382.294 238.878,381.994 239.801,381.720 241.023 M42.042 241.578 C 42.178 242.336,42.535 243.590,42.835 244.364 L 43.381 245.771 43.133 244.392 C 42.996 243.634,42.639 242.380,42.339 241.606 L 41.793 240.199 42.042 241.578 M357.280 244.643 C 356.925 245.893,356.709 246.991,356.801 247.083 C 356.893 247.175,357.264 246.232,357.625 244.988 C 357.987 243.745,358.203 242.647,358.105 242.549 C 358.007 242.451,357.636 243.394,357.280 244.643 M19.368 244.768 C 19.499 245.529,19.845 246.872,20.138 247.753 C 20.645 249.279,20.659 249.289,20.433 247.969 C 20.302 247.207,19.956 245.864,19.663 244.984 C 19.156 243.458,19.142 243.448,19.368 244.768 M380.148 247.423 C 379.409 250.238,379.190 251.345,379.410 251.144 C 379.719 250.863,380.896 246.236,380.706 246.046 C 380.620 245.960,380.369 246.580,380.148 247.423 M44.029 248.358 C 44.303 249.937,44.965 251.395,44.933 250.348 C 44.923 250.020,44.661 249.124,44.351 248.358 L 43.788 246.965 44.029 248.358 M355.604 250.024 C 354.557 253.211,354.508 253.424,355.013 252.640 C 355.541 251.819,356.651 248.260,356.444 248.052 C 356.365 247.973,355.987 248.861,355.604 250.024 M21.364 252.139 C 21.495 252.796,21.838 253.871,22.128 254.527 L 22.654 255.721 22.417 254.527 C 22.286 253.871,21.943 252.796,21.654 252.139 L 21.128 250.945 21.364 252.139 M45.625 253.134 C 45.760 253.682,46.114 254.667,46.413 255.323 C 46.850 256.282,46.909 256.322,46.713 255.522 C 46.579 254.975,46.224 253.990,45.925 253.333 C 45.488 252.374,45.429 252.335,45.625 253.134 M377.950 254.965 C 377.566 256.186,377.322 257.256,377.410 257.344 C 377.497 257.431,377.884 256.504,378.269 255.284 C 378.653 254.063,378.897 252.993,378.809 252.905 C 378.721 252.818,378.335 253.745,377.950 254.965 M353.280 256.563 C 352.448 259.006,352.712 259.270,353.617 256.900 C 354.000 255.897,354.225 254.988,354.117 254.880 C 354.009 254.772,353.632 255.529,353.280 256.563 M22.821 256.891 C 22.942 257.205,23.229 258.145,23.460 258.980 C 23.691 259.815,24.076 260.766,24.316 261.095 C 24.703 261.625,24.732 261.625,24.573 261.095 C 23.824 258.592,22.986 256.318,22.811 256.318 C 22.696 256.318,22.700 256.576,22.821 256.891 M47.589 258.408 C 48.111 260.084,48.537 261.095,48.722 261.095 C 48.824 261.095,48.632 260.289,48.297 259.303 C 47.685 257.509,47.064 256.723,47.589 258.408 M351.496 261.148 C 351.025 262.282,350.705 263.275,350.785 263.355 C 350.865 263.436,351.316 262.573,351.788 261.439 C 352.259 260.305,352.579 259.312,352.499 259.232 C 352.418 259.151,351.967 260.014,351.496 261.148 M375.966 260.941 C 375.614 261.976,375.395 262.890,375.479 262.975 C 375.563 263.059,375.920 262.282,376.272 261.248 C 376.625 260.214,376.844 259.299,376.760 259.214 C 376.676 259.130,376.319 259.907,375.966 260.941 M49.209 262.289 C 49.490 263.429,50.914 266.272,50.903 265.672 C 50.899 265.453,50.462 264.378,49.930 263.284 C 49.399 262.189,49.075 261.741,49.209 262.289 M25.303 263.881 C 25.449 264.428,25.735 265.144,25.938 265.473 C 26.194 265.888,26.225 265.766,26.041 265.075 C 25.894 264.527,25.608 263.811,25.405 263.483 C 25.149 263.068,25.118 263.189,25.303 263.881 M374.179 265.721 C 373.705 266.962,373.392 268.052,373.485 268.145 C 373.578 268.238,374.036 267.293,374.502 266.045 C 374.969 264.797,375.282 263.706,375.197 263.621 C 375.112 263.536,374.654 264.481,374.179 265.721 M349.723 265.292 C 348.788 267.253,348.920 267.586,349.897 265.734 C 350.341 264.892,350.634 264.133,350.548 264.047 C 350.462 263.961,350.091 264.521,349.723 265.292 M51.343 267.203 C 51.343 267.620,56.100 277.015,56.311 277.015 C 56.495 277.015,51.888 267.476,51.531 267.119 C 51.428 267.016,51.343 267.054,51.343 267.203 M27.086 268.557 C 27.306 269.159,27.575 269.901,27.683 270.206 C 27.791 270.511,27.967 270.673,28.074 270.566 C 28.288 270.352,27.167 267.463,26.870 267.463 C 26.769 267.463,26.866 267.955,27.086 268.557 M347.860 269.256 C 347.628 269.865,347.344 270.517,347.228 270.704 C 347.112 270.891,347.113 271.045,347.230 271.045 C 347.578 271.045,348.734 268.601,348.498 268.366 C 348.379 268.246,348.091 268.647,347.860 269.256 M372.192 270.700 C 371.721 271.834,371.401 272.827,371.481 272.908 C 371.562 272.988,372.013 272.126,372.484 270.992 C 372.956 269.858,373.275 268.864,373.195 268.784 C 373.115 268.704,372.664 269.566,372.192 270.700 M28.408 271.443 C 28.757 272.735,29.960 275.447,30.114 275.292 C 30.205 275.202,29.821 274.164,29.262 272.987 C 28.704 271.809,28.319 271.114,28.408 271.443 M345.951 273.243 C 345.475 274.223,345.169 275.025,345.271 275.025 C 345.540 275.025,347.149 271.792,346.969 271.612 C 346.885 271.529,346.427 272.262,345.951 273.243 M370.214 275.241 C 369.547 276.705,369.674 277.017,370.395 275.686 C 370.732 275.065,370.933 274.482,370.842 274.391 C 370.751 274.300,370.468 274.682,370.214 275.241 M343.881 277.015 C 343.434 277.891,343.158 278.607,343.267 278.607 C 343.377 278.607,343.832 277.891,344.279 277.015 C 344.725 276.139,345.001 275.423,344.892 275.423 C 344.782 275.423,344.327 276.139,343.881 277.015 M30.647 276.756 C 30.647 277.172,35.403 286.567,35.614 286.567 C 35.799 286.567,31.191 277.028,30.834 276.672 C 30.731 276.569,30.647 276.606,30.647 276.756 M368.970 277.784 C 368.743 278.207,368.367 279.058,368.135 279.675 C 367.516 281.314,368.369 280.279,369.097 278.507 C 369.745 276.932,369.666 276.483,368.970 277.784 M57.313 279.005 C 57.760 279.881,58.215 280.597,58.325 280.597 C 58.434 280.597,58.158 279.881,57.711 279.005 C 57.265 278.129,56.810 277.413,56.700 277.413 C 56.591 277.413,56.867 278.129,57.313 279.005 M342.090 280.199 C 341.750 280.856,341.562 281.393,341.671 281.393 C 341.781 281.393,342.148 280.856,342.488 280.199 C 342.827 279.542,343.015 279.005,342.906 279.005 C 342.797 279.005,342.429 279.542,342.090 280.199 M59.282 282.417 C 61.283 285.795,67.684 295.200,68.877 296.517 L 70.139 297.910 69.110 296.517 C 67.213 293.950,60.612 283.995,59.957 282.712 C 59.601 282.014,59.095 281.311,58.832 281.149 C 58.570 280.987,58.772 281.557,59.282 282.417 M366.566 282.788 C 366.335 283.397,366.051 284.049,365.935 284.236 C 365.819 284.424,365.820 284.577,365.936 284.577 C 366.284 284.577,367.441 282.134,367.205 281.898 C 367.085 281.778,366.798 282.179,366.566 282.788 M339.393 284.677 C 337.511 287.636,337.442 287.761,337.676 287.761 C 337.791 287.761,338.484 286.821,339.214 285.672 C 341.096 282.712,341.165 282.587,340.931 282.587 C 340.816 282.587,340.123 283.527,339.393 284.677 M364.577 286.567 C 364.130 287.443,363.854 288.159,363.964 288.159 C 364.073 288.159,364.528 287.443,364.975 286.567 C 365.422 285.692,365.698 284.975,365.588 284.975 C 365.479 284.975,365.024 285.692,364.577 286.567 M36.816 288.955 C 37.156 289.612,37.523 290.149,37.632 290.149 C 37.742 290.149,37.554 289.612,37.214 288.955 C 36.874 288.299,36.507 287.761,36.397 287.761 C 36.288 287.761,36.476 288.299,36.816 288.955 M335.109 291.244 C 333.925 292.940,331.830 295.851,330.453 297.711 C 329.076 299.572,328.592 300.378,329.379 299.502 C 331.466 297.180,337.870 288.159,337.432 288.159 C 337.338 288.159,336.292 289.547,335.109 291.244 M362.632 290.154 C 362.142 291.027,361.827 291.741,361.932 291.741 C 362.238 291.741,363.891 288.932,363.698 288.740 C 363.603 288.644,363.123 289.281,362.632 290.154 M39.054 292.906 C 39.767 294.204,40.694 295.682,41.113 296.190 C 41.895 297.138,41.866 297.082,39.105 292.239 C 38.575 291.308,38.055 290.547,37.949 290.547 C 37.843 290.547,38.341 291.609,39.054 292.906 M360.796 293.333 C 360.456 293.990,360.268 294.527,360.378 294.527 C 360.487 294.527,360.854 293.990,361.194 293.333 C 361.534 292.677,361.722 292.139,361.612 292.139 C 361.503 292.139,361.136 292.677,360.796 293.333 M359.555 295.423 C 358.185 297.747,358.095 297.946,358.793 297.114 C 359.602 296.151,360.298 294.925,360.037 294.925 C 359.933 294.925,359.716 295.149,359.555 295.423 M42.151 298.039 C 42.393 298.491,42.787 298.982,43.027 299.130 C 43.339 299.323,43.338 299.167,43.023 298.578 C 42.781 298.126,42.387 297.635,42.147 297.487 C 41.835 297.294,41.836 297.450,42.151 298.039 M70.488 298.751 C 71.604 300.434,76.630 306.422,77.095 306.621 C 77.533 306.808,71.946 299.896,70.538 298.507 C 69.996 297.974,69.991 297.999,70.488 298.751 M355.306 301.990 C 352.898 305.600,349.552 310.207,346.054 314.724 L 344.589 316.617 346.060 315.025 C 348.971 311.875,358.767 298.109,358.097 298.109 C 357.985 298.109,356.729 299.856,355.306 301.990 M43.593 300.100 C 44.304 301.399,47.007 305.274,47.202 305.274 C 47.456 305.274,47.197 304.838,45.423 302.289 C 43.948 300.169,43.030 299.071,43.593 300.100 M48.950 307.960 C 51.764 311.911,57.895 319.586,58.243 319.594 C 58.426 319.599,57.426 318.214,56.021 316.517 C 54.615 314.821,52.160 311.687,50.565 309.552 C 47.422 305.347,46.302 304.244,48.950 307.960 M318.209 311.790 C 314.925 315.153,310.716 319.292,308.856 320.988 C 306.995 322.684,306.454 323.289,307.653 322.334 C 311.532 319.245,325.118 305.664,324.321 305.673 C 324.243 305.674,321.493 308.427,318.209 311.790 M78.683 308.557 C 79.357 309.269,80.574 310.567,81.387 311.443 C 82.200 312.318,82.802 312.826,82.726 312.571 C 82.560 312.018,78.063 307.264,77.705 307.264 C 77.568 307.264,78.008 307.846,78.683 308.557 M84.577 314.826 C 85.432 315.701,86.296 316.418,86.497 316.418 C 86.698 316.418,86.124 315.701,85.222 314.826 C 84.319 313.950,83.455 313.234,83.302 313.234 C 83.148 313.234,83.722 313.950,84.577 314.826 M88.987 318.946 C 92.307 321.948,98.609 327.190,100.498 328.521 C 102.448 329.896,101.520 329.077,95.124 323.778 C 92.388 321.510,89.532 319.016,88.778 318.235 C 88.023 317.455,87.232 316.816,87.018 316.816 C 86.805 316.816,87.691 317.775,88.987 318.946 M340.764 320.939 C 332.859 329.969,322.492 339.592,312.548 347.132 C 308.728 350.028,307.453 351.302,310.698 348.980 C 321.148 341.502,334.515 329.055,343.022 318.883 C 346.059 315.251,344.504 316.668,340.764 320.939 M60.041 321.813 C 64.486 327.041,76.822 338.878,82.357 343.227 C 86.424 346.422,85.046 344.960,80.498 341.254 C 78.144 339.336,72.279 333.825,67.463 329.005 C 62.647 324.186,59.307 320.949,60.041 321.813 M299.104 328.789 C 297.134 330.313,294.313 332.373,292.836 333.367 C 291.358 334.361,290.149 335.264,290.149 335.372 C 290.149 335.771,299.209 329.366,301.692 327.211 C 304.066 325.151,302.853 325.891,299.104 328.789 M102.687 330.088 C 102.687 330.257,105.762 332.549,106.965 333.278 C 108.217 334.036,107.272 333.073,105.572 331.857 C 103.241 330.191,102.687 329.851,102.687 330.088 M107.861 333.725 C 107.861 333.896,111.847 336.652,113.035 337.303 C 113.455 337.532,113.514 337.501,113.234 337.195 C 112.717 336.632,107.861 333.495,107.861 333.725 M288.259 336.364 C 287.547 336.820,286.965 337.269,286.965 337.363 C 286.965 337.645,289.284 336.354,289.550 335.923 C 289.896 335.364,289.734 335.420,288.259 336.364 M113.831 337.616 C 113.831 337.716,114.861 338.432,116.119 339.208 C 118.996 340.981,126.965 345.206,126.965 344.959 C 126.965 344.857,124.682 343.520,121.891 341.987 C 119.100 340.455,116.144 338.803,115.323 338.317 C 114.502 337.831,113.831 337.516,113.831 337.616 M285.075 338.354 C 284.363 338.810,283.781 339.259,283.781 339.353 C 283.781 339.635,286.100 338.344,286.366 337.913 C 286.712 337.354,286.550 337.410,285.075 338.354 M282.090 340.128 C 280.602 340.935,280.692 341.272,282.189 340.498 C 282.846 340.158,283.383 339.795,283.383 339.691 C 283.383 339.435,283.340 339.450,282.090 340.128 M278.905 341.918 C 278.085 342.351,277.413 342.794,277.413 342.903 C 277.413 343.012,278.129 342.735,279.005 342.289 C 279.881 341.842,280.597 341.390,280.597 341.285 C 280.597 341.025,280.594 341.026,278.905 341.918 M275.288 343.729 C 274.667 344.065,274.256 344.439,274.376 344.558 C 274.496 344.678,275.183 344.398,275.904 343.937 C 277.414 342.970,276.967 342.819,275.288 343.729 M85.174 345.253 C 85.174 345.432,90.845 349.809,91.841 350.399 C 93.043 351.111,92.174 350.203,90.448 348.944 C 89.408 348.185,87.796 347.003,86.866 346.317 C 85.935 345.631,85.174 345.152,85.174 345.253 M128.955 346.070 C 129.940 346.597,130.925 347.029,131.144 347.029 C 131.363 347.029,130.736 346.597,129.751 346.070 C 128.766 345.542,127.781 345.111,127.562 345.111 C 127.343 345.111,127.970 345.542,128.955 346.070 M271.144 345.860 C 270.214 346.282,269.453 346.717,269.453 346.826 C 269.453 347.088,272.332 345.898,272.816 345.436 C 273.360 344.916,273.050 344.995,271.144 345.860 M131.741 347.272 C 131.741 347.501,135.195 349.064,135.655 349.043 C 136.033 349.025,134.760 348.315,133.131 347.634 C 132.366 347.315,131.741 347.152,131.741 347.272 M267.164 347.658 C 266.453 347.967,265.871 348.321,265.871 348.444 C 265.871 348.665,268.643 347.609,269.001 347.251 C 269.354 346.898,268.454 347.097,267.164 347.658 M263.284 349.460 C 262.396 349.896,262.132 350.133,262.687 349.997 C 263.849 349.710,265.856 348.691,265.274 348.683 C 265.055 348.680,264.159 349.030,263.284 349.460 M136.915 349.588 C 137.463 349.897,138.358 350.268,138.905 350.413 L 139.900 350.676 138.905 350.114 C 138.358 349.805,137.463 349.434,136.915 349.289 L 135.920 349.026 136.915 349.588 M303.412 353.557 C 296.776 358.018,296.905 357.926,298.109 357.358 C 300.182 356.380,309.394 350.012,308.358 350.274 C 308.303 350.288,306.078 351.765,303.412 353.557 M92.736 350.792 C 92.736 350.901,93.274 351.373,93.930 351.841 C 94.587 352.308,95.124 352.601,95.124 352.492 C 95.124 352.383,94.587 351.910,93.930 351.443 C 93.274 350.975,92.736 350.682,92.736 350.792 M140.100 350.775 C 140.100 351.064,144.539 352.708,144.751 352.497 C 144.843 352.404,144.148 352.058,143.206 351.729 C 142.263 351.399,141.179 351.001,140.796 350.845 C 140.413 350.689,140.100 350.657,140.100 350.775 M258.383 351.317 C 257.439 351.651,256.737 351.994,256.823 352.080 C 257.005 352.262,260.697 351.050,260.697 350.808 C 260.697 350.559,260.244 350.659,258.383 351.317 M95.696 352.993 C 95.844 353.233,96.335 353.626,96.787 353.868 C 97.375 354.184,97.532 354.185,97.339 353.873 C 97.191 353.633,96.700 353.239,96.248 352.997 C 95.659 352.682,95.503 352.681,95.696 352.993 M252.537 353.467 C 251.443 353.889,251.065 354.134,251.697 354.011 C 252.949 353.768,255.572 352.703,254.925 352.700 C 254.706 352.699,253.632 353.044,252.537 353.467 M147.463 353.646 C 148.119 353.947,148.925 354.186,149.254 354.179 C 149.582 354.171,149.313 353.918,148.657 353.617 C 148.000 353.317,147.194 353.077,146.866 353.085 C 146.537 353.093,146.806 353.346,147.463 353.646 M98.087 354.590 C 98.236 354.832,98.930 355.307,99.627 355.644 C 100.805 356.213,100.838 356.211,100.100 355.612 C 98.891 354.632,97.757 354.056,98.087 354.590 M153.397 355.466 C 154.690 355.883,155.823 356.151,155.914 356.060 C 156.093 355.880,151.933 354.602,151.382 354.667 C 151.196 354.688,152.103 355.048,153.397 355.466 M246.368 355.433 C 244.849 355.958,244.606 356.119,245.572 355.958 C 246.973 355.726,249.698 354.699,248.955 354.684 C 248.736 354.679,247.572 355.016,246.368 355.433 M101.271 356.580 C 101.420 356.822,102.114 357.297,102.811 357.634 C 103.989 358.203,104.022 358.201,103.284 357.602 C 102.075 356.622,100.941 356.046,101.271 356.580 M159.403 357.163 C 160.279 357.455,161.711 357.800,162.587 357.930 L 164.179 358.166 162.417 357.595 C 161.447 357.281,160.014 356.936,159.233 356.828 L 157.811 356.633 159.403 357.163 M238.874 357.284 C 237.488 357.612,236.436 357.961,236.535 358.061 C 236.743 358.268,242.388 357.037,242.388 356.784 C 242.388 356.526,241.607 356.637,238.874 357.284 M295.025 358.832 C 293.147 359.958,292.713 360.546,294.428 359.643 C 295.631 359.008,297.230 357.841,296.915 357.827 C 296.806 357.822,295.955 358.275,295.025 358.832 M104.478 358.497 C 104.929 358.975,112.070 363.098,113.134 363.496 C 114.663 364.067,113.667 363.366,110.547 361.677 C 108.741 360.699,106.547 359.488,105.672 358.987 C 104.796 358.486,104.259 358.265,104.478 358.497 M231.244 359.005 C 229.383 359.390,228.158 359.727,228.522 359.753 C 229.368 359.814,235.273 358.690,235.548 358.416 C 235.853 358.111,235.004 358.227,231.244 359.005 M167.304 359.016 C 167.929 359.203,169.451 359.452,170.687 359.569 L 172.935 359.781 170.348 359.219 C 167.460 358.591,165.436 358.456,167.304 359.016 M291.244 361.022 C 290.423 361.455,289.751 361.899,289.751 362.008 C 289.751 362.116,290.468 361.840,291.343 361.393 C 292.219 360.946,292.935 360.495,292.935 360.390 C 292.935 360.130,292.933 360.131,291.244 361.022 M179.502 361.000 C 180.488 361.167,182.995 361.401,185.075 361.519 L 188.856 361.735 184.677 361.203 C 179.968 360.605,176.326 360.462,179.502 361.000 M215.522 361.214 L 211.542 361.723 215.522 361.517 C 217.711 361.404,220.219 361.171,221.095 361.000 L 222.687 360.689 221.095 360.697 C 220.219 360.702,217.711 360.935,215.522 361.214 M192.949 362.085 C 194.105 362.166,195.896 362.165,196.929 362.083 C 197.961 362.001,197.015 361.935,194.826 361.936 C 192.637 361.937,191.792 362.004,192.949 362.085 M203.695 362.085 C 204.852 362.166,206.643 362.165,207.675 362.083 C 208.707 362.001,207.761 361.935,205.572 361.936 C 203.383 361.937,202.538 362.004,203.695 362.085 M287.761 362.985 C 286.995 363.405,286.511 363.755,286.686 363.764 C 287.108 363.787,289.353 362.619,289.353 362.378 C 289.353 362.117,289.330 362.126,287.761 362.985 M114.229 363.976 C 114.229 364.249,116.666 365.457,116.848 365.275 C 116.934 365.188,116.380 364.820,115.617 364.456 C 114.853 364.092,114.229 363.876,114.229 363.976 M282.587 365.572 C 280.726 366.535,279.342 367.332,279.511 367.343 C 279.934 367.371,286.169 364.217,286.169 363.976 C 286.169 363.706,286.338 363.631,282.587 365.572 M118.394 366.146 C 118.510 366.334,119.149 366.678,119.814 366.910 C 120.479 367.142,120.927 367.177,120.810 366.988 C 120.694 366.800,120.055 366.456,119.390 366.224 C 118.725 365.993,118.277 365.957,118.394 366.146 M122.587 368.159 C 123.353 368.579,124.159 368.922,124.378 368.922 C 124.597 368.922,124.149 368.579,123.383 368.159 C 122.617 367.740,121.811 367.397,121.592 367.397 C 121.373 367.397,121.821 367.740,122.587 368.159 M276.219 368.557 C 275.453 368.977,274.938 369.327,275.076 369.337 C 275.488 369.364,278.209 368.164,278.209 367.955 C 278.209 367.608,277.637 367.781,276.219 368.557 M127.713 370.357 C 128.891 370.916,129.928 371.299,130.018 371.209 C 130.108 371.119,129.414 370.734,128.474 370.354 C 125.751 369.253,125.390 369.255,127.713 370.357 M272.040 370.368 C 270.945 370.900,270.498 371.224,271.045 371.089 C 272.185 370.808,275.028 369.385,274.428 369.395 C 274.209 369.399,273.134 369.837,272.040 370.368 M131.940 372.100 C 132.816 372.511,133.980 372.955,134.527 373.085 C 135.075 373.216,134.806 372.987,133.930 372.576 C 133.055 372.165,131.891 371.722,131.343 371.591 C 130.796 371.460,131.065 371.689,131.940 372.100 M267.155 372.222 C 266.000 372.677,265.126 373.119,265.212 373.205 C 265.395 373.389,269.851 371.764,269.851 371.514 C 269.851 371.227,269.339 371.361,267.155 372.222 M136.760 373.925 C 137.441 374.233,138.516 374.592,139.148 374.725 L 140.299 374.965 139.104 374.413 C 138.448 374.109,137.373 373.750,136.716 373.614 L 135.522 373.366 136.760 373.925 M262.363 374.003 C 261.419 374.337,260.717 374.681,260.803 374.767 C 260.985 374.948,264.677 373.736,264.677 373.495 C 264.677 373.246,264.224 373.345,262.363 374.003 M140.498 375.066 C 140.498 375.368,145.743 376.977,145.974 376.746 C 146.074 376.646,145.106 376.261,143.824 375.890 C 142.542 375.519,141.269 375.131,140.995 375.028 C 140.721 374.925,140.498 374.942,140.498 375.066 M256.119 376.119 C 255.025 376.523,254.281 376.868,254.466 376.885 C 254.970 376.931,259.104 375.691,259.104 375.494 C 259.104 375.176,258.116 375.383,256.119 376.119 M148.060 377.497 C 148.060 377.694,150.285 378.325,152.239 378.681 C 152.896 378.801,152.358 378.545,151.045 378.112 C 148.559 377.292,148.060 377.189,148.060 377.497 M249.817 377.913 C 247.714 378.491,246.628 379.151,248.558 378.678 C 250.747 378.141,252.943 377.392,252.338 377.388 C 252.010 377.386,250.875 377.623,249.817 377.913 M155.821 379.676 C 156.259 379.853,157.423 380.106,158.408 380.238 L 160.199 380.478 158.209 379.898 C 156.067 379.275,154.458 379.125,155.821 379.676 M241.990 379.900 C 240.785 380.250,240.525 380.422,241.194 380.428 C 241.741 380.433,242.905 380.200,243.781 379.912 C 245.844 379.232,244.331 379.222,241.990 379.900 M162.388 381.013 C 162.388 381.305,169.939 382.631,170.187 382.383 C 170.300 382.271,169.173 381.973,167.683 381.721 C 166.194 381.470,164.393 381.161,163.682 381.035 C 162.970 380.910,162.388 380.900,162.388 381.013 M232.040 381.809 C 230.836 382.040,230.119 382.290,230.448 382.365 C 230.776 382.439,232.299 382.249,233.831 381.943 C 235.363 381.637,236.080 381.387,235.423 381.387 C 234.766 381.388,233.244 381.577,232.040 381.809 M175.188 383.240 C 176.451 383.662,187.399 384.674,187.678 384.395 C 187.785 384.288,185.497 383.986,182.593 383.724 C 179.689 383.463,176.597 383.167,175.721 383.067 C 174.402 382.918,174.311 382.947,175.188 383.240 M218.401 383.603 C 215.169 383.931,212.612 384.287,212.719 384.394 C 212.981 384.656,223.869 383.679,225.210 383.274 L 226.269 382.954 225.274 382.981 C 224.726 382.995,221.634 383.276,218.401 383.603 M195.522 384.775 C 198.095 384.844,202.303 384.844,204.876 384.775 C 207.448 384.706,205.343 384.649,200.199 384.649 C 195.055 384.649,192.950 384.706,195.522 384.775 " stroke="none" fill="#9a9a9b" fill-rule="evenodd"></path></g></svg>