<svg id="svg" version="1.1" xmlns="http://www.w3.org/2000/svg" width="400" height="397.985"><g id="svgg" stroke="none" fill-rule="evenodd"><path id="path0" d="M192.239 36.632C115.6 40.804 52.967 95.536 39.223 170.348c-3.186 17.347-3.34 39.953-.378 55.846l.654 3.507.847-.758c.467-.417 4.341-3.858 8.609-7.648 4.269-3.79 9.176-8.161 10.904-9.715 1.729-1.553 3.463-2.824 3.853-2.824.404 0 9.064 8.295 20.108 19.261l19.398 19.26 3.217-3.372c1.769-1.854 5.898-6.223 9.175-9.708 3.277-3.485 7.665-8.054 9.751-10.153 2.086-2.099 6.211-6.37 9.166-9.491 8.475-8.949 9.085-9.592 12.302-12.961 1.672-1.751 4.817-5.065 6.988-7.363 2.172-2.299 5.57-5.89 7.553-7.981 8.33-8.786 14.452-15.264 15.943-16.871.876-.944 4.413-4.67 7.861-8.281l6.269-6.565v-29.106c0-17.841-.145-29.107-.373-29.107-.222 0-.424 5.24-.498 12.929l-.124 12.928-1.301 1.3c-1.768 1.768-4.3 1.852-5.954.198l-1.103-1.103-.119-14.22c-.149-17.847.118-19.64 3.465-23.312 2.569-2.817 2.764-2.849 17.549-2.849h13.333l1.884 1.129c5.253 3.146 5.619 4.606 5.792 23.15l.142 15.124-.924 1.362c-1.178 1.738-2.703 2.27-4.749 1.657-2.694-.807-2.742-1.077-2.742-15.537 0-11.073-.078-12.756-.597-12.756-.525 0-.597 3.464-.597 28.788v28.788l45.018 44.894 45.017 44.895 4.237-4.153c24.805-24.317 23.862-23.411 24.347-23.411.21 0 1.323.874 2.474 1.941 2.221 2.06 2.474 2.291 7.801 7.107 3.495 3.158 7.005 6.338 9.77 8.849.853.774 2.463 2.252 3.579 3.284 2.433 2.252 2.173 2.623 3.831-5.459 5.34-26.033 3.92-55.619-3.86-80.398-14.764-47.021-48.571-83.779-94.799-103.072-20.025-8.357-47.333-12.956-69.703-11.739m15.547 27.266c7.74 5.364 4.328 16.718-5.017 16.692-8.371-.023-12.054-10.428-5.635-15.923 2.959-2.533 7.621-2.87 10.652-.769m-5.199 69.634c0 5.705.145 8.956.398 8.956.254 0 .398-3.251.398-8.956 0-5.704-.144-8.955-.398-8.955-.253 0-.398 3.251-.398 8.955" fill="#4cbceb"/><path id="path1" d="M188.06 14.335c-32.885 2.225-66.976 13.811-91.935 31.247-1.317.92-3.021 2.1-3.788 2.622-2.22 1.512-4.248 3.065-9.352 7.16C29.078 98.611 3.997 168.238 17.767 236.418c1.99 9.854 6.436 24.771 9.312 31.244.389.875 1.356 3.162 2.15 5.082 13.37 32.342 40.61 63.924 72.065 83.553 21.756 13.576 43.442 21.617 70.646 26.194 22.529 3.79 55.406 1.992 76.816-4.201 33.625-9.726 59.886-24.82 82.694-47.529 29.122-28.996 45.896-61.858 53.034-103.895 2.543-14.977 2.543-40.282-.001-55.324-3.669-21.69-8.564-37.014-17.611-55.124-19.273-38.582-53.761-71.034-92.842-87.36a707.59 707.59 0 0 1-5.174-2.178c-21.166-9.132-54.572-14.319-80.796-12.545m29.452 23.102c14.773 1.497 31.94 5.721 44.43 10.934C337.25 79.8 377.696 157.825 359.576 236.716c-1.527 6.65-1.896 8.089-2.83 11.045-9.535 30.178-27.908 57.363-52.072 77.049-5.376 4.379-10.63 8.266-14.724 10.893-1.313.843-3.015 1.938-3.781 2.435-15.918 10.317-39.242 18.833-60.895 22.236-72.669 11.42-145.646-28.345-174.897-95.299a856.467 856.467 0 0 0-1.835-4.179c-7.566-16.847-12.331-42.96-11.803-64.677C39.081 99.98 121.374 27.698 217.512 37.437M198.01 147.65c-4.192 4.486-28.022 29.61-37.006 39.017-1.778 1.86-4.656 4.897-6.396 6.748a1683.24 1683.24 0 0 1-6.98 7.363c-11.638 12.197-20.265 21.418-20.265 21.659 0 .543 9.206 11.195 9.672 11.192.263-.001 4.186-3.896 8.719-8.656 4.532-4.76 9.577-9.979 11.21-11.597l2.97-2.942 17.971 17.868c9.884 9.827 18.112 17.867 18.284 17.867.172 0 7.249-6.806 15.726-15.124 8.477-8.319 15.556-15.177 15.73-15.241.175-.064 1.609 1.503 3.187 3.483 1.579 1.979 3.026 3.599 3.217 3.599.191 0 3.086-2.506 6.433-5.568 7.096-6.491 6.34-6.24 9.282-3.089 8.406 9.003 14.272 14.64 14.719 14.146.256-.283 3.039-3.265 6.183-6.628l5.717-6.113-36.669-36.573c-20.168-20.115-36.728-36.562-36.799-36.548-.071.015-2.278 2.326-4.905 5.137" fill="#fbfbfb"/><path id="path2" d="M184.279.637c-.985.08-4.03.349-6.767.598-2.736.249-5.199.461-5.472.471-.274.01-.498.13-.498.267 0 .136-2.015.483-4.477.771-2.463.287-4.567.638-4.677.78-.109.141-.468.285-.796.32-2.13.224-8.592 1.493-8.756 1.719-.11.151-1.811.59-3.781.976-1.97.385-3.761.837-3.98 1.003-.219.166-1.649.609-3.177.985-1.528.375-2.961.828-3.184 1.007-.223.178-1.032.457-1.799.62-.766.163-1.84.482-2.388.709-.547.228-1.084.444-1.194.48-.109.037-.703.276-1.319.531s-1.335.464-1.598.464c-.263 0-1.102.328-1.865.729-.763.401-2.238.961-3.277 1.246-1.04.284-1.891.644-1.891.8 0 .156-1.075.609-2.388 1.006-1.313.398-2.388.874-2.388 1.058 0 .185-.205.335-.456.335-.25 0-1.759.627-3.352 1.393-1.593.767-3.089 1.394-3.325 1.394-.236 0-.429.154-.429.343 0 .19-.851.666-1.891 1.058-1.04.393-1.98.831-2.089.973-.11.142-.797.5-1.527.795-.73.295-1.543.753-1.806 1.016-.263.263-1.278.868-2.255 1.343-2.651 1.291-4.14 2.123-4.363 2.438-.109.154-.809.593-1.554.976-.746.382-1.552.862-1.791 1.067-.24.205-1.421.984-2.625 1.732-1.204.747-2.379 1.521-2.612 1.72-.233.199-.801.563-1.262.81-.462.248-1.078.677-1.368.955-.291.277-1.738 1.298-3.215 2.267C81.209 38.761 80 39.687 80 39.85c0 .162-.313.396-.697.519-.383.123-1.172.627-1.753 1.121s-1.62 1.346-2.309 1.893a80.034 80.034 0 0 0-2.391 1.99 108.29 108.29 0 0 1-2.109 1.791c-1.4 1.148-5.731 4.972-7.213 6.368-.697.657-2.156 2.018-3.243 3.025-1.882 1.743-3.738 3.691-9.067 9.513a828.817 828.817 0 0 1-3.708 4.026c-.738.792-1.341 1.577-1.341 1.746 0 .168-.403.69-.895 1.16-.493.469-1.344 1.455-1.891 2.191a49.265 49.265 0 0 1-2.083 2.575c-.599.68-1.091 1.371-1.095 1.535-.003.165-.319.657-.703 1.095-1.68 1.92-2.634 3.235-3.156 4.348-.146.311-.516.849-.822 1.194-1.548 1.743-2.488 3.063-2.489 3.493 0 .263-.234.621-.519.796-.286.175-.831.99-1.213 1.811-.381.821-.837 1.492-1.013 1.492-.176 0-.652.806-1.058 1.791-.406.985-.859 1.791-1.007 1.791-.147 0-.49.538-.762 1.194-.272.657-.607 1.197-.745 1.199-.138.003-.607.764-1.043 1.692-.437.927-1.019 1.923-1.294 2.213-.275.289-.5.756-.5 1.039 0 .282-.43 1.145-.954 1.918-.524.773-1.187 2.051-1.473 2.841-.286.79-.663 1.437-.837 1.437-.175 0-.318.175-.318.389 0 .214-.627 1.728-1.394 3.365-.766 1.636-1.393 3.163-1.393 3.392 0 .229-.15.416-.335.416-.184 0-.558.761-.83 1.691-.272.931-.721 2.05-.998 2.488-.276.438-.729 1.512-1.007 2.388a32.485 32.485 0 0 1-1.038 2.786c-.768 1.722-1.814 4.694-1.857 5.274-.021.273-.153.497-.294.497s-.492.941-.781 2.09c-.288 1.149-.669 2.273-.846 2.498-.177.225-.625 1.747-.995 3.383s-.796 3.064-.947 3.174c-.15.109-.601 1.811-1.001 3.781-.4 1.97-.862 3.761-1.027 3.98-.165.219-.598 2.16-.962 4.313-.365 2.154-.826 4.303-1.025 4.776-.199.474-.628 2.831-.955 5.239-.326 2.408-.764 5.295-.974 6.415-1.805 9.64-1.475 49.856.451 55.078.121.328.492 2.477.824 4.776.743 5.144 2.157 12.261 2.649 13.333.2.438.652 2.229 1.003 3.98.352 1.751.812 3.5 1.023 3.887.212.386.664 1.907 1.005 3.379.342 1.473.763 2.858.936 3.079.173.221.535 1.342.805 2.491.269 1.149.661 2.09.871 2.09.21 0 .267.187.126.415-.142.229-.076.634.146.901.221.267.616 1.334.877 2.371.261 1.036.618 1.885.794 1.885.175 0 .446.582.602 1.293.155.712.791 2.407 1.413 3.767.622 1.36 1.245 2.927 1.384 3.482.14.556.413 1.01.609 1.01.195 0 .354.175.354.388 0 .213.513 1.512 1.14 2.886.627 1.373 1.266 2.9 1.42 3.393.154.492.411.895.571.895.161 0 .525.647.811 1.437.286.79.949 2.068 1.473 2.841.524.773.954 1.636.954 1.918 0 .283.227.75.504 1.039.278.29.842 1.288 1.255 2.218.412.93.868 1.691 1.013 1.691.145 0 .509.627.81 1.394.3.766.679 1.393.841 1.393.162 0 .611.716.998 1.592.386.875.819 1.592.963 1.592.143 0 .579.705.968 1.568.389.863.954 1.663 1.255 1.779.301.115.547.41.547.655 0 .437 2.11 3.636 3.084 4.677.274.293.498.664.498.826 0 .162.315.642.7 1.066.384.425 1.023 1.276 1.419 1.893.759 1.182 1.484 2.091 2.956 3.707.492.541.896 1.109.897 1.262.001.153.807 1.166 1.791 2.251.984 1.086 1.789 2.08 1.789 2.209s.672.956 1.493 1.837c.821.881 2.925 3.18 4.676 5.109 3.924 4.322 9.684 10.166 10.02 10.166.137 0 1.086.85 2.11 1.89 2.032 2.065 6.136 5.7 6.954 6.16.282.159 1.049.789 1.704 1.401s2.244 1.914 3.533 2.895c1.289.981 2.689 2.094 3.111 2.475.423.38 1.095.796 1.494.922.399.127.726.386.726.575 0 .189.327.448.726.575.399.126 1.071.542 1.492.922.422.381 1.841 1.409 3.152 2.284 1.312.876 2.596 1.788 2.852 2.027.257.24 1.019.664 1.694.944.676.28 1.228.639 1.228.798 0 .159.717.612 1.592 1.007.876.395 1.592.858 1.592 1.03 0 .171.627.538 1.393.815.767.278 1.393.62 1.393.762 0 .141.762.593 1.692 1.003.93.411 1.781.85 1.891.977.332.384 4.485 2.596 5.97 3.179.766.301 1.482.659 1.592.796.196.245 3.985 2.104 8.433 4.135 1.245.569 2.543 1.035 2.885 1.035.342 0 .622.15.622.335 0 .184 1.119.67 2.488 1.08 1.368.41 2.708.959 2.977 1.221.269.261 1.209.597 2.089.745.88.149 1.6.414 1.6.589 0 .176 1.209.637 2.687 1.026 1.477.389 2.869.844 3.092 1.012.223.168 1.656.615 3.184.995 1.528.379 2.868.81 2.978.958.109.148 1.811.599 3.781 1.003 1.97.403 3.671.861 3.781 1.017.109.156 1.632.518 3.383.805 1.751.287 3.275.649 3.385.804.111.155 2.35.578 4.975.94 2.626.362 5.132.82 5.57 1.017 5.337 2.405 58.504 2.419 64.08.016.438-.189 2.942-.644 5.565-1.011 2.622-.367 4.951-.808 5.174-.979.223-.172 1.793-.543 3.49-.825 1.696-.282 3.084-.634 3.084-.781 0-.148 1.702-.59 3.781-.981 2.08-.392 3.781-.849 3.781-1.017 0-.167 1.12-.523 2.488-.791 1.368-.268 3.204-.805 4.08-1.193.875-.388 2.123-.832 2.772-.987.649-.154 1.903-.605 2.786-1.002s2.188-.846 2.899-.998c.712-.152 1.294-.417 1.294-.59 0-.172 1.074-.615 2.388-.984 1.313-.368 2.389-.795 2.391-.948.002-.152 1.077-.612 2.388-1.021 1.312-.409 2.385-.901 2.385-1.094 0-.193.225-.351.499-.351s1.791-.627 3.37-1.394c1.58-.766 3.057-1.393 3.283-1.393.225 0 .41-.161.41-.358 0-.197.896-.68 1.99-1.073 1.095-.394 1.99-.833 1.99-.975 0-.143.806-.592 1.791-.998.985-.406 1.791-.869 1.791-1.028 0-.16.374-.409.831-.554.958-.304 4.69-2.538 5.467-3.272.289-.274.72-.498.957-.498s1.019-.448 1.736-.995c.718-.547 1.451-.995 1.63-.995.178-.001.804-.404 1.39-.896.951-.799 1.825-1.379 4.442-2.948.423-.254.88-.612 1.014-.796.135-.184 1.32-1.044 2.633-1.911s2.657-1.81 2.985-2.097c.328-.286 1.761-1.426 3.184-2.533 4.572-3.557 4.58-3.563 10.76-9.117 5.129-4.611 16.305-15.989 16.305-16.601 0-.185.492-.79 1.094-1.344.602-.554 1.364-1.355 1.693-1.78 1.239-1.602 3.788-4.761 3.996-4.952.119-.109 1.334-1.721 2.701-3.582 1.366-1.861 2.757-3.711 3.09-4.111.333-.4.803-1.161 1.045-1.691.241-.53.581-.964.754-.964.174 0 .628-.672 1.01-1.493.381-.821.903-1.622 1.16-1.781.257-.159.691-.831.965-1.493.274-.662.629-1.203.788-1.203.159 0 .612-.717 1.007-1.592.395-.876.858-1.592 1.029-1.592.171 0 .433-.403.584-.896.15-.492.499-1.164.775-1.492.277-.329 1.243-2.03 2.147-3.782.904-1.751 1.908-3.53 2.229-3.953.322-.422.782-1.363 1.021-2.089.24-.726.601-1.321.803-1.321.202 0 .367-.198.367-.439 0-.242.422-1.279.937-2.305.515-1.025 1.156-2.529 1.424-3.341.268-.812.624-1.477.791-1.477.167 0 .541-.761.831-1.692.291-.93.833-2.228 1.204-2.885.372-.657.918-2.045 1.215-3.085.296-1.039.655-1.89.798-1.89.143 0 .489-.851.771-1.891.281-1.04.639-2.069.795-2.288.156-.219.592-1.383.968-2.587.377-1.204.922-2.727 1.212-3.383.29-.657.746-2.314 1.012-3.682.266-1.368.616-2.488.776-2.488.161 0 .602-1.567.981-3.482.379-1.916.828-3.662.997-3.881.169-.219.534-1.652.811-3.184.276-1.532.642-2.965.811-3.184.17-.219.609-2.547.976-5.174.366-2.627.819-5.068 1.005-5.425 2.391-4.579 2.42-58.134.034-63.829-.183-.438-.698-2.945-1.145-5.572-1.025-6.028-2.003-10.56-2.459-11.387-.194-.352-.661-2.188-1.036-4.08-.376-1.891-.814-3.438-.975-3.438-.16 0-.511-1.12-.779-2.488-.268-1.368-.805-3.204-1.193-4.08-.388-.875-.832-2.123-.987-2.772-.154-.649-.605-1.903-1.002-2.786s-.846-2.188-.998-2.899c-.152-.712-.412-1.294-.579-1.294-.167 0-.629-1.074-1.026-2.388-.398-1.313-.855-2.388-1.015-2.388-.161 0-.41-.492-.553-1.094-.502-2.103-7.498-16.243-10.092-20.398a41.656 41.656 0 0 1-1.57-2.787c-.386-.766-.925-1.536-1.198-1.711-.274-.175-.498-.578-.498-.895 0-.318-.319-.897-.709-1.287-.391-.391-1.026-1.376-1.412-2.189-.386-.814-.873-1.48-1.081-1.48-.209 0-.38-.2-.38-.444s-.627-1.298-1.393-2.342-1.393-2.008-1.393-2.143c0-.135-.358-.648-.796-1.14-1.611-1.813-1.99-2.294-1.99-2.528 0-.422-6.889-8.915-7.232-8.915-.181 0-.33-.225-.33-.5s-.73-1.305-1.622-2.288l-4.079-4.502c-4.154-4.584-11.76-12.03-15.932-15.596l-2.086-1.791a92.174 92.174 0 0 0-2.902-2.388 62.544 62.544 0 0 1-2.414-1.99c-1.552-1.363-2.524-2.106-5.99-4.58-1.642-1.172-3.299-2.411-3.682-2.755-.383-.344-.79-.625-.905-.625-.198 0-3.921-2.424-4.766-3.103-.219-.176-1.022-.669-1.784-1.096-.762-.427-1.598-.972-1.857-1.211-.259-.24-1.023-.664-1.698-.944-.676-.28-1.228-.639-1.228-.798 0-.159-.717-.612-1.592-1.007-.876-.395-1.592-.841-1.592-.992 0-.151-.717-.51-1.593-.799-.875-.289-1.592-.658-1.592-.821 0-.162-.805-.626-1.789-1.03-.984-.405-1.79-.853-1.791-.995-.001-.142-.897-.581-1.992-.974-1.094-.394-1.99-.841-1.99-.995 0-.154-.895-.602-1.99-.995-1.094-.394-1.99-.836-1.99-.983 0-.148-.806-.494-1.791-.77-.985-.275-1.791-.628-1.791-.784 0-.155-.761-.518-1.691-.807-.931-.288-2.05-.737-2.488-.997-.438-.261-1.781-.796-2.985-1.19-1.204-.394-2.279-.83-2.388-.968-.249-.313-4.868-1.8-5.274-1.697-.164.041-.298-.07-.298-.247 0-.178-.941-.559-2.09-.848-1.149-.288-2.273-.669-2.498-.846-.225-.177-1.747-.623-3.383-.99-1.636-.368-3.154-.81-3.373-.983-.219-.172-2.01-.629-3.98-1.014-1.97-.386-3.671-.82-3.781-.964-.388-.513-14.605-3.127-17.214-3.165-.821-.012-1.492-.162-1.492-.333s-.403-.347-.896-.39c-.492-.043-2.507-.273-4.477-.511-3.393-.41-35.388-.85-39.204-.539m33.432 13.678c1.642.209 5.224.66 7.961 1.002 61.126 7.655 117.06 48.558 143.423 104.883 1.28 2.736 2.494 5.293 2.697 5.683.203.39.825 1.912 1.382 3.383.558 1.471 1.461 3.838 2.008 5.261.923 2.405 2.236 6.26 3.929 11.543 16.498 51.474 6.49 113.354-25.788 159.437-18.95 27.055-49.666 52.309-77.303 63.556a622.18 622.18 0 0 0-4.577 1.9c-35.735 14.992-79.244 18.006-117.811 8.159-36.667-9.361-69.622-29.841-95.227-59.181-10.822-12.401-22.301-30.464-28.546-44.916a887.667 887.667 0 0 0-1.815-4.179c-.493-1.12-1.249-3.059-3.532-9.052-10.708-28.113-13.677-64.885-7.777-96.31 5.047-26.88 14.727-49.64 31.398-73.821 12.487-18.113 31.351-35.778 53.36-49.967 12.24-7.892 32.631-16.963 46.766-20.805 14.777-4.016 27.542-6.21 41.393-7.113 4.046-.264 24.9.135 28.059.537m-18.598 49.404c-8.346 4.132-5.422 16.554 3.872 16.451 9.253-.102 12.127-12.157 3.894-16.332-2.42-1.228-5.433-1.274-7.766-.119m-9.12 19.036c-3.252.809-5.77 3.44-6.965 7.278-1.25 4.017-1.119 31.67.157 33.153 1.347 1.567 3.777 1.784 5.3.474l1.167-1.003.199-13.269c.194-12.937.219-13.269.995-13.269.787 0 .798.332.995 28.823l.199 28.823 1.351-1.559c.743-.858 3.023-3.303 5.067-5.433l3.716-3.875.107-9.26c.092-7.918.194-9.26.704-9.26.508 0 .627 1.394.796 9.362l.199 9.363 4.975 4.925 4.975 4.926.199-28.412c.184-26.249.251-28.422.871-28.541.617-.119.682.938.796 13.062l.124 13.192 1.3 1.161c1.881 1.68 4.939 1.273 6.052-.807.708-1.324.54-29.687-.191-32.149-.923-3.109-2.861-5.686-5.159-6.861l-1.978-1.012-12.35-.071c-6.793-.04-12.913.068-13.601.239M53.893 217.37c-13.804 12.283-14.092 12.552-14.092 13.193 0 1.585 3.184 13.615 5.289 19.984 1.451 4.39 2.213 6.378 5.263 13.732 1.264 3.045 7.594 15.458 8.983 17.612 14.252 22.111 27.987 37.175 44.502 48.808 18.668 13.149 37.599 21.86 57.953 26.667 77.957 18.411 157.212-21.014 188.731-93.883 3.081-7.124 8.072-21.772 8.082-23.725.002-.242-2.37-2.568-5.271-5.167-2.9-2.6-8.231-7.416-11.846-10.704-3.615-3.287-6.973-6.318-7.463-6.735l-.891-.759-2.686 2.52c-1.477 1.386-6.628 6.384-11.445 11.107a2919.297 2919.297 0 0 1-11.646 11.367l-2.887 2.779-14.061-14.056-14.061-14.057-5.902 6.384c-3.247 3.512-6.101 6.461-6.343 6.554-.242.093-4.107-3.616-8.589-8.242-4.482-4.626-8.354-8.411-8.603-8.411-.249 0-3.15 2.463-6.446 5.473-7.083 6.468-6.338 6.326-9.817 1.875-3.078-3.938-2.958-3.848-3.822-2.87-1.062 1.201-30.273 29.746-30.546 29.849-.142.053-8.408-7.976-18.369-17.842l-18.109-17.939-5.127 5.304a5169.131 5169.131 0 0 0-11.327 11.772c-3.411 3.557-6.298 6.455-6.416 6.44-.118-.015-2.364-2.6-4.991-5.744-2.627-3.144-4.886-5.683-5.021-5.644-.135.04-4.24 4.282-9.123 9.426-13.334 14.048-14.375 15.124-14.637 15.124-.133 0-8.99-8.731-19.681-19.403a22730.711 22730.711 0 0 0-19.556-19.506c-.063-.057-4.577 3.865-10.029 8.717" fill="#5c5c5c"/><path id="path3" d="M201.891 62.773a8.81 8.81 0 0 0 2.189 0c.602-.092.109-.166-1.095-.166s-1.696.074-1.094.166m-3.921 1.24c-.854.62-1.821 1.471-2.149 1.891-.328.419.105.159.964-.579s2.112-1.582 2.786-1.875c.674-.293.938-.54.588-.549-.35-.008-1.335.492-2.189 1.112m7.436-.979c.092.082.793.449 1.559.816l1.393.667-.939-.816c-.517-.448-1.219-.815-1.559-.815-.341 0-.545.066-.454.148m5.531 5.026c.433.985.815 2.597.85 3.582.037 1.055.137 1.397.243.833.296-1.57-.278-4.317-1.106-5.294-.758-.893-.758-.875.013.879m-16.576.297c-.721 1.725-.539 6.246.282 7.003.393.363.433.291.189-.335-.63-1.621-.674-4.785-.09-6.468.726-2.09.466-2.227-.381-.2m16.649 6.637c-.267.739-1.282 2.078-2.256 2.976-.974.897-1.589 1.632-1.367 1.632.705 0 3.854-3.518 4.129-4.613.389-1.55.056-1.546-.506.005m-15.614 1.735c1.562 3.042 8.932 5.271 10.905 3.299.205-.205-.394-.191-1.377.033-3.238.738-6.247-.239-8.653-2.808-.884-.943-1.182-1.122-.875-.524m-5.568 5.638c-2.302.699-4.765 2.534-5.636 4.2-.229.438.279.059 1.129-.841 2.978-3.157 2.815-3.125 16.47-3.253 9.354-.088 12.615.012 14.214.435 1.141.302 1.985.405 1.876.229-.658-1.065-24.891-1.729-28.053-.77m29.962 2.478c.815.769 1.933 2.366 2.484 3.55.551 1.184 1.004 1.937 1.006 1.673.011-1.443-2.597-5.35-4.115-6.162-.471-.252-.19.171.625.939m-36.656 3.421c-.207.387-.482 1.417-.612 2.289-.248 1.675-.108 1.438.769-1.301.563-1.759.492-2.202-.157-.988m-1.063 18.998c0 8.099.053 11.356.118 7.237.064-4.118.064-10.745-.001-14.726-.064-3.981-.117-.611-.117 7.489m41.79.398c0 7.88.053 11.161.118 7.289.065-3.871.066-10.319.001-14.328-.065-4.009-.119-.842-.119 7.039m-33.731-11.49c-.154.153-.279 6.084-.279 13.179v12.899l-1.164 1.164c-.64.64-1.031 1.163-.87 1.163.161 0 .819-.549 1.462-1.219l1.169-1.22.124-12.91c.074-7.612.277-12.91.495-12.91.224 0 .412 11.43.477 28.956l.106 28.955-.004-29.049c-.004-30.19-.021-30.503-1.516-29.008m24.182.246c-.104.274-.142 13.303-.084 28.955l.106 28.458.097-28.727c.09-26.978.139-28.738.793-28.909.653-.171.652-.185-.013-.228-.39-.026-.794.177-.899.451m-32.023 26.046c0 .829 1.956 2.154 3.425 2.319l1.55.174-1.679-.41c-.985-.24-2.014-.835-2.488-1.438-.445-.565-.808-.855-.808-.645m34.078.702c.232.607 1.686 1.622 1.923 1.344.062-.073-.401-.548-1.028-1.057-.805-.653-1.068-.737-.895-.287m5.818.488c-.494.345-1.479.78-2.189.967-1.222.322-1.207.331.279.161.862-.099 1.932-.543 2.377-.988.956-.957.78-1.01-.467-.14m-19.805.999c-.113.296-.155 4.565-.091 9.485l.115 8.947.092-9.254c.121-12.294.831-12.437.99-.199l.118 9.055-.011-9.122c-.01-8.671-.349-11.162-1.213-8.912M61.073 210.459c-1.106 1.034-6.435 5.81-11.841 10.614-5.406 4.804-9.829 8.876-9.829 9.049 0 .173 1.03-.643 2.289-1.814 1.258-1.17 6.587-5.94 11.84-10.599 5.254-4.659 9.723-8.624 9.931-8.811.238-.215.238-.337 0-.329-.208.006-1.284.857-2.39 1.89m19.706 14.914c9.293 9.341 16.964 16.917 17.046 16.835.125-.124-32.879-33.087-33.678-33.635-.146-.101 7.338 7.459 16.632 16.8m209.169 4.198c7.88 7.925 14.436 14.409 14.57 14.409.133 0 5.418-5.062 11.743-11.249 17.689-17.303 16.74-16.458 17.6-15.679.401.363.894.653 1.096.646.453-.016-1.381-1.579-1.853-1.579-.437 0 .245-.657-24.311 23.417l-4.243 4.159-13.486-13.489c-7.417-7.419-13.926-13.839-14.464-14.267-.538-.427 5.469 5.707 13.348 13.632m47.15-9.751c.976 1.03 1.841 1.872 1.924 1.872.403 0-.286-.792-1.908-2.194l-1.791-1.549 1.775 1.871m5.006 4.462c3.975 3.87 9.88 9.185 9.702 8.733-.09-.229-1.328-1.466-2.751-2.748a4397.55 4397.55 0 0 1-4.577-4.13c-3.825-3.457-4.811-4.227-2.374-1.855m-220.741 3.877c-9.961 10.56-11.508 12.314-5.035 5.71 6.313-6.441 11.27-11.779 10.939-11.779-.098 0-2.755 2.731-5.904 6.069m232.451 6.786c.976 1.029 1.842 1.871 1.924 1.871.403 0-.285-.792-1.907-2.194l-1.791-1.548 1.774 1.871m2.803 2.393c0 .069.582.651 1.293 1.294l1.294 1.169-1.169-1.294c-1.09-1.205-1.418-1.476-1.418-1.169m-250.273 6.66c-2.046 2.195-3.099 3.05-3.548 2.878-.424-.163-.542-.089-.35.221.158.256.501.442.762.415.545-.058 6.469-6.23 6.214-6.474-.092-.089-1.478 1.243-3.078 2.96m-6.452.571c.963.98 1.839 1.693 1.948 1.584.21-.209-3.024-3.367-3.449-3.367-.136 0 .539.802 1.501 1.783" fill="#62a1bd"/><path id="path4" d="M186.883 13.992c-2.837.19-5.971.517-6.965.727l-1.809.382 1.791-.169c11.86-1.12 29.192-1.122 40.598-.005l1.791.175-1.753-.376c-4.929-1.06-22.93-1.452-33.653-.734m-11.659 1.407c.383.1 1.01.1 1.393 0s.07-.182-.697-.182c-.766 0-1.079.082-.696.182m-5.871.733-2.388.523 2.233-.207c1.229-.114 2.841-.351 3.582-.526l1.349-.318-1.194.003c-.656.001-2.268.237-3.582.525m58.309-.225c.766.195 2.467.45 3.781.566 1.873.167 2.088.136.995-.141-.766-.195-2.468-.45-3.781-.567-1.874-.166-2.088-.136-.995.142m-67.233 1.846c-2.46.538-3.563.971-2.386.937.31-.009 1.907-.348 3.549-.754 3.483-.862 2.586-1.002-1.163-.183m78.377.104c1.486.489 4.348.909 3.383.496-.438-.188-1.602-.45-2.587-.583-1.179-.158-1.451-.129-.796.087m-86.501 1.847c-2.103.578-3.19 1.238-1.259.765 2.189-.537 4.384-1.286 3.78-1.29-.328-.002-1.463.235-2.521.525m94.271-.041c.88.293 2.223.639 2.985.77 1.32.226 1.31.212-.216-.295-.881-.293-2.224-.639-2.985-.77-1.32-.226-1.31-.212.216.295m-101.444 2.081c-1.063.326-1.852.673-1.755.771.098.098 1.236-.164 2.53-.582 1.293-.417 2.083-.764 1.755-.771-.329-.007-1.467.255-2.53.582m107.604-.506c0 .263 4.419 1.541 4.623 1.337.087-.087-.604-.378-1.536-.646l-2.39-.688c-.383-.11-.697-.111-.697-.003m5.174 1.573c0 .175 2.274 1.013 4.777 1.762.53.159.53.13 0-.257-.329-.24-1.28-.625-2.115-.856-.834-.231-1.775-.518-2.089-.639-.315-.121-.573-.125-.573-.01m-118.408.856c-1.537.704-.822.714.996.015.766-.295 1.124-.542.796-.549-.329-.007-1.135.234-1.792.534m-4.9 1.68c-.944.333-1.646.677-1.56.763.182.182 3.873-1.031 3.873-1.272 0-.249-.452-.15-2.313.509m130.625.161c1.068.434 2.016.715 2.106.625.208-.208-2.908-1.464-3.56-1.435-.269.012.385.377 1.454.81m-136.471 2.183c-1.313.553-3.067 1.287-3.897 1.632-.83.345-1.432.704-1.339.798.149.148 7.751-2.923 8.188-3.308.453-.4-.808-.025-2.952.878m140.417-.804c.384.421 3.957 1.807 4.153 1.611.077-.077-.629-.45-1.568-.83-2.641-1.068-2.926-1.154-2.585-.781m5.852 2.566c.766.419 1.572.762 1.791.762.219 0-.229-.343-.995-.762-.766-.42-1.572-.763-1.791-.763-.219 0 .229.343.995.763m-153.93 1.581c-.931.422-1.692.857-1.692.966 0 .262 2.879-.928 3.363-1.39.544-.52.235-.441-1.671.424m157.91.21c.985.527 1.97.959 2.189.959.219 0-.408-.432-1.393-.959-.985-.528-1.97-.959-2.189-.959-.219 0 .408.431 1.393.959m-163.682 2.612c-1.696.867-3.084 1.666-3.084 1.775 0 .178 6.328-2.867 6.733-3.239.564-.52-.983.101-3.649 1.464m166.468-1.452c0 .348 2.443 1.504 2.679 1.268.12-.119-.281-.406-.89-.638-.609-.232-1.261-.516-1.448-.632-.188-.115-.341-.115-.341.002m3.98 1.958c0 .106 1.478.993 3.284 1.971 1.806.978 4 2.178 4.875 2.666 1.307.728 1.424.748.654.114-1.052-.867-8.813-5.05-8.813-4.751m-176.02 2.483c-1.488.807-1.397 1.143.1.369.656-.34 1.194-.702 1.194-.806 0-.256-.043-.242-1.294.437m-4.803 2.716c-1.926 1.105-4.176 2.799-2.858 2.151.958-.471 5.373-3.232 5.373-3.361 0-.225-.074-.19-2.515 1.21m190.972.529c.219.209 1.115.782 1.99 1.274.876.491 1.234.596.796.232-.889-.739-3.41-2.102-2.786-1.506M100 42.633c-1.357.869-1.796 1.452-.597.793.913-.502 2.344-1.608 2.09-1.616-.11-.003-.782.367-1.493.823m199.9-.157c.219.221 2.1 1.531 4.18 2.911 4.44 2.945 10.469 7.422 14.888 11.056 1.731 1.424 3.019 2.382 2.863 2.129-.72-1.164-11.675-9.576-17.552-13.477-3.952-2.623-5.002-3.251-4.379-2.619M97.059 44.6c-.89.775-.894.796-.066.395.48-.232.983-.6 1.118-.818.391-.633-.038-.461-1.052.423m-3.282 2.162c-1.981 1.371-3.419 2.641-2.235 1.974 1.017-.573 4.378-3.03 4.378-3.201 0-.248-.065-.211-2.143 1.227m-6.215 4.465C73.891 61.561 53.614 82.382 48.009 91.841c-.84 1.418.325.17 2.044-2.189 8.841-12.132 20.968-24.72 33.33-34.596 7.531-6.016 7.58-6.057 7.363-6.072-.109-.008-1.542 1.001-3.184 2.243m234.845 7.936c.011.187 1.009 1.145 2.217 2.131 3.539 2.883 14.374 14.109 18.825 19.502 4.02 4.871 6.061 7.156 4.8 5.373-4.775-6.75-25.948-28.878-25.842-27.006m28.462 30.986c1.246 1.751 2.535 3.453 2.866 3.781.897.89-2.71-4.242-4.01-5.704-.616-.693-.101.172 1.144 1.923M46.1 94.627c-1.888 2.667-2.767 4.079-2.539 4.079.108 0 1.102-1.343 2.21-2.985 2.214-3.28 2.462-4.109.329-1.094m308.741 1.094c5.71 9.054 7.137 11.369 7.79 12.637.423.821.87 1.493.993 1.493.542 0-7.572-13.372-8.935-14.727-.356-.353-.294-.11.152.597M42.739 99.602c-1.37 2.324-1.46 2.523-.762 1.692.809-.964 1.506-2.19 1.245-2.19-.105 0-.322.224-.483.498m-3.427 5.572c-.32.493-.798 1.343-1.063 1.891-.676 1.396.551-.094 1.394-1.692.695-1.319.479-1.448-.331-.199m-3.245 5.719c-.784 1.478-1.361 2.752-1.281 2.831.079.08.801-1.049 1.603-2.509.803-1.459 1.38-2.733 1.282-2.831-.097-.097-.819 1.032-1.604 2.509m329.505 2.938c1.669 3.322 2.779 4.986 1.661 2.487-.966-2.156-3.069-6.069-3.263-6.069-.108 0 .613 1.612 1.602 3.582m-332.726 3.164c-.693 1.339-.765 1.756-.248 1.437.379-.234 1.311-2.611 1.023-2.611-.092 0-.441.528-.775 1.174m334.935.858c-.011.132.791 1.923 1.782 3.98.99 2.056 1.683 3.291 1.539 2.744-.274-1.042-3.286-7.142-3.321-6.724M30.869 121.2c-.859 2.056-.746 2.288.222.454.444-.842.715-1.622.603-1.735-.113-.112-.484.464-.825 1.281m-1.659 3.619c-.33.79-.5 1.536-.378 1.659.123.122.223.124.223.005s.271-.865.602-1.658c.331-.793.501-1.442.378-1.442-.124 0-.495.646-.825 1.436m342.968 3.042c.888 2.251 1.44 3.112.958 1.492-.486-1.632-1.339-3.582-1.568-3.582-.117 0 .157.94.61 2.09m-344.881 1.525c-.365.912-.589 1.733-.498 1.824.091.092.465-.58.83-1.492.364-.912.588-1.733.497-1.824-.091-.091-.464.58-.829 1.492m346.665 2.753c.383 1.445.94 2.391.937 1.592-.001-.328-.272-1.044-.601-1.592l-.6-.995.264.995m-348.464 1.816c-.467 1.248-.78 2.339-.695 2.424.085.085.543-.86 1.018-2.1.474-1.241.787-2.331.694-2.424-.093-.093-.551.852-1.017 2.1m350.256 2.815c-.018.249.229 1.055.549 1.791.32.737.58 1.071.579.742-.003-.735-1.083-3.161-1.128-2.533m-352.225 2.573c-.245.7-.432 1.47-.416 1.711.015.241.284-.262.598-1.119.314-.856.501-1.627.416-1.712-.085-.085-.354.419-.598 1.12m354.054 2.946c.131.656.474 1.731.763 2.388l.526 1.194-.236-1.194a13.835 13.835 0 0 0-.764-2.388l-.526-1.194.237 1.194m-355.905 2.772c-.361 1.244-.577 2.342-.479 2.44.098.098.469-.845.824-2.095.356-1.249.571-2.347.48-2.439-.092-.092-.463.851-.825 2.094m176.875 1.571c-4.254 4.475-7.24 7.796-7.011 7.796.283 0 10.76-11.167 10.598-11.295-.083-.065-1.697 1.51-3.587 3.499m6.422-2.252c0 .219.269.621.597.894.333.276.597.319.597.097 0-.219-.269-.621-.597-.893-.333-.277-.597-.32-.597-.098m1.99 1.99c0 .219.269.621.597.894.333.276.597.319.597.097 0-.219-.268-.621-.597-.893-.333-.277-.597-.32-.597-.098m172.111.805c.124.389.502 1.77.84 3.068.631 2.423 1.308 3.742.82 1.598-.566-2.487-1.463-5.373-1.669-5.373-.119 0-.114.318.009.707m-169.92 1.683c.398.439.809.712.915.607.267-.268-.725-1.405-1.226-1.405-.226 0-.086.359.311.798m-189.419 3.018c-.367 1.458-.593 2.725-.502 2.815.09.09.463-1.029.829-2.487.367-1.458.593-2.725.502-2.815-.09-.09-.463 1.029-.829 2.487m191.407-1.03c.396.438.789.796.872.796.083 0-.04-.358-.275-.796-.234-.438-.626-.796-.871-.796-.246 0-.122.358.274.796m1.393 1.083c0 .501 1.138 1.494 1.405 1.226.106-.105-.167-.517-.606-.914-.439-.397-.799-.538-.799-.312m168.789 3.295c-.009.328.244 1.492.562 2.587l.58 1.99-.24-1.791c-.257-1.919-.871-3.817-.902-2.786m-363.324 3.781c-.814 3.794-.864 5.159-.073 2.015.436-1.738.728-3.35.647-3.582-.081-.233-.339.472-.574 1.567m365.023 4.279c.126.711.435 2.512.686 4.001.252 1.49.55 2.617.662 2.504.248-.248-1.078-7.799-1.37-7.799-.113 0-.103.582.022 1.294M15.9 170.129c-.278 1.874-.417 3.497-.307 3.606.109.11.427-1.334.706-3.208.278-1.873.417-3.496.307-3.606-.109-.109-.427 1.335-.706 3.208m369.044 4c-.021 1.558 1.421 14.305 1.472 13.004.071-1.823-.743-10.701-1.138-12.407-.177-.766-.327-1.034-.334-.597m-369.727 1.393c0 .767.082 1.08.182.697.1-.383.1-1.01 0-1.393s-.182-.07-.182.696m-.637 4.468c-1.06 8.571-1.196 27.665-.251 35.333.186 1.51.211-.065.06-3.781-.361-8.853-.213-21.752.321-28.044.447-5.266.364-7.503-.13-3.508m372.054 19.214c0 4.159.059 5.807.131 3.661.071-2.146.071-5.549-.001-7.562-.072-2.014-.131-.258-.13 3.901m-236.443 21.133c-5.222 5.385-9.561 9.997-9.642 10.249-.081.252.617-.347 1.55-1.332.933-.985 5.284-5.515 9.667-10.065l7.971-8.274 1.524 1.489c.839.819 1.525 1.357 1.525 1.196 0-.307-2.635-3.053-2.93-3.053-.094 0-4.443 4.406-9.665 9.79m235.534-4.367c-.264 2.981-.56 6.249-.658 7.262-.166 1.718-.153 1.749.185.45.431-1.659 1.398-12.687 1.136-12.95-.101-.1-.399 2.257-.663 5.238m-145.243 1.348c-3.347 3.062-6.242 5.568-6.433 5.568-.191 0-1.638-1.62-3.217-3.599-1.578-1.98-3.017-3.547-3.197-3.483-.465.165-13.151 12.743-13.003 12.891.067.067 2.982-2.732 6.477-6.221 3.494-3.488 6.443-6.345 6.553-6.348.109-.003 1.452 1.599 2.985 3.56 3.479 4.451 2.735 4.593 9.809-1.875 3.291-3.01 6.127-5.525 6.3-5.59.275-.102 9.036 8.656 15.047 15.043 1.133 1.204 2.064 2.031 2.069 1.838.005-.193-2.645-3.059-5.889-6.368-3.243-3.31-6.942-7.137-8.219-8.505-2.942-3.151-2.186-3.402-9.282 3.089m-76.699-2.39c.398.439.809.712.915.606.267-.267-.726-1.405-1.226-1.405-.226 0-.086.36.311.799m1.99 1.99c.398.439.809.712.915.606.267-.267-.725-1.405-1.226-1.405-.226 0-.086.36.311.799m105.027 4.678c-2.821 3.012-5.397 5.848-5.725 6.301-.674.931 1.119-.925 7.109-7.352 2.268-2.434 4.038-4.426 3.934-4.426-.105 0-2.498 2.465-5.318 5.477m-103.636-3.597c0 .501 1.138 1.494 1.405 1.226.106-.105-.167-.517-.606-.914-.44-.398-.799-.538-.799-.312m-152.345 1.304c0 .767.082 1.08.182.697.1-.383.1-1.01 0-1.393s-.182-.07-.182.696m154.335.686c0 .501 1.138 1.494 1.405 1.226.106-.105-.167-.517-.606-.914-.439-.398-.799-.538-.799-.312m-153.937 2.897c0 .766.082 1.079.182.696.1-.383.1-1.01 0-1.393s-.182-.07-.182.697m156.128-.396c.398.439.809.712.915.607.267-.268-.725-1.405-1.226-1.405-.226 0-.086.359.311.798m-44.161.396c.465.839 6.943 8.358 7.201 8.358.203 0-5.702-7.113-6.939-8.358-.527-.531-.556-.531-.262 0m45.552.513c0 .441 23.228 23.385 23.554 23.267.458-.167 15.451-15.056 15.451-15.344 0-.148-3.493 3.22-7.762 7.485l-7.761 7.754-11.741-11.736c-6.457-6.454-11.741-11.596-11.741-11.426m-156.957 3.796c.125 1.385.381 2.997.569 3.582.437 1.361.04-2.823-.451-4.751-.249-.977-.281-.654-.118 1.169m368.299 1.495c0 .201-.279 1.952-.618 3.892-.339 1.941-.536 3.609-.438 3.707.098.098.489-1.541.867-3.644.379-2.102.576-3.934.44-4.071-.137-.137-.25-.085-.251.116m-170.966 1.128c-.425.311-.667.67-.538.799.128.128.559-.126.956-.565.846-.934.672-1.031-.418-.234m-74.406 2.62c-1.404 1.466-1.641 1.473-3.143.099l-1.196-1.094 1.175 1.464c1.465 1.825 1.309 1.829 3.164-.071.855-.876 1.463-1.592 1.35-1.592-.113 0-.72.537-1.35 1.194m-98.905-.245c0 .738 1.291 5.853 1.439 5.704.18-.18-.99-5.541-1.271-5.822-.093-.092-.168-.039-.168.118M17.77 238.01c.133.985.395 2.149.583 2.587.413.965-.007-1.897-.496-3.383-.216-.655-.245-.383-.087.796m363.95 3.013c-.274 1.223-.408 2.313-.298 2.423.11.109.41-.814.668-2.053.257-1.239.391-2.329.297-2.422-.093-.093-.393.83-.667 2.052m-339.678.555c.136.758.493 2.012.793 2.786l.546 1.407-.248-1.379c-.137-.758-.494-2.012-.794-2.786l-.546-1.407.249 1.379m315.238 3.065c-.355 1.25-.571 2.348-.479 2.44.092.092.463-.851.824-2.095.362-1.243.578-2.341.48-2.439-.098-.098-.469.845-.825 2.094m-337.912.125c.131.761.477 2.104.77 2.985.507 1.526.521 1.536.295.216-.131-.762-.477-2.105-.77-2.985-.507-1.526-.521-1.536-.295-.216m360.78 2.655c-.739 2.815-.958 3.922-.738 3.721.309-.281 1.486-4.908 1.296-5.098-.086-.086-.337.534-.558 1.377m-336.119.935c.274 1.579.936 3.037.904 1.99-.01-.328-.272-1.224-.582-1.99l-.563-1.393.241 1.393m311.575 1.666c-1.047 3.187-1.096 3.4-.591 2.616.528-.821 1.638-4.38 1.431-4.588-.079-.079-.457.809-.84 1.972m-334.24 2.115c.131.657.474 1.732.764 2.388l.526 1.194-.237-1.194a13.973 13.973 0 0 0-.763-2.388l-.526-1.194.236 1.194m24.261.995c.135.548.489 1.533.788 2.189.437.959.496.999.3.199-.134-.547-.489-1.532-.788-2.189-.437-.959-.496-.998-.3-.199m332.325 1.831c-.384 1.221-.628 2.291-.54 2.379.087.087.474-.84.859-2.06.384-1.221.628-2.291.54-2.379-.088-.087-.474.84-.859 2.06m-24.67 1.598c-.832 2.443-.568 2.707.337.337.383-1.003.608-1.912.5-2.02-.108-.108-.485.649-.837 1.683m-330.459.328c.121.314.408 1.254.639 2.089.231.835.616 1.786.856 2.115.387.53.416.53.257 0-.749-2.503-1.587-4.777-1.762-4.777-.115 0-.111.258.01.573m24.768 1.517c.522 1.676.948 2.687 1.133 2.687.102 0-.09-.806-.425-1.792-.612-1.794-1.233-2.58-.708-.895m303.907 2.74c-.471 1.134-.791 2.127-.711 2.207.08.081.531-.782 1.003-1.916.471-1.134.791-2.127.711-2.207-.081-.081-.532.782-1.003 1.916m24.47-.207c-.352 1.035-.571 1.949-.487 2.034.084.084.441-.693.793-1.727.353-1.034.572-1.949.488-2.034-.084-.084-.441.693-.794 1.727m-326.757 1.348c.281 1.14 1.705 3.983 1.694 3.383-.004-.219-.441-1.294-.973-2.388-.531-1.095-.855-1.543-.721-.995m-23.906 1.592c.146.547.432 1.263.635 1.592.256.415.287.293.103-.398-.147-.548-.433-1.264-.636-1.592-.256-.415-.287-.294-.102.398m348.876 1.84c-.474 1.241-.787 2.331-.694 2.424.093.093.551-.852 1.017-2.1.467-1.248.78-2.339.695-2.424-.085-.085-.543.86-1.018 2.1m-24.456-.429c-.935 1.961-.803 2.294.174.442.444-.842.737-1.601.651-1.687-.086-.086-.457.474-.825 1.245m-298.38 1.911c0 .417 4.757 9.812 4.968 9.812.184 0-4.423-9.539-4.78-9.896-.103-.103-.188-.065-.188.084m-24.257 1.354c.22.602.489 1.344.597 1.649.108.305.284.467.391.36.214-.214-.907-3.103-1.204-3.103-.101 0-.004.492.216 1.094m320.774.699c-.232.609-.516 1.261-.632 1.448-.116.187-.115.341.002.341.348 0 1.504-2.444 1.268-2.679-.119-.12-.407.281-.638.89m24.332 1.444c-.471 1.134-.791 2.127-.711 2.208.081.08.532-.782 1.003-1.916.472-1.134.791-2.128.711-2.208-.08-.08-.531.782-1.003 1.916m-343.784.743c.349 1.292 1.552 4.004 1.706 3.849.091-.09-.293-1.128-.852-2.305-.558-1.178-.943-1.873-.854-1.544m317.543 1.8c-.476.98-.782 1.782-.68 1.782.269 0 1.878-3.233 1.698-3.413-.084-.083-.542.65-1.018 1.631m24.263 1.998c-.667 1.464-.54 1.776.181.445.337-.621.538-1.204.447-1.295-.091-.091-.374.291-.628.85m-26.333 1.774c-.447.876-.723 1.592-.614 1.592.11 0 .565-.716 1.012-1.592.446-.876.722-1.592.613-1.592-.11 0-.565.716-1.011 1.592m-313.234-.259c0 .416 4.756 9.811 4.967 9.811.185 0-4.423-9.539-4.78-9.895-.103-.103-.187-.066-.187.084m338.323 1.028a19.235 19.235 0 0 0-.835 1.891c-.619 1.639.234.604.962-1.168.648-1.575.569-2.024-.127-.723m-311.657 1.221c.447.876.902 1.592 1.012 1.592.109 0-.167-.716-.614-1.592-.446-.876-.901-1.592-1.011-1.592-.109 0 .167.716.613 1.592m284.777 1.194c-.34.657-.528 1.194-.419 1.194.11 0 .477-.537.817-1.194.339-.657.527-1.194.418-1.194-.109 0-.477.537-.816 1.194m-282.808 2.218c2.001 3.378 8.402 12.783 9.595 14.1l1.262 1.393-1.029-1.393c-1.897-2.567-8.498-12.522-9.153-13.805-.356-.698-.862-1.401-1.125-1.563-.262-.162-.06.408.45 1.268m307.284.371c-.231.609-.515 1.261-.631 1.448-.116.188-.115.341.001.341.348 0 1.505-2.443 1.269-2.679-.12-.12-.407.281-.639.89m-27.173 1.889c-1.882 2.959-1.951 3.084-1.717 3.084.115 0 .808-.94 1.538-2.089 1.882-2.96 1.951-3.085 1.717-3.085-.115 0-.808.94-1.538 2.09m25.184 1.89c-.447.876-.723 1.592-.613 1.592.109 0 .564-.716 1.011-1.592.447-.875.723-1.592.613-1.592-.109 0-.564.717-1.011 1.592m-327.761 2.388c.34.657.707 1.194.816 1.194.11 0-.078-.537-.418-1.194-.34-.656-.707-1.194-.817-1.194-.109 0 .079.538.419 1.194m298.293 2.289a347.928 347.928 0 0 1-4.656 6.467c-1.377 1.861-1.861 2.667-1.074 1.791 2.087-2.322 8.491-11.343 8.053-11.343-.094 0-1.14 1.388-2.323 3.085m27.523-1.09c-.49.873-.805 1.587-.7 1.587.306 0 1.959-2.809 1.766-3.001-.095-.096-.575.541-1.066 1.414m-323.578 2.752c.713 1.298 1.64 2.776 2.059 3.284.782.948.753.892-2.008-3.951-.53-.931-1.05-1.692-1.156-1.692-.106 0 .392 1.062 1.105 2.359m321.742.427c-.34.657-.528 1.194-.418 1.194.109 0 .476-.537.816-1.194.34-.656.528-1.194.418-1.194-.109 0-.476.538-.816 1.194m-1.241 2.09c-1.37 2.324-1.46 2.523-.762 1.691.809-.963 1.505-2.189 1.244-2.189-.104 0-.321.224-.482.498m-317.404 2.616c.242.452.636.943.876 1.091.312.193.311.037-.004-.552-.242-.452-.636-.943-.876-1.091-.312-.193-.311-.037.004.552m28.337.712c1.116 1.683 6.142 7.671 6.607 7.87.438.187-5.149-6.725-6.557-8.114-.542-.533-.547-.508-.05.244m284.818 3.239c-2.408 3.61-5.754 8.217-9.252 12.734l-1.465 1.893 1.471-1.592c2.911-3.15 12.707-16.916 12.037-16.916-.112 0-1.368 1.747-2.791 3.881M43.593 300.1c.711 1.299 3.414 5.174 3.609 5.174.254 0-.005-.436-1.779-2.985-1.475-2.12-2.393-3.218-1.83-2.189m5.357 7.86c2.814 3.951 8.945 11.626 9.293 11.634.183.005-.817-1.38-2.222-3.077-1.406-1.696-3.861-4.83-5.456-6.965-3.143-4.205-4.263-5.308-1.615-1.592m269.259 3.83c-3.284 3.363-7.493 7.502-9.353 9.198-1.861 1.696-2.402 2.301-1.203 1.346 3.879-3.089 17.465-16.67 16.668-16.661-.078.001-2.828 2.754-6.112 6.117m-239.526-3.233c.674.712 1.891 2.01 2.704 2.886.813.875 1.415 1.383 1.339 1.128-.166-.553-4.663-5.307-5.021-5.307-.137 0 .303.582.978 1.293m5.894 6.269c.855.875 1.719 1.592 1.92 1.592.201 0-.373-.717-1.275-1.592-.903-.876-1.767-1.592-1.92-1.592-.154 0 .42.716 1.275 1.592m4.41 4.12c3.32 3.002 9.622 8.244 11.511 9.575 1.95 1.375 1.022.556-5.374-4.743-2.736-2.268-5.592-4.762-6.346-5.543-.755-.78-1.546-1.419-1.76-1.419-.213 0 .673.959 1.969 2.13m251.777 1.993c-7.905 9.03-18.272 18.653-28.216 26.193-3.82 2.896-5.095 4.17-1.85 1.848 10.45-7.478 23.817-19.925 32.324-30.097 3.037-3.632 1.482-2.215-2.258 2.056m-280.723.874c4.445 5.228 16.781 17.065 22.316 21.414 4.067 3.195 2.689 1.733-1.859-1.973-2.354-1.918-8.219-7.429-13.035-12.249-4.816-4.819-8.156-8.056-7.422-7.192m239.063 6.976c-1.97 1.524-4.791 3.584-6.268 4.578-1.478.994-2.687 1.897-2.687 2.005 0 .399 9.06-6.006 11.543-8.161 2.374-2.06 1.161-1.32-2.588 1.578m-196.417 1.299c0 .169 3.075 2.461 4.278 3.19 1.252.758.307-.205-1.393-1.421-2.331-1.666-2.885-2.006-2.885-1.769m5.174 3.637c0 .171 3.986 2.927 5.174 3.578.42.229.479.198.199-.108-.517-.563-5.373-3.7-5.373-3.47m180.398 2.639c-.712.456-1.294.905-1.294.999 0 .282 2.319-1.009 2.585-1.44.346-.559.184-.503-1.291.441m-174.428 1.252c0 .1 1.03.816 2.288 1.592 2.877 1.773 10.846 5.998 10.846 5.751 0-.102-2.283-1.439-5.074-2.972-2.791-1.532-5.747-3.184-6.568-3.67-.821-.486-1.492-.801-1.492-.701m171.244.738c-.712.456-1.294.905-1.294.999 0 .282 2.319-1.009 2.585-1.44.346-.559.184-.503-1.291.441m-2.985 1.774c-1.488.807-1.398 1.144.099.37.657-.34 1.194-.703 1.194-.807 0-.256-.043-.241-1.293.437m-3.185 1.79c-.82.433-1.492.876-1.492.985 0 .109.716-.168 1.592-.614.876-.447 1.592-.899 1.592-1.004 0-.26-.003-.259-1.692.633m-3.617 1.811c-.621.336-1.032.71-.912.829.12.12.807-.16 1.528-.621 1.51-.967 1.063-1.118-.616-.208m-190.114 1.524c0 .179 5.671 4.556 6.667 5.146 1.202.712.333-.196-1.393-1.455-1.04-.759-2.652-1.941-3.582-2.627-.931-.686-1.692-1.165-1.692-1.064m43.781.817c.985.527 1.97.959 2.189.959.219 0-.408-.432-1.393-.959-.985-.528-1.97-.959-2.189-.959-.219 0 .408.431 1.393.959m142.189-.21c-.93.422-1.691.857-1.691.966 0 .262 2.879-.928 3.363-1.39.544-.52.234-.441-1.672.424m-139.403 1.412c0 .229 3.454 1.792 3.914 1.771.378-.018-.895-.728-2.524-1.409-.765-.319-1.39-.482-1.39-.362m135.423.386c-.711.309-1.293.663-1.293.786 0 .221 2.772-.835 3.13-1.193.353-.353-.547-.154-1.837.407m-3.88 1.802c-.888.436-1.152.673-.597.537 1.162-.287 3.169-1.306 2.587-1.314-.219-.003-1.115.347-1.99.777m-126.369.128c.548.309 1.443.68 1.99.825l.995.263-.995-.562c-.547-.309-1.442-.68-1.99-.825l-.995-.263.995.562m166.497 3.969c-6.636 4.461-6.507 4.369-5.303 3.801 2.073-.978 11.285-7.346 10.249-7.084-.055.014-2.28 1.491-4.946 3.283m-210.676-2.765c0 .109.538.581 1.194 1.049.657.467 1.194.76 1.194.651 0-.109-.537-.582-1.194-1.049-.656-.468-1.194-.761-1.194-.651m47.364-.017c0 .289 4.439 1.933 4.651 1.722.092-.093-.603-.439-1.545-.768a72.31 72.31 0 0 1-2.41-.884c-.383-.156-.696-.188-.696-.07m118.283.542c-.944.334-1.646.677-1.56.763.182.182 3.874-1.03 3.874-1.272 0-.249-.453-.149-2.314.509m-162.687 1.676c.148.24.639.633 1.091.875.588.316.745.317.552.005-.148-.24-.639-.634-1.091-.876-.589-.315-.745-.316-.552-.004m156.841.474c-1.094.422-1.472.667-.84.544 1.252-.243 3.875-1.308 3.228-1.311-.219-.001-1.293.344-2.388.767m-105.074.179c.656.301 1.462.54 1.791.533.328-.008.059-.261-.597-.562-.657-.3-1.463-.54-1.791-.532-.329.008-.06.261.597.561m-49.376.944c.149.242.843.717 1.54 1.054 1.178.569 1.211.567.473-.032-1.209-.98-2.343-1.556-2.013-1.022m55.31.876c1.293.417 2.426.685 2.517.594.179-.18-3.981-1.458-4.532-1.393-.186.021.721.381 2.015.799m92.971-.033c-1.519.525-1.762.686-.796.525 1.401-.232 4.126-1.259 3.383-1.274-.219-.005-1.383.332-2.587.749m-145.097 1.147c.149.242.843.717 1.54 1.054 1.178.569 1.211.567.473-.032-1.209-.98-2.343-1.556-2.013-1.022m58.132.583a22.73 22.73 0 0 0 3.184.767l1.592.236-1.762-.571c-.97-.314-2.403-.659-3.184-.767l-1.422-.195 1.592.53m79.471.121c-1.386.328-2.438.677-2.339.777.208.207 5.853-1.024 5.853-1.277 0-.258-.781-.147-3.514.5m56.151 1.548c-1.878 1.126-2.312 1.714-.597.811 1.203-.635 2.802-1.802 2.487-1.816-.109-.005-.96.448-1.89 1.005m-190.547-.335c.451.478 7.592 4.601 8.656 4.999 1.529.571.533-.13-2.587-1.819-1.806-.978-4-2.189-4.875-2.69-.876-.501-1.413-.722-1.194-.49m126.766.508c-1.861.385-3.086.722-2.722.748.846.061 6.751-1.063 7.026-1.337.305-.305-.544-.189-4.304.589m-63.94.011c.625.187 2.147.436 3.383.553l2.248.212-2.587-.562c-2.888-.628-4.912-.763-3.044-.203m123.94 2.006c-.821.433-1.493.877-1.493.986 0 .108.717-.168 1.592-.615.876-.447 1.592-.898 1.592-1.003 0-.26-.002-.259-1.691.632M179.502 361c.986.167 3.493.401 5.573.519l3.781.216-4.179-.532c-4.709-.598-8.351-.741-5.175-.203m36.02.214-3.98.509 3.98-.206c2.189-.113 4.697-.346 5.573-.517l1.592-.311-1.592.008c-.876.005-3.384.238-5.573.517m-22.573.871c1.156.081 2.947.08 3.98-.002 1.032-.082.086-.148-2.103-.147-2.189.001-3.034.068-1.877.149m10.746 0c1.157.081 2.948.08 3.98-.002s.086-.148-2.103-.147c-2.189.001-3.034.068-1.877.149m84.066.9c-.766.42-1.25.77-1.075.779.422.023 2.667-1.145 2.667-1.386 0-.261-.023-.252-1.592.607m-173.532.991c0 .273 2.437 1.481 2.619 1.299.086-.087-.468-.455-1.231-.819-.764-.364-1.388-.58-1.388-.48m168.358 1.596c-1.861.963-3.245 1.76-3.076 1.771.423.028 6.658-3.126 6.658-3.367 0-.27.169-.345-3.582 1.596m-164.193.574c.116.188.755.532 1.42.764.665.232 1.113.267.996.078-.116-.188-.755-.532-1.42-.764-.665-.231-1.113-.267-.996-.078m4.193 2.013c.766.42 1.572.763 1.791.763.219 0-.229-.343-.995-.763-.766-.419-1.572-.762-1.791-.762-.219 0 .229.343.995.762m153.632.398c-.766.42-1.281.77-1.143.78.412.027 3.133-1.173 3.133-1.382 0-.347-.572-.174-1.99.602m-148.506 1.8c1.178.559 2.215.942 2.305.852.09-.09-.604-.475-1.544-.855-2.723-1.101-3.084-1.099-.761.003m144.327.011c-1.095.532-1.542.856-.995.721 1.14-.281 3.983-1.704 3.383-1.694-.219.004-1.294.442-2.388.973m-140.1 1.732c.876.411 2.04.855 2.587.985.548.131.279-.098-.597-.509-.875-.411-2.039-.854-2.587-.985-.547-.131-.278.098.597.509m135.215.122c-1.155.455-2.029.897-1.943.983.183.184 4.639-1.441 4.639-1.691 0-.287-.512-.153-2.696.708m-130.395 1.703c.681.308 1.756.667 2.388.8l1.151.24-1.195-.552c-.656-.304-1.731-.663-2.388-.799l-1.194-.248 1.238.559m125.603.078c-.944.334-1.646.678-1.56.764.182.181 3.874-1.031 3.874-1.272 0-.249-.453-.15-2.314.508m-121.865 1.063c0 .302 5.245 1.911 5.476 1.68.1-.1-.868-.485-2.15-.856s-2.555-.759-2.829-.862c-.274-.103-.497-.086-.497.038m115.621 1.053c-1.094.404-1.838.749-1.653.766.504.046 4.638-1.194 4.638-1.391 0-.318-.988-.111-2.985.625m-108.059 1.378c0 .197 2.225.828 4.179 1.184.657.12.119-.136-1.194-.569-2.486-.82-2.985-.923-2.985-.615m101.757.416c-2.103.578-3.189 1.238-1.259.765 2.189-.537 4.385-1.286 3.78-1.29-.328-.002-1.463.235-2.521.525m-93.996 1.763c.438.177 1.602.43 2.587.562l1.791.24-1.99-.58c-2.142-.623-3.751-.773-2.388-.222m86.169.224c-1.205.35-1.465.522-.796.528.547.005 1.711-.228 2.587-.516 2.063-.68.55-.69-1.791-.012m-79.602 1.113c0 .292 7.551 1.618 7.799 1.37.113-.112-1.014-.41-2.504-.662-1.489-.251-3.29-.56-4.001-.686-.712-.125-1.294-.135-1.294-.022m69.652.796c-1.204.231-1.921.481-1.592.556.328.074 1.851-.116 3.383-.422s2.249-.556 1.592-.556c-.657.001-2.179.19-3.383.422m-56.852 1.431c1.263.422 12.211 1.434 12.49 1.155.107-.107-2.181-.409-5.085-.671-2.904-.261-5.996-.557-6.872-.657-1.319-.149-1.41-.12-.533.173m43.213.363c-3.232.328-5.789.684-5.682.791.262.262 11.15-.715 12.491-1.12l1.059-.32-.995.027c-.548.014-3.64.295-6.873.622m-22.879 1.172c2.573.069 6.781.069 9.354 0 2.572-.069.467-.126-4.677-.126-5.144 0-7.249.057-4.677.126" fill="#9a9a9b"/></g></svg>