<svg version="1.0" xmlns="http://www.w3.org/2000/svg" width="374.288" height="455.655" viewBox="0 0 280.716 341.741"><path d="M202.278 2.049c-6 2.3-9.8 6.3-11.3 12-.9 3.3-.7 5.7 1.5 14.5 2.8 11.8 3 14.2 1.4 17.8-1.5 3.2-5.8 5.2-15.4 7.2-6.5 1.3-10.1 3-23.4 10.9-16.6 9.9-21 13.6-23.6 19.9-3 7.1-.3 14.4 10.8 29.3 11 14.7 13.7 19.9 13.7 26 0 3.9-.6 5.9-2.9 9-4.7 6.5-6 9.8-9.2 22.6-2.7 10.8-4.1 14.3-13 30.8-5.4 10.3-9.9 19.1-9.9 19.7 0 .6-1.4 2.2-3.1 3.6-2.9 2.5-3.7 2.6-13.8 2.6-11.8-.1-15 .7-34.6 8.7-19.8 8-27.3 9-37.7 4.8-3.4-1.4-7.1-2.5-8.3-2.5-4 0-7.1 4.8-14.9 23.2-10.4 24.5-11.2 31.4-3.2 29.4 3.6-.9 13.6-8.8 22.6-17.8 7.8-7.8 8.2-8 11.9-7.5 3.5.4 4.6 0 9.8-3.9 7.2-5.4 14-7.1 33.4-8.4 35.9-2.5 41.7-3 45.4-4.1 3.1-.9 7.3-4.3 19.3-16.3 8.4-8.3 17.8-18.6 20.9-22.9 5.2-7.1 7.3-9.1 7.3-6.8 0 .6 3.9 4.3 8.7 8.3 13.5 11.2 22.2 19.9 25 24.5 2.2 3.8 2.5 5.6 2.8 16.5.2 10.7.8 14 3.9 24.8 2 6.9 5.7 16.8 8.1 22 4.4 9.4 4.4 9.7 4.3 19.5-.1 11 1.2 15.4 5.5 19.4 3.5 3.2 11.9 3.7 26.9 1.7 12.9-1.7 17.3-3.4 19.1-7.3 1.5-3.3-.3-4.6-9.8-7.4-14.2-4.3-20.9-9.5-23.9-18.9-.9-2.5-2.4-15.4-3.6-28.7-2.3-27.6-3.9-37.5-7.5-48.6-4.5-13.9-15.2-33.1-28-50.2-9.2-12.4-9.3-12.7-5-27.6 4.5-16 5.2-17.4 8-18.9 5.7-3 29.7 2.4 36.3 8.1 2.5 2.3 4.2 2.9 7.7 2.9 9.8 0 18.4-13.7 11.9-19.1-.9-.7-7.2-2.3-14.2-3.6-16.2-2.9-26-7.4-28.7-13-1.7-3.5-1.7-4.3-.2-14.8 1-6.1 1.7-14.1 1.7-18 0-6.2-.4-7.5-4-13.6-2.2-3.7-4-7.4-4-8.2 0-1.8 2.1-2.7 6.6-2.7 5.8 0 7.1-1.3 8.8-8.9 2.9-12.8 1.6-27.7-2.9-33.7-3.4-4.4-11.7-8.4-17.4-8.3-2.6 0-6.9.9-9.8 2zm-35.2 91.6c1.6 7.4 1.5 16.2 0 23.7l-1.3 5.9-1.9-3c-2-3.1-9.2-21.4-10.4-26.6-.6-2.4-.4-2.7 1.6-2.8 1.3 0 4-.7 5.9-1.4 1.9-.7 3.8-1.4 4.2-1.4.4-.1 1.2 2.5 1.9 5.6z"/></svg>