<svg id="svg" version="1.1" xmlns="http://www.w3.org/2000/svg" xmlns:xlink="http://www.w3.org/1999/xlink" width="400" height="400" viewBox="0, 0, 400,400"><g id="svgg"><path id="path0" d="M182.788 0.146 C 182.672 0.261,180.921 0.389,178.898 0.430 C 176.874 0.471,175.314 0.661,175.432 0.852 C 175.551 1.044,174.512 1.223,173.124 1.251 C 171.736 1.279,170.240 1.355,169.800 1.419 C 169.360 1.484,168.505 1.590,167.900 1.656 C 167.295 1.721,166.800 1.915,166.800 2.087 C 166.800 2.259,165.900 2.400,164.800 2.400 C 163.700 2.400,162.800 2.580,162.800 2.800 C 162.800 3.023,161.711 3.200,160.333 3.200 C 158.977 3.200,157.997 3.331,158.157 3.490 C 158.422 3.755,155.272 4.497,151.497 5.060 C 150.671 5.184,149.895 5.445,149.774 5.642 C 149.652 5.839,149.053 6.000,148.443 6.000 C 147.833 6.000,147.210 6.124,147.059 6.275 C 146.907 6.426,146.472 6.593,146.092 6.647 C 143.913 6.953,142.584 7.316,142.467 7.636 C 142.393 7.836,141.718 8.000,140.967 8.000 C 140.215 8.000,139.600 8.180,139.600 8.400 C 139.600 8.620,139.073 8.800,138.429 8.800 C 137.784 8.800,136.987 9.070,136.657 9.400 C 136.327 9.730,135.504 10.000,134.829 10.000 C 134.153 10.000,133.600 10.180,133.600 10.400 C 133.600 10.620,133.150 10.800,132.600 10.800 C 132.050 10.800,131.600 10.980,131.600 11.200 C 131.600 11.420,131.140 11.600,130.577 11.600 C 130.014 11.600,128.748 12.050,127.763 12.600 C 126.778 13.150,125.618 13.600,125.186 13.600 C 124.754 13.600,124.400 13.764,124.400 13.965 C 124.400 14.166,123.680 14.451,122.800 14.600 C 121.920 14.749,121.200 15.034,121.200 15.235 C 121.200 15.436,120.840 15.600,120.400 15.600 C 119.960 15.600,119.600 15.780,119.600 16.000 C 119.600 16.220,119.329 16.400,118.999 16.400 C 118.668 16.400,117.739 16.753,116.934 17.184 C 116.130 17.615,115.321 17.875,115.136 17.760 C 114.951 17.646,114.800 17.743,114.800 17.976 C 114.800 18.209,114.528 18.400,114.195 18.400 C 113.530 18.400,112.137 19.118,111.287 19.900 C 110.988 20.175,110.396 20.400,109.971 20.400 C 109.547 20.400,109.200 20.580,109.200 20.800 C 109.200 21.020,108.920 21.200,108.579 21.200 C 108.237 21.200,107.295 21.650,106.486 22.200 C 105.677 22.750,104.779 23.200,104.490 23.200 C 104.202 23.200,103.573 23.567,103.091 24.015 C 102.610 24.464,101.807 24.934,101.308 25.059 C 100.809 25.184,100.400 25.447,100.400 25.643 C 100.400 25.840,100.040 26.000,99.600 26.000 C 99.160 26.000,98.799 26.135,98.799 26.300 C 98.798 26.465,97.766 27.140,96.506 27.800 C 95.246 28.460,93.763 29.405,93.211 29.900 C 92.660 30.395,91.981 30.800,91.704 30.800 C 91.427 30.800,91.200 30.980,91.200 31.200 C 91.200 31.420,91.007 31.600,90.771 31.600 C 90.536 31.600,90.071 31.872,89.739 32.204 C 89.407 32.536,88.984 32.714,88.800 32.600 C 88.615 32.486,88.130 32.799,87.722 33.296 C 87.314 33.793,86.715 34.259,86.390 34.330 C 86.066 34.402,85.740 34.627,85.667 34.830 C 85.593 35.034,85.361 35.200,85.150 35.200 C 84.788 35.200,84.323 35.527,83.015 36.700 C 82.708 36.975,82.284 37.200,82.071 37.200 C 81.859 37.200,81.582 37.470,81.455 37.800 C 81.329 38.130,80.949 38.400,80.613 38.400 C 80.276 38.400,80.000 38.580,80.000 38.800 C 80.000 39.020,79.719 39.200,79.376 39.200 C 79.033 39.200,78.864 39.380,79.000 39.600 C 79.136 39.820,79.065 40.000,78.842 40.000 C 78.619 40.000,77.941 40.495,77.336 41.100 C 76.731 41.705,76.183 42.155,76.118 42.100 C 75.777 41.811,75.188 42.057,75.400 42.400 C 75.536 42.620,75.392 42.800,75.080 42.800 C 74.767 42.800,74.174 43.250,73.761 43.800 C 73.348 44.350,72.808 44.800,72.561 44.800 C 72.314 44.800,71.502 45.428,70.756 46.196 C 70.010 46.963,69.205 47.593,68.968 47.596 C 68.730 47.598,68.294 48.050,68.000 48.600 C 67.706 49.150,67.225 49.600,66.932 49.600 C 66.640 49.600,66.399 49.735,66.399 49.900 C 66.398 50.065,65.857 50.560,65.197 51.000 C 64.536 51.440,63.894 52.115,63.771 52.500 C 63.647 52.885,63.386 53.200,63.191 53.200 C 62.715 53.200,60.800 55.137,60.800 55.618 C 60.800 55.828,60.603 56.000,60.363 56.000 C 59.864 56.000,58.183 57.248,58.073 57.700 C 58.033 57.865,57.865 58.033,57.700 58.073 C 57.248 58.183,56.000 59.864,56.000 60.363 C 56.000 60.603,55.828 60.800,55.618 60.800 C 55.137 60.800,53.200 62.715,53.200 63.191 C 53.200 63.386,52.885 63.647,52.500 63.771 C 52.115 63.894,51.440 64.536,51.000 65.197 C 50.560 65.857,50.065 66.398,49.900 66.399 C 49.735 66.399,49.600 66.640,49.600 66.932 C 49.600 67.225,49.150 67.706,48.600 68.000 C 48.050 68.294,47.600 68.684,47.600 68.867 C 47.600 69.049,46.970 69.866,46.200 70.682 C 45.430 71.499,44.800 72.356,44.800 72.588 C 44.800 72.820,44.350 73.348,43.800 73.761 C 43.250 74.174,42.800 74.767,42.800 75.080 C 42.800 75.392,42.620 75.536,42.400 75.400 C 42.049 75.183,41.935 75.436,42.026 76.231 C 42.041 76.358,41.591 76.858,41.026 77.343 C 40.462 77.829,40.000 78.455,40.000 78.736 C 40.000 79.017,39.820 79.136,39.600 79.000 C 39.380 78.864,39.200 79.033,39.200 79.376 C 39.200 79.719,39.020 80.000,38.800 80.000 C 38.580 80.000,38.400 80.276,38.400 80.613 C 38.400 80.949,38.130 81.329,37.800 81.455 C 37.470 81.582,37.200 81.854,37.200 82.060 C 37.200 82.266,36.750 82.920,36.200 83.513 C 35.650 84.107,35.200 84.819,35.200 85.096 C 35.200 85.373,35.020 85.600,34.800 85.600 C 34.580 85.600,34.400 85.990,34.400 86.467 C 34.400 86.943,34.281 87.214,34.136 87.069 C 33.857 86.790,32.547 88.415,32.690 88.862 C 32.737 89.006,32.510 89.343,32.187 89.611 C 31.864 89.879,31.600 90.346,31.600 90.649 C 31.600 90.952,31.420 91.200,31.200 91.200 C 30.980 91.200,30.800 91.393,30.800 91.629 C 30.800 91.864,30.575 92.308,30.300 92.615 C 29.261 93.774,28.792 94.517,27.029 97.800 C 26.793 98.240,26.510 98.690,26.400 98.800 C 26.290 98.910,25.683 100.035,25.051 101.300 C 24.419 102.565,23.744 103.600,23.551 103.600 C 23.358 103.600,23.200 103.960,23.200 104.400 C 23.200 104.840,23.055 105.200,22.877 105.200 C 22.587 105.200,22.193 106.000,20.660 109.700 C 20.410 110.305,20.108 110.800,19.990 110.800 C 19.873 110.800,19.427 111.700,19.000 112.800 C 18.573 113.900,18.084 114.800,17.912 114.800 C 17.740 114.800,17.600 115.250,17.600 115.800 C 17.600 116.350,17.428 116.800,17.218 116.800 C 17.008 116.800,16.718 117.430,16.574 118.200 C 16.429 118.970,16.195 119.600,16.053 119.600 C 15.698 119.600,14.873 121.535,14.559 123.103 C 14.417 123.816,14.142 124.400,13.950 124.400 C 13.757 124.400,13.600 124.760,13.600 125.200 C 13.600 125.640,13.420 126.000,13.200 126.000 C 12.980 126.000,12.800 126.450,12.800 127.000 C 12.800 127.550,12.628 128.000,12.418 128.000 C 12.208 128.000,11.918 128.632,11.773 129.404 C 11.628 130.177,11.350 130.907,11.155 131.028 C 10.960 131.149,10.800 131.777,10.800 132.424 C 10.800 133.071,10.640 133.600,10.445 133.600 C 10.250 133.600,9.988 134.095,9.863 134.700 C 9.327 137.294,8.596 139.600,8.309 139.600 C 8.139 139.600,8.000 140.062,8.000 140.626 C 8.000 141.191,7.830 141.970,7.623 142.357 C 7.416 142.745,7.186 143.498,7.113 144.031 C 7.040 144.564,6.839 145.225,6.666 145.500 C 6.494 145.775,6.464 146.180,6.600 146.400 C 6.736 146.620,6.657 146.800,6.424 146.800 C 6.191 146.800,6.000 147.239,6.000 147.776 C 6.000 148.313,5.820 148.864,5.600 149.000 C 5.380 149.136,5.200 150.032,5.200 150.990 C 5.200 151.949,5.026 152.793,4.813 152.867 C 4.600 152.940,4.309 153.990,4.166 155.200 C 4.023 156.410,3.747 157.703,3.553 158.074 C 3.359 158.444,3.200 159.464,3.200 160.340 C 3.200 161.216,3.034 161.993,2.832 162.067 C 2.629 162.140,2.417 163.190,2.359 164.400 C 2.302 165.610,2.089 166.712,1.887 166.849 C 1.684 166.986,1.423 168.696,1.307 170.649 C 1.191 172.602,0.894 174.453,0.648 174.761 C 0.010 175.561,0.013 224.445,0.651 225.239 C 0.900 225.547,1.184 227.275,1.284 229.078 C 1.394 231.065,1.688 232.631,2.033 233.055 C 2.527 233.664,2.523 233.711,2.000 233.418 C 1.512 233.145,1.493 233.183,1.900 233.621 C 2.175 233.918,2.400 234.923,2.400 235.856 C 2.400 236.789,2.580 237.664,2.800 237.800 C 3.020 237.936,3.200 238.768,3.200 239.650 C 3.200 240.531,3.359 241.556,3.553 241.926 C 3.747 242.297,4.023 243.587,4.166 244.794 C 4.310 246.000,4.601 247.161,4.814 247.374 C 5.026 247.586,5.200 248.433,5.200 249.256 C 5.200 250.079,5.380 250.864,5.600 251.000 C 5.820 251.136,6.000 251.636,6.000 252.110 C 6.000 252.881,6.694 255.157,7.612 257.400 C 7.792 257.840,8.034 258.650,8.148 259.200 C 8.726 261.966,9.369 264.000,9.667 264.000 C 9.850 264.000,10.000 264.439,10.000 264.976 C 10.000 265.513,10.180 266.064,10.400 266.200 C 10.620 266.336,10.800 266.889,10.800 267.429 C 10.800 267.969,10.967 268.723,11.171 269.105 C 11.711 270.116,12.137 271.355,12.064 271.700 C 12.029 271.865,12.180 272.000,12.400 272.000 C 12.620 272.000,12.800 272.450,12.800 273.000 C 12.800 273.550,12.980 274.000,13.200 274.000 C 13.420 274.000,13.600 274.450,13.600 275.000 C 13.600 275.550,13.780 276.000,14.000 276.000 C 14.220 276.000,14.400 276.377,14.400 276.838 C 14.400 277.299,14.654 278.154,14.964 278.738 C 15.898 280.499,17.600 284.398,17.600 284.778 C 17.600 284.973,17.788 285.196,18.018 285.273 C 18.248 285.349,18.465 285.802,18.501 286.278 C 18.537 286.755,18.709 287.056,18.883 286.949 C 19.057 286.841,19.223 287.033,19.250 287.376 C 19.348 288.598,19.406 288.766,19.900 289.260 C 20.175 289.535,20.400 289.994,20.400 290.280 C 20.400 290.566,20.580 290.800,20.800 290.800 C 21.020 290.800,21.200 291.070,21.200 291.400 C 21.200 291.730,21.360 292.000,21.555 292.000 C 21.751 292.000,22.029 292.630,22.174 293.400 C 22.318 294.170,22.608 294.800,22.818 294.800 C 23.028 294.800,23.200 295.160,23.200 295.600 C 23.200 296.040,23.380 296.400,23.600 296.400 C 23.820 296.400,24.000 296.670,24.000 297.000 C 24.000 297.330,24.180 297.600,24.400 297.600 C 24.620 297.600,24.800 297.938,24.800 298.351 C 24.800 298.764,25.070 299.326,25.400 299.600 C 25.730 299.874,26.000 300.346,26.000 300.649 C 26.000 300.952,26.160 301.200,26.357 301.200 C 26.553 301.200,26.826 301.650,26.964 302.200 C 27.102 302.750,27.402 303.200,27.631 303.200 C 27.860 303.200,27.950 303.357,27.832 303.548 C 27.714 303.739,28.063 304.414,28.608 305.048 C 29.153 305.682,29.599 306.382,29.600 306.604 C 29.600 306.826,30.005 307.456,30.500 308.004 C 30.995 308.552,31.662 309.540,31.982 310.200 C 32.302 310.860,32.918 311.805,33.352 312.300 C 33.785 312.795,33.991 313.200,33.809 313.200 C 33.627 313.200,33.865 313.536,34.339 313.947 C 34.812 314.358,35.200 314.890,35.200 315.129 C 35.200 315.368,35.607 315.977,36.104 316.482 C 36.601 316.987,37.722 318.390,38.595 319.600 C 39.469 320.810,40.367 322.019,40.592 322.286 C 40.816 322.553,41.225 323.041,41.500 323.369 C 41.775 323.698,42.000 324.088,42.000 324.237 C 42.000 324.386,42.405 324.891,42.900 325.360 C 43.395 325.828,44.277 326.839,44.859 327.606 C 45.442 328.373,46.297 329.397,46.759 329.883 C 47.222 330.369,47.600 330.885,47.600 331.030 C 47.600 331.175,48.275 331.983,49.100 332.825 C 49.925 333.667,50.960 334.807,51.400 335.359 C 51.840 335.911,52.413 336.371,52.673 336.382 C 52.933 336.392,53.260 336.760,53.400 337.200 C 53.540 337.640,53.822 338.000,54.027 338.000 C 54.232 338.000,54.400 338.281,54.400 338.624 C 54.400 338.967,54.580 339.136,54.800 339.000 C 55.020 338.864,55.200 339.033,55.200 339.376 C 55.200 339.719,55.470 340.000,55.800 340.000 C 56.130 340.000,56.400 340.162,56.400 340.360 C 56.400 340.829,59.171 343.600,59.640 343.600 C 59.838 343.600,60.000 343.870,60.000 344.200 C 60.000 344.530,60.281 344.800,60.624 344.800 C 60.967 344.800,61.136 344.980,61.000 345.200 C 60.864 345.420,61.033 345.600,61.376 345.600 C 61.719 345.600,62.000 345.768,62.000 345.973 C 62.000 346.178,62.360 346.460,62.800 346.600 C 63.240 346.740,63.608 347.067,63.618 347.327 C 63.629 347.587,64.089 348.160,64.641 348.600 C 65.193 349.040,66.333 350.075,67.175 350.900 C 68.017 351.725,68.892 352.400,69.120 352.400 C 69.347 352.400,69.593 352.535,69.667 352.700 C 69.805 353.011,71.550 354.520,74.177 356.600 C 75.010 357.260,76.122 358.213,76.646 358.718 C 77.171 359.223,77.603 359.493,77.606 359.318 C 77.609 359.143,77.744 359.181,77.906 359.403 C 78.068 359.624,79.067 360.434,80.128 361.203 C 81.188 361.971,82.484 363.005,83.009 363.500 C 83.534 363.995,84.144 364.400,84.364 364.400 C 84.584 364.400,85.203 364.839,85.739 365.376 C 86.276 365.912,86.787 366.280,86.874 366.192 C 86.962 366.105,87.656 366.566,88.417 367.216 C 89.177 367.866,90.115 368.399,90.500 368.399 C 90.885 368.400,91.200 368.547,91.200 368.726 C 91.200 368.906,91.879 369.435,92.710 369.901 C 93.540 370.368,94.644 371.117,95.162 371.567 C 95.680 372.016,96.260 372.287,96.452 372.168 C 96.643 372.050,96.800 372.131,96.800 372.349 C 96.800 372.568,97.205 372.872,97.700 373.027 C 98.195 373.181,98.690 373.423,98.800 373.563 C 99.236 374.119,101.207 375.200,101.786 375.200 C 102.124 375.200,102.400 375.346,102.400 375.525 C 102.400 375.704,103.030 376.098,103.800 376.400 C 104.570 376.702,105.200 377.088,105.200 377.257 C 105.200 377.426,105.830 377.682,106.600 377.826 C 107.370 377.971,108.000 378.249,108.000 378.445 C 108.000 378.640,108.270 378.800,108.600 378.800 C 108.930 378.800,109.200 378.980,109.200 379.200 C 109.200 379.420,109.448 379.600,109.751 379.600 C 110.054 379.600,110.526 379.870,110.800 380.200 C 111.074 380.530,111.636 380.800,112.049 380.800 C 112.462 380.800,112.800 380.980,112.800 381.200 C 112.800 381.420,113.214 381.600,113.720 381.600 C 114.226 381.600,114.865 381.825,115.140 382.100 C 115.415 382.375,115.766 382.607,115.920 382.615 C 116.074 382.624,117.590 383.299,119.289 384.115 C 120.987 384.932,122.642 385.600,122.965 385.600 C 123.288 385.600,123.664 385.780,123.800 386.000 C 123.936 386.220,124.487 386.400,125.024 386.400 C 125.561 386.400,126.000 386.580,126.000 386.800 C 126.000 387.020,126.435 387.200,126.967 387.200 C 127.498 387.200,127.997 387.390,128.074 387.622 C 128.212 388.037,129.104 388.309,130.524 388.369 C 130.922 388.386,131.159 388.543,131.051 388.717 C 130.944 388.891,131.428 389.077,132.128 389.130 C 132.827 389.182,133.460 389.400,133.533 389.613 C 133.607 389.826,133.991 390.000,134.388 390.000 C 134.784 390.000,135.624 390.269,136.254 390.598 C 136.884 390.926,137.805 391.196,138.300 391.198 C 138.795 391.199,139.200 391.380,139.200 391.600 C 139.200 391.820,139.830 392.000,140.600 392.000 C 141.370 392.000,142.000 392.180,142.000 392.400 C 142.000 392.620,142.459 392.800,143.020 392.800 C 143.581 392.800,144.569 393.074,145.216 393.408 C 145.862 393.743,146.484 394.013,146.596 394.008 C 148.269 393.942,149.209 394.062,149.047 394.323 C 148.938 394.501,149.597 394.691,150.514 394.745 C 151.430 394.799,152.276 395.000,152.394 395.191 C 152.513 395.382,153.732 395.666,155.105 395.821 C 156.477 395.976,157.600 396.260,157.600 396.452 C 157.600 396.643,158.399 396.800,159.376 396.800 C 160.353 396.800,161.264 396.980,161.400 397.200 C 161.536 397.420,162.591 397.600,163.744 397.600 C 164.897 397.600,166.032 397.792,166.267 398.027 C 166.503 398.263,168.384 398.558,170.447 398.684 C 172.511 398.810,174.328 399.113,174.485 399.357 C 174.890 399.986,225.110 399.986,225.515 399.357 C 225.672 399.113,227.489 398.810,229.553 398.684 C 231.616 398.558,233.497 398.263,233.733 398.027 C 233.968 397.792,235.103 397.600,236.256 397.600 C 237.409 397.600,238.464 397.420,238.600 397.200 C 238.736 396.980,239.647 396.800,240.624 396.800 C 241.601 396.800,242.400 396.643,242.400 396.452 C 242.400 396.260,243.523 395.976,244.895 395.821 C 246.268 395.666,247.487 395.382,247.606 395.191 C 247.724 395.000,248.570 394.799,249.486 394.745 C 250.403 394.691,251.062 394.501,250.953 394.323 C 250.791 394.062,251.731 393.942,253.404 394.008 C 253.516 394.013,254.138 393.743,254.784 393.408 C 255.431 393.074,256.419 392.800,256.980 392.800 C 257.541 392.800,258.000 392.620,258.000 392.400 C 258.000 392.180,258.630 392.000,259.400 392.000 C 260.170 392.000,260.800 391.820,260.800 391.600 C 260.800 391.380,261.205 391.199,261.700 391.198 C 262.195 391.196,263.116 390.926,263.746 390.598 C 264.376 390.269,265.216 390.000,265.612 390.000 C 266.009 390.000,266.393 389.826,266.467 389.613 C 266.540 389.400,267.173 389.182,267.872 389.130 C 268.572 389.077,269.056 388.891,268.949 388.717 C 268.841 388.543,269.078 388.386,269.476 388.369 C 270.896 388.309,271.788 388.037,271.926 387.622 C 272.003 387.390,272.502 387.200,273.033 387.200 C 273.565 387.200,274.000 387.020,274.000 386.800 C 274.000 386.580,274.439 386.400,274.976 386.400 C 275.513 386.400,276.064 386.220,276.200 386.000 C 276.336 385.780,276.712 385.600,277.035 385.600 C 277.358 385.600,279.013 384.932,280.711 384.115 C 282.410 383.299,283.926 382.624,284.080 382.615 C 284.234 382.607,284.585 382.375,284.860 382.100 C 285.135 381.825,285.774 381.600,286.280 381.600 C 286.786 381.600,287.200 381.420,287.200 381.200 C 287.200 380.980,287.538 380.800,287.951 380.800 C 288.364 380.800,288.926 380.530,289.200 380.200 C 289.474 379.870,289.946 379.600,290.249 379.600 C 290.552 379.600,290.800 379.420,290.800 379.200 C 290.800 378.980,291.070 378.800,291.400 378.800 C 291.730 378.800,292.000 378.640,292.000 378.445 C 292.000 378.249,292.630 377.971,293.400 377.826 C 294.170 377.682,294.800 377.426,294.800 377.257 C 294.800 377.088,295.430 376.702,296.200 376.400 C 296.970 376.098,297.600 375.704,297.600 375.525 C 297.600 375.346,297.876 375.200,298.214 375.200 C 298.793 375.200,300.764 374.119,301.200 373.563 C 301.310 373.423,301.805 373.181,302.300 373.027 C 302.795 372.872,303.200 372.568,303.200 372.349 C 303.200 372.131,303.357 372.050,303.548 372.168 C 303.740 372.287,304.320 372.016,304.838 371.567 C 305.356 371.117,306.460 370.368,307.290 369.901 C 308.121 369.435,308.800 368.906,308.800 368.726 C 308.800 368.547,309.115 368.400,309.500 368.399 C 309.885 368.399,310.823 367.866,311.583 367.216 C 312.344 366.566,313.038 366.105,313.126 366.192 C 313.213 366.280,313.724 365.912,314.261 365.376 C 314.797 364.839,315.416 364.400,315.636 364.400 C 315.856 364.400,316.466 363.995,316.991 363.500 C 317.516 363.005,318.812 361.970,319.872 361.200 C 320.933 360.430,322.005 359.620,322.256 359.400 C 322.506 359.180,323.218 358.640,323.838 358.200 C 324.458 357.760,325.249 357.130,325.596 356.800 C 325.943 356.470,326.850 355.723,327.613 355.141 C 328.376 354.558,329.397 353.703,329.883 353.241 C 330.369 352.778,330.885 352.400,331.030 352.400 C 331.175 352.400,331.983 351.725,332.825 350.900 C 333.667 350.075,334.807 349.040,335.359 348.600 C 335.911 348.160,336.371 347.587,336.382 347.327 C 336.392 347.067,336.760 346.740,337.200 346.600 C 337.640 346.460,338.000 346.178,338.000 345.973 C 338.000 345.768,338.281 345.600,338.624 345.600 C 338.967 345.600,339.136 345.420,339.000 345.200 C 338.864 344.980,339.033 344.800,339.376 344.800 C 339.719 344.800,340.000 344.530,340.000 344.200 C 340.000 343.870,340.162 343.600,340.360 343.600 C 340.829 343.600,343.600 340.829,343.600 340.360 C 343.600 340.162,343.870 340.000,344.200 340.000 C 344.530 340.000,344.800 339.719,344.800 339.376 C 344.800 339.033,344.980 338.864,345.200 339.000 C 345.420 339.136,345.600 338.967,345.600 338.624 C 345.600 338.281,345.768 338.000,345.973 338.000 C 346.178 338.000,346.460 337.640,346.600 337.200 C 346.740 336.760,347.067 336.392,347.327 336.382 C 347.587 336.371,348.160 335.911,348.600 335.359 C 349.040 334.807,350.075 333.667,350.900 332.825 C 351.725 331.983,352.400 331.175,352.400 331.030 C 352.400 330.885,352.778 330.369,353.241 329.883 C 353.703 329.397,354.558 328.373,355.141 327.606 C 355.723 326.839,356.605 325.828,357.100 325.360 C 357.595 324.891,358.000 324.381,358.000 324.226 C 358.000 324.070,358.225 323.692,358.500 323.385 C 359.236 322.565,359.644 322.033,361.402 319.600 C 362.277 318.390,363.399 316.987,363.896 316.482 C 364.393 315.977,364.800 315.302,364.800 314.982 C 364.800 314.662,364.980 314.400,365.200 314.400 C 365.420 314.400,365.600 314.100,365.600 313.733 C 365.600 313.367,365.719 313.186,365.864 313.331 C 366.129 313.595,366.513 313.030,367.857 310.400 C 368.251 309.630,368.984 308.552,369.486 308.004 C 369.989 307.456,370.400 306.826,370.400 306.604 C 370.401 306.382,370.847 305.682,371.392 305.048 C 371.937 304.414,372.286 303.739,372.168 303.548 C 372.050 303.357,372.140 303.200,372.369 303.200 C 372.598 303.200,372.898 302.750,373.036 302.200 C 373.174 301.650,373.447 301.200,373.643 301.200 C 373.840 301.200,374.000 300.952,374.000 300.649 C 374.000 300.346,374.270 299.874,374.600 299.600 C 374.930 299.326,375.200 298.764,375.200 298.351 C 375.200 297.938,375.380 297.600,375.600 297.600 C 375.820 297.600,376.000 297.330,376.000 297.000 C 376.000 296.670,376.180 296.400,376.400 296.400 C 376.620 296.400,376.800 296.117,376.800 295.771 C 376.800 295.426,377.070 294.873,377.400 294.543 C 377.730 294.213,378.000 293.506,378.000 292.971 C 378.000 292.437,378.180 292.000,378.400 292.000 C 378.620 292.000,378.800 291.730,378.800 291.400 C 378.800 291.070,378.980 290.800,379.200 290.800 C 379.420 290.800,379.600 290.566,379.600 290.280 C 379.600 289.994,379.825 289.535,380.100 289.260 C 380.594 288.766,380.652 288.598,380.750 287.376 C 380.778 287.033,380.943 286.841,381.117 286.949 C 381.291 287.056,381.463 286.755,381.499 286.278 C 381.535 285.802,381.752 285.349,381.982 285.273 C 382.212 285.196,382.400 284.973,382.400 284.778 C 382.400 284.398,384.102 280.499,385.036 278.738 C 385.346 278.154,385.600 277.299,385.600 276.838 C 385.600 276.377,385.780 276.000,386.000 276.000 C 386.220 276.000,386.400 275.550,386.400 275.000 C 386.400 274.450,386.580 274.000,386.800 274.000 C 387.020 274.000,387.200 273.550,387.200 273.000 C 387.200 272.450,387.380 272.000,387.600 272.000 C 387.820 272.000,387.971 271.865,387.936 271.700 C 387.863 271.355,388.289 270.116,388.829 269.105 C 389.033 268.723,389.200 267.969,389.200 267.429 C 389.200 266.889,389.380 266.336,389.600 266.200 C 389.820 266.064,390.000 265.513,390.000 264.976 C 390.000 264.439,390.150 264.000,390.333 264.000 C 390.631 264.000,391.274 261.966,391.852 259.200 C 391.966 258.650,392.208 257.840,392.388 257.400 C 393.306 255.157,394.000 252.881,394.000 252.110 C 394.000 251.636,394.180 251.136,394.400 251.000 C 394.620 250.864,394.800 250.079,394.800 249.256 C 394.800 248.433,394.974 247.586,395.186 247.374 C 395.399 247.161,395.690 246.000,395.834 244.794 C 395.977 243.587,396.253 242.297,396.447 241.926 C 396.641 241.556,396.800 240.531,396.800 239.650 C 396.800 238.768,396.980 237.936,397.200 237.800 C 397.420 237.664,397.602 236.888,397.604 236.076 C 397.607 235.264,397.877 233.716,398.204 232.636 C 398.532 231.556,398.800 229.567,398.800 228.216 C 398.800 226.785,399.009 225.551,399.300 225.260 C 399.983 224.577,400.033 175.615,399.352 174.761 C 399.106 174.453,398.809 172.602,398.693 170.649 C 398.577 168.696,398.316 166.986,398.113 166.849 C 397.911 166.712,397.698 165.610,397.641 164.400 C 397.583 163.190,397.371 162.140,397.168 162.067 C 396.966 161.993,396.800 161.216,396.800 160.340 C 396.800 159.464,396.641 158.444,396.447 158.074 C 396.253 157.703,395.977 156.410,395.834 155.200 C 395.691 153.990,395.400 152.940,395.187 152.867 C 394.974 152.793,394.800 151.949,394.800 150.990 C 394.800 150.032,394.620 149.136,394.400 149.000 C 394.180 148.864,394.000 148.313,394.000 147.776 C 394.000 147.239,393.809 146.800,393.576 146.800 C 393.343 146.800,393.269 146.612,393.411 146.382 C 393.553 146.153,393.512 145.748,393.319 145.482 C 393.127 145.217,392.915 144.460,392.847 143.800 C 392.779 143.140,392.561 142.540,392.362 142.467 C 392.163 142.393,392.000 141.718,392.000 140.967 C 392.000 140.215,391.861 139.600,391.691 139.600 C 391.404 139.600,390.673 137.294,390.137 134.700 C 390.012 134.095,389.750 133.600,389.555 133.600 C 389.360 133.600,389.200 133.071,389.200 132.424 C 389.200 131.777,389.040 131.149,388.845 131.028 C 388.650 130.907,388.372 130.177,388.227 129.404 C 388.082 128.632,387.792 128.000,387.582 128.000 C 387.372 128.000,387.200 127.550,387.200 127.000 C 387.200 126.450,387.020 126.000,386.800 126.000 C 386.580 126.000,386.400 125.640,386.400 125.200 C 386.400 124.760,386.243 124.400,386.050 124.400 C 385.858 124.400,385.583 123.816,385.441 123.103 C 385.127 121.535,384.302 119.600,383.947 119.600 C 383.805 119.600,383.571 118.970,383.426 118.200 C 383.282 117.430,382.992 116.800,382.782 116.800 C 382.572 116.800,382.400 116.350,382.400 115.800 C 382.400 115.250,382.260 114.800,382.088 114.800 C 381.916 114.800,381.427 113.900,381.000 112.800 C 380.573 111.700,380.127 110.800,380.010 110.800 C 379.892 110.800,379.590 110.305,379.340 109.700 C 377.807 106.000,377.413 105.200,377.123 105.200 C 376.945 105.200,376.800 104.840,376.800 104.400 C 376.800 103.960,376.642 103.600,376.449 103.600 C 376.256 103.600,375.581 102.565,374.949 101.300 C 374.317 100.035,373.710 98.910,373.600 98.800 C 373.423 98.623,373.014 97.910,371.429 95.015 C 371.010 94.249,370.717 93.845,369.700 92.631 C 369.425 92.302,369.200 91.846,369.200 91.617 C 369.200 91.388,369.020 91.200,368.800 91.200 C 368.580 91.200,368.400 90.952,368.400 90.649 C 368.400 90.346,368.136 89.879,367.813 89.611 C 367.490 89.343,367.263 89.006,367.310 88.862 C 367.453 88.415,366.143 86.790,365.864 87.069 C 365.719 87.214,365.600 86.943,365.600 86.467 C 365.600 85.990,365.420 85.600,365.200 85.600 C 364.980 85.600,364.800 85.373,364.800 85.096 C 364.800 84.819,364.350 84.107,363.800 83.513 C 363.250 82.920,362.800 82.266,362.800 82.060 C 362.800 81.854,362.530 81.582,362.200 81.455 C 361.870 81.329,361.600 80.949,361.600 80.613 C 361.600 80.276,361.420 80.000,361.200 80.000 C 360.980 80.000,360.800 79.719,360.800 79.376 C 360.800 79.033,360.620 78.864,360.400 79.000 C 360.180 79.136,360.000 79.017,360.000 78.736 C 360.000 78.455,359.538 77.829,358.974 77.343 C 358.409 76.858,357.959 76.358,357.974 76.231 C 358.065 75.436,357.951 75.183,357.600 75.400 C 357.380 75.536,357.200 75.392,357.200 75.080 C 357.200 74.767,356.750 74.174,356.200 73.761 C 355.650 73.348,355.200 72.820,355.200 72.588 C 355.200 72.356,354.570 71.499,353.800 70.682 C 353.030 69.866,352.400 69.049,352.400 68.867 C 352.400 68.684,351.950 68.294,351.400 68.000 C 350.850 67.706,350.400 67.225,350.400 66.932 C 350.400 66.640,350.265 66.399,350.100 66.399 C 349.935 66.398,349.440 65.857,349.000 65.197 C 348.560 64.536,347.885 63.894,347.500 63.771 C 347.115 63.647,346.800 63.386,346.800 63.191 C 346.800 62.715,344.863 60.800,344.382 60.800 C 344.172 60.800,344.000 60.603,344.000 60.363 C 344.000 59.867,342.572 57.948,342.226 57.979 C 342.102 57.991,342.045 57.926,342.100 57.836 C 342.254 57.584,340.130 56.000,339.637 56.000 C 339.397 56.000,339.200 55.811,339.200 55.581 C 339.200 55.350,338.705 54.723,338.100 54.187 C 336.718 52.962,336.311 52.569,335.757 51.919 C 335.140 51.195,333.236 49.600,332.990 49.600 C 332.877 49.600,331.668 48.520,330.302 47.200 C 328.937 45.880,327.632 44.800,327.404 44.800 C 327.176 44.800,326.652 44.350,326.239 43.800 C 325.826 43.250,325.233 42.800,324.920 42.800 C 324.608 42.800,324.464 42.620,324.600 42.400 C 324.812 42.057,324.223 41.811,323.882 42.100 C 323.817 42.155,323.269 41.705,322.664 41.100 C 322.059 40.495,321.381 40.000,321.158 40.000 C 320.935 40.000,320.864 39.820,321.000 39.600 C 321.136 39.380,320.967 39.200,320.624 39.200 C 320.281 39.200,320.000 39.020,320.000 38.800 C 320.000 38.580,319.724 38.400,319.387 38.400 C 319.051 38.400,318.671 38.130,318.545 37.800 C 318.418 37.470,318.141 37.200,317.929 37.200 C 317.716 37.200,317.292 36.975,316.985 36.700 C 315.677 35.527,315.212 35.200,314.850 35.200 C 314.639 35.200,314.407 35.033,314.333 34.830 C 314.260 34.626,313.934 34.401,313.610 34.330 C 313.285 34.258,312.686 33.793,312.278 33.296 C 311.870 32.799,311.385 32.486,311.200 32.600 C 311.016 32.714,310.593 32.536,310.261 32.204 C 309.929 31.872,309.464 31.600,309.229 31.600 C 308.993 31.600,308.800 31.420,308.800 31.200 C 308.800 30.980,308.573 30.800,308.296 30.800 C 308.019 30.800,307.340 30.395,306.789 29.900 C 306.237 29.405,304.754 28.460,303.494 27.800 C 302.234 27.140,301.202 26.465,301.201 26.300 C 301.201 26.135,300.840 26.000,300.400 26.000 C 299.960 26.000,299.600 25.840,299.600 25.643 C 299.600 25.447,299.191 25.184,298.692 25.059 C 298.193 24.934,297.390 24.464,296.909 24.015 C 296.427 23.567,295.798 23.200,295.510 23.200 C 295.221 23.200,294.323 22.750,293.514 22.200 C 292.705 21.650,291.763 21.200,291.421 21.200 C 291.080 21.200,290.800 21.020,290.800 20.800 C 290.800 20.580,290.453 20.400,290.029 20.400 C 289.604 20.400,289.012 20.175,288.713 19.900 C 287.863 19.118,286.470 18.400,285.805 18.400 C 285.472 18.400,285.200 18.209,285.200 17.976 C 285.200 17.743,285.049 17.646,284.864 17.760 C 284.679 17.875,283.870 17.615,283.066 17.184 C 282.261 16.753,281.332 16.400,281.001 16.400 C 280.671 16.400,280.400 16.220,280.400 16.000 C 280.400 15.780,280.040 15.600,279.600 15.600 C 279.160 15.600,278.800 15.436,278.800 15.235 C 278.800 15.034,278.080 14.749,277.200 14.600 C 276.320 14.451,275.600 14.166,275.600 13.965 C 275.600 13.764,275.246 13.600,274.814 13.600 C 274.382 13.600,273.222 13.150,272.237 12.600 C 271.252 12.050,269.986 11.600,269.423 11.600 C 268.860 11.600,268.400 11.420,268.400 11.200 C 268.400 10.980,267.950 10.800,267.400 10.800 C 266.850 10.800,266.400 10.620,266.400 10.400 C 266.400 10.180,265.847 10.000,265.171 10.000 C 264.496 10.000,263.673 9.730,263.343 9.400 C 263.013 9.070,262.216 8.800,261.571 8.800 C 260.927 8.800,260.400 8.620,260.400 8.400 C 260.400 8.180,259.785 8.000,259.033 8.000 C 258.282 8.000,257.607 7.836,257.533 7.636 C 257.416 7.316,256.087 6.953,253.908 6.647 C 253.528 6.593,253.093 6.426,252.941 6.275 C 252.790 6.124,252.167 6.000,251.557 6.000 C 250.947 6.000,250.348 5.839,250.226 5.642 C 250.105 5.445,249.329 5.184,248.503 5.060 C 244.728 4.497,241.578 3.755,241.843 3.490 C 242.003 3.331,241.023 3.200,239.667 3.200 C 238.289 3.200,237.200 3.023,237.200 2.800 C 237.200 2.580,236.300 2.400,235.200 2.400 C 234.100 2.400,233.200 2.259,233.200 2.087 C 233.200 1.915,232.705 1.721,232.100 1.656 C 231.495 1.590,230.640 1.484,230.200 1.419 C 229.760 1.355,228.264 1.279,226.876 1.251 C 225.488 1.223,224.445 1.050,224.559 0.867 C 224.880 0.347,183.304 -0.371,182.788 0.146 M218.600 38.571 C 263.069 44.369,299.680 64.732,327.248 99.000 C 331.350 104.100,340.400 117.331,340.400 118.229 C 340.400 118.332,340.828 119.093,341.350 119.921 C 345.996 127.280,352.898 143.541,355.986 154.400 C 356.268 155.390,356.729 157.010,357.012 158.000 C 358.703 163.922,360.224 171.992,361.686 182.800 C 362.370 187.860,362.392 213.808,361.716 218.000 C 361.450 219.650,361.029 222.440,360.780 224.200 C 360.070 229.236,358.061 239.033,356.966 242.800 C 345.414 282.538,322.693 313.842,289.390 335.901 C 284.661 339.033,283.891 339.493,277.200 343.175 C 261.736 351.687,241.746 358.377,224.600 360.777 C 222.840 361.024,220.230 361.394,218.800 361.599 C 212.303 362.535,200.069 362.919,191.900 362.444 C 187.445 362.185,182.630 361.805,181.200 361.599 C 179.770 361.394,177.160 361.024,175.400 360.777 C 158.254 358.377,138.264 351.687,122.800 343.175 C 116.109 339.493,115.339 339.033,110.610 335.901 C 77.307 313.842,54.586 282.538,43.034 242.800 C 38.366 226.744,36.163 198.279,38.374 182.600 C 38.622 180.840,39.008 178.050,39.232 176.400 C 39.938 171.203,41.743 162.360,42.988 158.000 C 43.271 157.010,43.732 155.390,44.014 154.400 C 47.102 143.541,54.004 127.280,58.650 119.921 C 59.172 119.093,59.600 118.330,59.600 118.225 C 59.600 117.291,68.422 104.401,72.758 99.000 C 101.879 62.724,141.832 41.737,189.200 37.834 C 193.644 37.467,214.064 37.980,218.600 38.571 M192.932 176.390 C 178.944 180.522,171.269 196.747,177.057 209.950 C 177.576 211.132,178.000 212.255,178.000 212.445 C 178.000 212.635,178.260 213.108,178.578 213.495 C 178.896 213.883,179.841 215.036,180.678 216.058 C 181.515 217.079,183.010 218.575,184.000 219.382 C 184.990 220.189,186.117 221.108,186.505 221.425 C 186.892 221.741,187.315 222.000,187.444 222.000 C 187.574 222.000,189.704 222.810,192.179 223.800 C 197.626 225.979,205.071 226.308,206.400 224.428 C 206.510 224.272,207.410 223.829,208.400 223.443 C 230.862 214.682,229.838 182.931,206.882 176.366 C 203.306 175.344,196.435 175.355,192.932 176.390 " stroke="none" fill="#444a53" fill-rule="evenodd"></path><path id="path1" d="M197.172 62.928 C 192.932 64.116,189.834 66.863,188.392 70.715 C 187.623 72.770,187.061 178.000,187.820 178.000 C 187.941 178.000,188.526 177.749,189.120 177.442 C 192.328 175.784,195.391 175.135,200.000 175.135 C 204.609 175.135,207.672 175.784,210.880 177.442 C 211.474 177.749,212.059 178.000,212.180 178.000 C 212.948 178.000,212.376 72.766,211.597 70.683 C 209.472 65.003,202.720 61.373,197.172 62.928 M224.267 207.467 C 224.120 207.613,224.000 208.023,224.000 208.378 C 224.000 209.099,221.998 213.099,220.698 214.977 C 218.043 218.811,212.883 222.617,208.234 224.170 C 207.251 224.498,209.184 226.546,234.878 252.414 C 251.475 269.124,254.680 272.172,256.547 273.027 C 267.274 277.938,277.907 267.234,272.995 256.469 C 272.081 254.465,225.871 207.270,224.767 207.212 C 224.638 207.206,224.413 207.320,224.267 207.467 " stroke="none" fill="#e8e9e7" fill-rule="evenodd"></path><path id="path2" d="M189.600 50.230 C 181.012 50.927,173.994 51.947,164.400 53.893 C 159.281 54.931,146.528 58.793,141.495 60.830 C 140.343 61.296,138.680 61.965,137.800 62.316 C 112.946 72.228,86.412 92.807,70.386 114.600 C 68.172 117.611,62.400 126.014,62.400 126.226 C 62.400 126.313,61.735 127.423,60.923 128.692 C 56.459 135.669,48.756 152.038,46.380 159.600 C 42.507 171.923,40.998 178.152,39.449 188.200 C 37.563 200.441,37.782 215.597,40.005 226.600 C 40.227 227.700,40.786 230.490,41.246 232.800 C 43.107 242.133,45.257 249.472,48.937 259.058 C 51.296 265.203,55.229 273.489,58.477 279.157 C 59.534 281.004,60.400 282.563,60.400 282.622 C 60.400 282.923,65.730 291.067,67.980 294.203 C 85.846 319.112,112.587 340.182,139.349 350.436 C 140.477 350.868,141.805 351.397,142.300 351.611 C 144.370 352.506,145.108 352.775,147.200 353.400 C 148.410 353.761,149.760 354.218,150.200 354.415 C 152.531 355.458,164.251 358.322,173.000 359.986 C 181.889 361.677,197.739 362.607,207.500 362.011 C 215.028 361.552,223.270 360.696,227.000 359.986 C 235.749 358.322,247.469 355.458,249.800 354.415 C 250.240 354.218,251.590 353.761,252.800 353.400 C 254.892 352.775,255.630 352.506,257.700 351.611 C 258.195 351.397,259.523 350.868,260.651 350.436 C 287.298 340.226,314.662 318.707,331.833 294.458 C 334.043 291.337,339.600 282.871,339.600 282.625 C 339.600 282.564,340.468 281.004,341.528 279.157 C 346.307 270.834,350.474 261.363,354.005 250.800 C 356.289 243.965,357.265 240.268,358.754 232.800 C 359.214 230.490,359.771 227.700,359.991 226.600 C 362.216 215.474,362.435 200.430,360.551 188.200 C 359.002 178.152,357.493 171.923,353.620 159.600 C 351.244 152.038,343.541 135.669,339.077 128.692 C 338.265 127.423,337.600 126.313,337.600 126.226 C 337.600 126.017,331.859 117.654,329.618 114.600 C 313.760 92.981,286.942 72.183,262.200 62.316 C 261.320 61.965,259.657 61.296,258.505 60.830 C 253.472 58.793,240.719 54.931,235.600 53.893 C 230.660 52.891,225.660 51.996,223.000 51.638 C 221.240 51.402,218.360 51.010,216.600 50.769 C 213.488 50.342,193.210 49.938,189.600 50.230 M205.483 64.029 C 208.430 65.459,210.474 67.683,211.597 70.683 C 212.386 72.793,212.400 73.739,212.400 125.566 L 212.400 178.303 213.700 178.840 C 217.083 180.237,222.134 186.647,223.914 191.800 C 225.588 196.649,225.835 204.975,224.351 206.580 C 223.838 207.136,223.923 207.602,224.500 207.398 C 225.504 207.043,271.833 253.922,272.995 256.469 C 277.907 267.234,267.274 277.938,256.547 273.027 C 253.700 271.724,207.567 225.576,207.900 224.364 C 207.955 224.164,207.724 224.000,207.386 224.000 C 206.136 224.000,207.982 225.966,230.798 248.936 C 253.588 271.881,254.528 272.742,258.519 274.349 C 261.936 275.725,267.786 274.151,270.807 271.042 C 272.629 269.168,272.989 269.226,273.639 271.500 C 276.011 279.803,270.336 287.420,261.800 287.388 C 256.305 287.368,257.472 288.335,230.489 261.436 L 206.378 237.400 200.689 237.364 C 192.341 237.312,185.791 234.650,181.871 229.717 C 181.470 229.213,180.930 228.800,180.670 228.800 C 180.410 228.800,167.510 241.489,152.002 256.998 L 123.805 285.197 123.934 287.700 C 124.303 294.877,118.312 300.994,111.141 300.761 L 108.376 300.671 104.266 304.716 C 98.042 310.841,93.788 311.389,91.141 306.406 C 89.361 303.058,90.147 301.176,95.639 295.622 L 99.375 291.844 99.263 289.348 C 98.918 281.676,105.574 275.204,112.820 276.165 L 114.841 276.433 145.073 246.213 L 175.304 215.993 175.098 214.454 C 174.984 213.607,175.027 211.674,175.193 210.157 C 175.394 208.324,175.307 206.199,174.933 203.818 C 173.456 194.418,179.214 181.767,186.300 178.840 L 187.600 178.303 187.600 125.566 C 187.600 73.989,187.617 72.784,188.392 70.715 C 191.017 63.703,198.653 60.716,205.483 64.029 M114.676 99.762 C 125.921 102.756,127.177 117.839,116.600 122.860 C 107.334 127.259,96.800 118.137,99.785 108.300 C 101.754 101.810,108.291 98.062,114.676 99.762 M291.415 99.746 C 302.791 102.776,304.036 117.974,293.309 122.864 C 286.905 125.784,279.368 122.572,276.854 115.853 C 273.402 106.627,281.911 97.215,291.415 99.746 M199.300 175.076 C 199.685 175.176,200.315 175.176,200.700 175.076 C 201.085 174.975,200.770 174.893,200.000 174.893 C 199.230 174.893,198.915 174.975,199.300 175.076 M80.281 189.057 C 86.378 191.938,88.992 199.486,85.981 205.511 C 80.718 216.044,65.288 213.978,62.983 202.433 C 60.995 192.480,71.059 184.698,80.281 189.057 M330.200 188.990 C 336.868 191.992,339.280 200.015,335.470 206.517 C 329.381 216.907,312.800 212.438,312.800 200.407 C 312.800 191.080,321.771 185.194,330.200 188.990 M223.632 208.406 C 223.614 208.739,223.229 209.703,222.776 210.549 C 222.323 211.394,222.041 212.174,222.148 212.282 C 222.456 212.589,224.070 208.797,223.855 208.270 C 223.739 207.987,223.651 208.040,223.632 208.406 M220.499 214.500 C 218.863 216.750,216.653 218.969,214.530 220.493 C 213.579 221.176,212.879 221.813,212.974 221.908 C 213.530 222.464,219.975 216.404,221.323 214.058 C 222.338 212.290,221.958 212.494,220.499 214.500 M210.000 223.068 C 209.010 223.595,208.650 223.908,209.200 223.763 C 210.385 223.450,212.400 222.459,212.400 222.190 C 212.400 221.875,211.886 222.063,210.000 223.068 M291.415 276.546 C 300.976 279.092,303.932 290.799,296.698 297.467 C 290.288 303.375,279.880 300.827,276.820 292.600 C 273.412 283.435,281.963 274.029,291.415 276.546 M204.143 313.442 C 212.231 316.198,214.861 327.411,208.866 333.577 C 201.160 341.503,187.939 336.224,187.885 325.200 C 187.843 316.565,195.998 310.667,204.143 313.442 " stroke="none" fill="#82ba53" fill-rule="evenodd"></path><path id="path3" d="M135.047 256.222 C 111.350 279.885,91.610 299.820,91.182 300.522 C 88.111 305.559,93.914 311.576,99.353 308.995 C 100.681 308.365,186.800 222.462,186.800 221.768 C 186.800 221.550,186.283 221.067,185.651 220.694 C 184.167 219.817,180.183 215.833,179.306 214.349 C 178.933 213.717,178.516 213.200,178.380 213.200 C 178.245 213.200,158.745 232.560,135.047 256.222 " stroke="none" fill="#e84c4b" fill-rule="evenodd"></path><path id="path4" d="M189.200 37.834 C 141.832 41.737,101.879 62.724,72.758 99.000 C 68.422 104.401,59.600 117.291,59.600 118.225 C 59.600 118.330,59.172 119.093,58.650 119.921 C 54.004 127.280,47.102 143.541,44.014 154.400 C 43.732 155.390,43.271 157.010,42.988 158.000 C 41.245 164.102,39.736 172.191,38.323 183.000 C 37.176 191.770,37.702 216.086,39.214 224.200 C 39.744 227.044,39.623 224.029,39.022 219.400 C 37.427 207.129,37.956 194.643,40.631 181.400 C 42.370 172.791,43.080 170.100,46.380 159.600 C 48.756 152.038,56.459 135.669,60.923 128.692 C 61.735 127.423,62.400 126.313,62.400 126.226 C 62.400 126.014,68.172 117.611,70.386 114.600 C 86.412 92.807,112.946 72.228,137.800 62.316 C 138.680 61.965,140.343 61.296,141.495 60.830 C 146.528 58.793,159.281 54.931,164.400 53.893 C 168.757 53.009,174.297 52.008,176.800 51.652 C 185.896 50.359,188.439 50.200,200.000 50.200 C 211.561 50.200,214.104 50.359,223.200 51.652 C 225.703 52.008,231.243 53.009,235.600 53.893 C 240.719 54.931,253.472 58.793,258.505 60.830 C 259.657 61.296,261.320 61.965,262.200 62.316 C 286.942 72.183,313.760 92.981,329.618 114.600 C 331.859 117.654,337.600 126.017,337.600 126.226 C 337.600 126.313,338.265 127.423,339.077 128.692 C 343.541 135.669,351.244 152.038,353.620 159.600 C 356.280 168.064,357.306 171.708,358.238 176.000 C 362.051 193.556,362.770 205.078,360.952 219.485 C 360.613 222.172,360.409 224.692,360.500 225.085 C 360.590 225.478,360.796 224.540,360.957 223.000 C 361.119 221.460,361.457 219.210,361.709 218.000 C 362.371 214.822,362.354 187.736,361.686 182.800 C 360.224 171.992,358.703 163.922,357.012 158.000 C 356.729 157.010,356.268 155.390,355.986 154.400 C 352.898 143.541,345.996 127.280,341.350 119.921 C 340.828 119.093,340.400 118.332,340.400 118.229 C 340.400 117.331,331.350 104.100,327.248 99.000 C 299.680 64.732,263.069 44.369,218.600 38.571 C 214.064 37.980,193.644 37.467,189.200 37.834 M108.351 99.781 C 105.847 100.472,103.080 102.449,101.592 104.611 C 92.965 117.151,110.358 131.133,120.646 119.928 C 128.931 110.904,120.157 96.526,108.351 99.781 M285.181 99.774 C 273.988 102.863,272.878 118.026,283.491 122.864 C 294.290 127.787,305.182 115.372,298.920 105.277 C 295.971 100.522,290.463 98.316,285.181 99.774 M198.100 175.494 C 199.145 175.576,200.855 175.576,201.900 175.494 C 202.945 175.412,202.090 175.344,200.000 175.344 C 197.910 175.344,197.055 175.412,198.100 175.494 M186.000 179.030 C 178.308 183.389,173.427 194.405,174.968 203.931 C 175.296 205.963,175.478 207.853,175.371 208.131 C 175.264 208.410,175.135 210.378,175.084 212.506 L 174.992 216.375 176.496 214.906 C 178.261 213.182,178.305 212.796,177.057 209.950 C 172.411 199.351,176.736 185.397,186.578 179.238 C 188.959 177.748,188.533 177.594,186.000 179.030 M213.422 179.238 C 221.809 184.487,226.128 194.815,224.280 205.200 C 224.082 206.312,224.101 206.847,224.331 206.600 C 225.833 204.983,225.599 196.681,223.914 191.800 C 222.101 186.552,217.593 180.830,213.716 178.857 C 211.278 177.617,211.132 177.805,213.422 179.238 M72.537 188.017 C 65.922 189.325,61.652 195.768,62.983 202.433 C 65.288 213.978,80.718 216.044,85.981 205.511 C 90.463 196.542,82.411 186.064,72.537 188.017 M322.689 188.027 C 314.975 189.279,310.459 198.386,314.019 205.511 C 318.347 214.174,330.645 214.750,335.470 206.517 C 340.934 197.194,333.396 186.288,322.689 188.027 M221.053 213.300 L 220.333 214.600 221.158 213.600 C 221.889 212.713,222.214 212.000,221.886 212.000 C 221.824 212.000,221.449 212.585,221.053 213.300 M215.970 219.100 L 215.000 220.200 216.200 219.200 C 216.860 218.650,217.475 218.155,217.567 218.100 C 217.658 218.045,217.555 218.000,217.336 218.000 C 217.118 218.000,216.503 218.495,215.970 219.100 M213.000 221.200 C 212.340 221.637,211.980 221.992,212.200 221.988 C 212.601 221.982,214.776 220.423,214.400 220.412 C 214.290 220.408,213.660 220.763,213.000 221.200 M183.549 225.254 L 180.499 228.437 181.749 229.688 C 187.470 235.410,192.159 237.311,200.689 237.364 L 206.378 237.400 230.489 261.436 C 257.472 288.335,256.305 287.368,261.800 287.388 C 270.336 287.420,276.011 279.803,273.639 271.500 C 272.989 269.226,272.629 269.168,270.807 271.042 C 267.786 274.151,261.936 275.725,258.519 274.349 C 254.727 272.822,253.539 271.747,234.351 252.471 C 223.472 241.542,212.732 230.676,210.485 228.325 C 208.238 225.974,206.400 224.197,206.400 224.378 C 206.400 226.312,197.560 225.953,192.179 223.800 C 186.590 221.564,187.181 221.464,183.549 225.254 M39.641 226.486 C 39.588 227.371,41.111 235.245,41.389 235.522 C 41.725 235.858,41.642 235.039,40.980 231.508 C 40.247 227.591,39.698 225.532,39.641 226.486 M359.817 227.400 C 359.660 228.280,359.277 230.297,358.966 231.883 C 358.370 234.921,358.274 235.859,358.594 235.539 C 358.935 235.198,360.468 226.801,360.282 226.291 C 360.183 226.021,359.974 226.520,359.817 227.400 M41.607 236.633 C 41.611 237.055,41.955 238.660,42.372 240.200 C 42.789 241.740,43.422 244.080,43.778 245.400 C 53.243 280.458,78.460 314.605,110.610 335.901 C 115.339 339.033,116.109 339.493,122.800 343.175 C 129.625 346.932,143.765 353.168,144.283 352.650 C 144.410 352.523,144.174 352.308,143.757 352.173 C 143.341 352.038,142.640 351.769,142.200 351.575 C 141.760 351.381,140.477 350.868,139.349 350.436 C 112.587 340.182,85.846 319.112,67.980 294.203 C 65.730 291.067,60.400 282.923,60.400 282.622 C 60.400 282.563,59.534 281.004,58.477 279.157 C 51.677 267.289,44.707 249.503,42.361 238.033 C 41.967 236.107,41.596 235.419,41.607 236.633 M358.029 236.200 C 356.367 246.618,348.596 266.847,341.528 279.157 C 340.468 281.004,339.600 282.564,339.600 282.625 C 339.600 282.871,334.043 291.337,331.833 294.458 C 314.662 318.707,287.298 340.226,260.651 350.436 C 259.523 350.868,258.240 351.381,257.800 351.575 C 257.360 351.769,256.659 352.038,256.243 352.173 C 255.826 352.308,255.590 352.523,255.717 352.650 C 256.235 353.168,270.375 346.932,277.200 343.175 C 283.891 339.493,284.661 339.033,289.390 335.901 C 321.541 314.605,346.747 280.472,356.222 245.400 C 358.151 238.261,358.427 237.055,358.267 236.456 C 358.171 236.095,358.064 235.980,358.029 236.200 M108.144 276.580 C 104.058 277.921,101.265 280.706,99.808 284.889 C 99.140 286.805,98.997 290.627,99.579 290.987 C 100.011 291.254,114.576 276.843,114.227 276.494 C 113.740 276.007,109.717 276.064,108.144 276.580 M285.197 276.570 C 275.994 279.112,273.020 290.307,279.756 297.044 C 284.521 301.808,291.791 301.990,296.698 297.467 C 306.112 288.789,297.514 273.167,285.197 276.570 M116.074 292.926 C 107.720 301.289,108.010 300.800,111.409 300.800 C 118.234 300.800,124.000 295.033,124.000 288.209 C 124.000 285.011,123.950 285.041,116.074 292.926 M195.693 313.467 C 187.747 316.279,185.207 327.481,191.134 333.577 C 198.840 341.503,212.061 336.224,212.115 325.200 C 212.157 316.539,203.829 310.588,195.693 313.467 M144.848 352.981 C 146.555 354.688,174.055 361.306,178.800 361.152 C 179.889 361.117,179.711 361.033,178.000 360.774 C 168.778 359.381,153.530 355.895,150.200 354.418 C 148.130 353.500,144.353 352.486,144.848 352.981 M252.200 353.571 C 251.100 353.950,249.930 354.375,249.600 354.514 C 246.142 355.972,230.894 359.431,222.000 360.774 C 220.289 361.033,220.111 361.117,221.200 361.152 C 225.945 361.306,253.445 354.688,255.152 352.981 C 255.508 352.625,254.167 352.893,252.200 353.571 M181.600 361.567 C 186.682 362.835,207.903 362.943,217.726 361.751 C 222.289 361.198,218.618 361.236,209.761 361.833 C 200.106 362.485,199.535 362.476,183.000 361.400 C 180.886 361.263,180.543 361.304,181.600 361.567 " stroke="none" fill="#6ca149" fill-rule="evenodd"></path></g></svg>