<svg id="svg" version="1.1" xmlns="http://www.w3.org/2000/svg" width="400" height="400"><g id="svgg" stroke="none" fill-rule="evenodd"><path id="path0" d="M182.788.146c-.116.115-1.867.243-3.89.284-2.024.041-3.584.231-3.466.422.119.192-.92.371-2.308.399-1.388.028-2.884.104-3.324.168-.44.065-1.295.171-1.9.237-.605.065-1.1.259-1.1.431s-.9.313-2 .313-2 .18-2 .4c0 .223-1.089.4-2.467.4-1.356 0-2.336.131-2.176.29.265.265-2.885 1.007-6.66 1.57-.826.124-1.602.385-1.723.582-.122.197-.721.358-1.331.358s-1.233.124-1.384.275c-.152.151-.587.318-.967.372-2.179.306-3.508.669-3.625.989-.074.2-.749.364-1.5.364-.752 0-1.367.18-1.367.4 0 .22-.527.4-1.171.4-.645 0-1.442.27-1.772.6-.33.33-1.153.6-1.828.6-.676 0-1.229.18-1.229.4 0 .22-.45.4-1 .4s-1 .18-1 .4c0 .22-.46.4-1.023.4s-1.829.45-2.814 1c-.985.55-2.145 1-2.577 1-.432 0-.786.164-.786.365 0 .201-.72.486-1.6.635-.88.149-1.6.434-1.6.635s-.36.365-.8.365c-.44 0-.8.18-.8.4 0 .22-.271.4-.601.4-.331 0-1.26.353-2.065.784-.804.431-1.613.691-1.798.576-.185-.114-.336-.017-.336.216 0 .233-.272.424-.605.424-.665 0-2.058.718-2.908 1.5-.299.275-.891.5-1.316.5-.424 0-.771.18-.771.4 0 .22-.28.4-.621.4-.342 0-1.284.45-2.093 1-.809.55-1.707 1-1.996 1-.288 0-.917.367-1.399.815-.481.449-1.284.919-1.783 1.044-.499.125-.908.388-.908.584 0 .197-.36.357-.8.357-.44 0-.801.135-.801.3-.001.165-1.033.84-2.293 1.5-1.26.66-2.743 1.605-3.295 2.1-.551.495-1.23.9-1.507.9-.277 0-.504.18-.504.4 0 .22-.193.4-.429.4-.235 0-.7.272-1.032.604-.332.332-.755.51-.939.396-.185-.114-.67.199-1.078.696-.408.497-1.007.963-1.332 1.034-.324.072-.65.297-.723.5a.595.595 0 0 1-.517.37c-.362 0-.827.327-2.135 1.5-.307.275-.731.5-.944.5-.212 0-.489.27-.616.6-.126.33-.506.6-.842.6-.337 0-.613.18-.613.4 0 .22-.281.4-.624.4-.343 0-.512.18-.376.4.136.22.065.4-.158.4s-.901.495-1.506 1.1c-.605.605-1.153 1.055-1.218 1-.341-.289-.93-.043-.718.3.136.22-.008.4-.32.4-.313 0-.906.45-1.319 1-.413.55-.953 1-1.2 1s-1.059.628-1.805 1.396c-.746.767-1.551 1.397-1.788 1.4-.238.002-.674.454-.968 1.004-.294.55-.775 1-1.068 1-.292 0-.533.135-.533.3-.001.165-.542.66-1.202 1.1-.661.44-1.303 1.115-1.426 1.5-.124.385-.385.7-.58.7-.476 0-2.391 1.937-2.391 2.418 0 .21-.197.382-.437.382-.499 0-2.18 1.248-2.29 1.7a.558.558 0 0 1-.373.373c-.452.11-1.7 1.791-1.7 2.29 0 .24-.172.437-.382.437-.481 0-2.418 1.915-2.418 2.391 0 .195-.315.456-.7.58-.385.123-1.06.765-1.5 1.426-.44.66-.935 1.201-1.1 1.202-.165 0-.3.241-.3.533 0 .293-.45.774-1 1.068-.55.294-1 .684-1 .867 0 .182-.63.999-1.4 1.815-.77.817-1.4 1.674-1.4 1.906 0 .232-.45.76-1 1.173-.55.413-1 1.006-1 1.319 0 .312-.18.456-.4.32-.351-.217-.465.036-.374.831.015.127-.435.627-1 1.112-.564.486-1.026 1.112-1.026 1.393 0 .281-.18.4-.4.264-.22-.136-.4.033-.4.376 0 .343-.18.624-.4.624-.22 0-.4.276-.4.613 0 .336-.27.716-.6.842-.33.127-.6.399-.6.605 0 .206-.45.86-1 1.453-.55.594-1 1.306-1 1.583 0 .277-.18.504-.4.504-.22 0-.4.39-.4.867 0 .476-.119.747-.264.602-.279-.279-1.589 1.346-1.446 1.793.047.144-.18.481-.503.749s-.587.735-.587 1.038c0 .303-.18.551-.4.551-.22 0-.4.193-.4.429 0 .235-.225.679-.5.986-1.039 1.159-1.508 1.902-3.271 5.185-.236.44-.519.89-.629 1-.11.11-.717 1.235-1.349 2.5s-1.307 2.3-1.5 2.3c-.193 0-.351.36-.351.8 0 .44-.145.8-.323.8-.29 0-.684.8-2.217 4.5-.25.605-.552 1.1-.67 1.1-.117 0-.563.9-.99 2-.427 1.1-.916 2-1.088 2-.172 0-.312.45-.312 1s-.172 1-.382 1c-.21 0-.5.63-.644 1.4-.145.77-.379 1.4-.521 1.4-.355 0-1.18 1.935-1.494 3.503-.142.713-.417 1.297-.609 1.297-.193 0-.35.36-.35.8 0 .44-.18.8-.4.8-.22 0-.4.45-.4 1s-.172 1-.382 1c-.21 0-.5.632-.645 1.404-.145.773-.423 1.503-.618 1.624-.195.121-.355.749-.355 1.396 0 .647-.16 1.176-.355 1.176-.195 0-.457.495-.582 1.1-.536 2.594-1.267 4.9-1.554 4.9-.17 0-.309.462-.309 1.026 0 .565-.17 1.344-.377 1.731-.207.388-.437 1.141-.51 1.674-.073.533-.274 1.194-.447 1.469-.172.275-.202.68-.066.9.136.22.057.4-.176.4-.233 0-.424.439-.424.976 0 .537-.18 1.088-.4 1.224-.22.136-.4 1.032-.4 1.99 0 .959-.174 1.803-.387 1.877-.213.073-.504 1.123-.647 2.333-.143 1.21-.419 2.503-.613 2.874-.194.37-.353 1.39-.353 2.266 0 .876-.166 1.653-.368 1.727-.203.073-.415 1.123-.473 2.333-.057 1.21-.27 2.312-.472 2.449-.203.137-.464 1.847-.58 3.8-.116 1.953-.413 3.804-.659 4.112-.638.8-.635 49.684.003 50.478.249.308.533 2.036.633 3.839.11 1.987.404 3.553.749 3.977.494.609.49.656-.033.363-.488-.273-.507-.235-.1.203.275.297.5 1.302.5 2.235 0 .933.18 1.808.4 1.944.22.136.4.968.4 1.85 0 .881.159 1.906.353 2.276.194.371.47 1.661.613 2.868.144 1.206.435 2.367.648 2.58.212.212.386 1.059.386 1.882s.18 1.608.4 1.744c.22.136.4.636.4 1.11 0 .771.694 3.047 1.612 5.29.18.44.422 1.25.536 1.8.578 2.766 1.221 4.8 1.519 4.8.183 0 .333.439.333.976 0 .537.18 1.088.4 1.224.22.136.4.689.4 1.229 0 .54.167 1.294.371 1.676.54 1.011.966 2.25.893 2.595-.035.165.116.3.336.3.22 0 .4.45.4 1s.18 1 .4 1c.22 0 .4.45.4 1s.18 1 .4 1c.22 0 .4.377.4.838 0 .461.254 1.316.564 1.9.934 1.761 2.636 5.66 2.636 6.04 0 .195.188.418.418.495.23.076.447.529.483 1.005.036.477.208.778.382.671.174-.108.34.084.367.427.098 1.222.156 1.39.65 1.884.275.275.5.734.5 1.02 0 .286.18.52.4.52.22 0 .4.27.4.6 0 .33.16.6.355.6.196 0 .474.63.619 1.4.144.77.434 1.4.644 1.4.21 0 .382.36.382.8 0 .44.18.8.4.8.22 0 .4.27.4.6 0 .33.18.6.4.6.22 0 .4.338.4.751s.27.975.6 1.249c.33.274.6.746.6 1.049 0 .303.16.551.357.551.196 0 .469.45.607 1s.438 1 .667 1c.229 0 .319.157.201.348-.118.191.231.866.776 1.5s.991 1.334.992 1.556c0 .222.405.852.9 1.4.495.548 1.162 1.536 1.482 2.196.32.66.936 1.605 1.37 2.1.433.495.639.9.457.9s.056.336.53.747c.473.411.861.943.861 1.182s.407.848.904 1.353c.497.505 1.618 1.908 2.491 3.118.874 1.21 1.772 2.419 1.997 2.686l.908 1.083c.275.329.5.719.5.868 0 .149.405.654.9 1.123.495.468 1.377 1.479 1.959 2.246.583.767 1.438 1.791 1.9 2.277.463.486.841 1.002.841 1.147 0 .145.675.953 1.5 1.795s1.86 1.982 2.3 2.534c.44.552 1.013 1.012 1.273 1.023.26.01.587.378.727.818.14.44.422.8.627.8.205 0 .373.281.373.624 0 .343.18.512.4.376.22-.136.4.033.4.376 0 .343.27.624.6.624.33 0 .6.162.6.36 0 .469 2.771 3.24 3.24 3.24.198 0 .36.27.36.6 0 .33.281.6.624.6.343 0 .512.18.376.4-.136.22.033.4.376.4.343 0 .624.168.624.373s.36.487.8.627c.44.14.808.467.818.727.011.26.471.833 1.023 1.273.552.44 1.692 1.475 2.534 2.3.842.825 1.717 1.5 1.945 1.5.227 0 .473.135.547.3.138.311 1.883 1.82 4.51 3.9.833.66 1.945 1.613 2.469 2.118.525.505.957.775.96.6.003-.175.138-.137.3.085.162.221 1.161 1.031 2.222 1.8 1.06.768 2.356 1.802 2.881 2.297.525.495 1.135.9 1.355.9.22 0 .839.439 1.375.976.537.536 1.048.904 1.135.816.088-.087.782.374 1.543 1.024.76.65 1.698 1.183 2.083 1.183.385.001.7.148.7.327 0 .18.679.709 1.51 1.175.83.467 1.934 1.216 2.452 1.666.518.449 1.098.72 1.29.601.191-.118.348-.037.348.181 0 .219.405.523.9.678.495.154.99.396 1.1.536.436.556 2.407 1.637 2.986 1.637.338 0 .614.146.614.325 0 .179.63.573 1.4.875.77.302 1.4.688 1.4.857 0 .169.63.425 1.4.569.77.145 1.4.423 1.4.619 0 .195.27.355.6.355.33 0 .6.18.6.4 0 .22.248.4.551.4.303 0 .775.27 1.049.6.274.33.836.6 1.249.6.413 0 .751.18.751.4 0 .22.414.4.92.4s1.145.225 1.42.5c.275.275.626.507.78.515.154.009 1.67.684 3.369 1.5 1.698.817 3.353 1.485 3.676 1.485.323 0 .699.18.835.4.136.22.687.4 1.224.4.537 0 .976.18.976.4 0 .22.435.4.967.4.531 0 1.03.19 1.107.422.138.415 1.03.687 2.45.747.398.017.635.174.527.348-.107.174.377.36 1.077.413.699.052 1.332.27 1.405.483.074.213.458.387.855.387.396 0 1.236.269 1.866.598.63.328 1.551.598 2.046.6.495.001.9.182.9.402 0 .22.63.4 1.4.4.77 0 1.4.18 1.4.4 0 .22.459.4 1.02.4.561 0 1.549.274 2.196.608.646.335 1.268.605 1.38.6 1.673-.066 2.613.054 2.451.315-.109.178.55.368 1.467.422.916.054 1.762.255 1.88.446.119.191 1.338.475 2.711.63 1.372.155 2.495.439 2.495.631 0 .191.799.348 1.776.348s1.888.18 2.024.4c.136.22 1.191.4 2.344.4 1.153 0 2.288.192 2.523.427.236.236 2.117.531 4.18.657 2.064.126 3.881.429 4.038.673.405.629 50.625.629 51.03 0 .157-.244 1.974-.547 4.038-.673 2.063-.126 3.944-.421 4.18-.657.235-.235 1.37-.427 2.523-.427s2.208-.18 2.344-.4c.136-.22 1.047-.4 2.024-.4.977 0 1.776-.157 1.776-.348 0-.192 1.123-.476 2.495-.631 1.373-.155 2.592-.439 2.711-.63.118-.191.964-.392 1.88-.446.917-.054 1.576-.244 1.467-.422-.162-.261.778-.381 2.451-.315.112.005.734-.265 1.38-.6.647-.334 1.635-.608 2.196-.608.561 0 1.02-.18 1.02-.4 0-.22.63-.4 1.4-.4.77 0 1.4-.18 1.4-.4 0-.22.405-.401.9-.402.495-.002 1.416-.272 2.046-.6.63-.329 1.47-.598 1.866-.598.397 0 .781-.174.855-.387.073-.213.706-.431 1.405-.483.7-.053 1.184-.239 1.077-.413-.108-.174.129-.331.527-.348 1.42-.06 2.312-.332 2.45-.747.077-.232.576-.422 1.107-.422.532 0 .967-.18.967-.4 0-.22.439-.4.976-.4.537 0 1.088-.18 1.224-.4.136-.22.512-.4.835-.4.323 0 1.978-.668 3.676-1.485 1.699-.816 3.215-1.491 3.369-1.5.154-.008.505-.24.78-.515s.914-.5 1.42-.5c.506 0 .92-.18.92-.4 0-.22.338-.4.751-.4s.975-.27 1.249-.6c.274-.33.746-.6 1.049-.6.303 0 .551-.18.551-.4 0-.22.27-.4.6-.4.33 0 .6-.16.6-.355 0-.196.63-.474 1.4-.619.77-.144 1.4-.4 1.4-.569 0-.169.63-.555 1.4-.857.77-.302 1.4-.696 1.4-.875 0-.179.276-.325.614-.325.579 0 2.55-1.081 2.986-1.637.11-.14.605-.382 1.1-.536.495-.155.9-.459.9-.678 0-.218.157-.299.348-.181.192.119.772-.152 1.29-.601.518-.45 1.622-1.199 2.452-1.666.831-.466 1.51-.995 1.51-1.175 0-.179.315-.326.7-.327.385 0 1.323-.533 2.083-1.183.761-.65 1.455-1.111 1.543-1.024.087.088.598-.28 1.135-.816.536-.537 1.155-.976 1.375-.976.22 0 .83-.405 1.355-.9s1.821-1.53 2.881-2.3c1.061-.77 2.133-1.58 2.384-1.8.25-.22.962-.76 1.582-1.2.62-.44 1.411-1.07 1.758-1.4.347-.33 1.254-1.077 2.017-1.659.763-.583 1.784-1.438 2.27-1.9.486-.463 1.002-.841 1.147-.841.145 0 .953-.675 1.795-1.5s1.982-1.86 2.534-2.3c.552-.44 1.012-1.013 1.023-1.273.01-.26.378-.587.818-.727.44-.14.8-.422.8-.627 0-.205.281-.373.624-.373.343 0 .512-.18.376-.4-.136-.22.033-.4.376-.4.343 0 .624-.27.624-.6 0-.33.162-.6.36-.6.469 0 3.24-2.771 3.24-3.24 0-.198.27-.36.6-.36.33 0 .6-.281.6-.624 0-.343.18-.512.4-.376.22.136.4-.033.4-.376 0-.343.168-.624.373-.624s.487-.36.627-.8c.14-.44.467-.808.727-.818.26-.011.833-.471 1.273-1.023.44-.552 1.475-1.692 2.3-2.534.825-.842 1.5-1.65 1.5-1.795 0-.145.378-.661.841-1.147.462-.486 1.317-1.51 1.9-2.277.582-.767 1.464-1.778 1.959-2.246.495-.469.9-.979.9-1.134 0-.156.225-.534.5-.841.736-.82 1.144-1.352 2.902-3.785.875-1.21 1.997-2.613 2.494-3.118.497-.505.904-1.18.904-1.5 0-.32.18-.582.4-.582.22 0 .4-.3.4-.667 0-.366.119-.547.264-.402.265.264.649-.301 1.993-2.931.394-.77 1.127-1.848 1.629-2.396.503-.548.914-1.178.914-1.4.001-.222.447-.922.992-1.556.545-.634.894-1.309.776-1.5-.118-.191-.028-.348.201-.348s.529-.45.667-1 .411-1 .607-1c.197 0 .357-.248.357-.551 0-.303.27-.775.6-1.049.33-.274.6-.836.6-1.249 0-.413.18-.751.4-.751.22 0 .4-.27.4-.6 0-.33.18-.6.4-.6.22 0 .4-.283.4-.629 0-.345.27-.898.6-1.228.33-.33.6-1.037.6-1.572 0-.534.18-.971.4-.971.22 0 .4-.27.4-.6 0-.33.18-.6.4-.6.22 0 .4-.234.4-.52 0-.286.225-.745.5-1.02.494-.494.552-.662.65-1.884.028-.343.193-.535.367-.427.174.107.346-.194.382-.671.036-.476.253-.929.483-1.005.23-.077.418-.3.418-.495 0-.38 1.702-4.279 2.636-6.04.31-.584.564-1.439.564-1.9 0-.461.18-.838.4-.838.22 0 .4-.45.4-1s.18-1 .4-1c.22 0 .4-.45.4-1s.18-1 .4-1c.22 0 .371-.135.336-.3-.073-.345.353-1.584.893-2.595.204-.382.371-1.136.371-1.676s.18-1.093.4-1.229c.22-.136.4-.687.4-1.224 0-.537.15-.976.333-.976.298 0 .941-2.034 1.519-4.8.114-.55.356-1.36.536-1.8.918-2.243 1.612-4.519 1.612-5.29 0-.474.18-.974.4-1.11.22-.136.4-.921.4-1.744s.174-1.67.386-1.882c.213-.213.504-1.374.648-2.58.143-1.207.419-2.497.613-2.868.194-.37.353-1.395.353-2.276 0-.882.18-1.714.4-1.85.22-.136.402-.912.404-1.724.003-.812.273-2.36.6-3.44.328-1.08.596-3.069.596-4.42 0-1.431.209-2.665.5-2.956.683-.683.733-49.645.052-50.499-.246-.308-.543-2.159-.659-4.112-.116-1.953-.377-3.663-.58-3.8-.202-.137-.415-1.239-.472-2.449-.058-1.21-.27-2.26-.473-2.333-.202-.074-.368-.851-.368-1.727 0-.876-.159-1.896-.353-2.266-.194-.371-.47-1.664-.613-2.874-.143-1.21-.434-2.26-.647-2.333-.213-.074-.387-.918-.387-1.877 0-.958-.18-1.854-.4-1.99-.22-.136-.4-.687-.4-1.224 0-.537-.191-.976-.424-.976-.233 0-.307-.188-.165-.418.142-.229.101-.634-.092-.9-.192-.265-.404-1.022-.472-1.682-.068-.66-.286-1.26-.485-1.333-.199-.074-.362-.749-.362-1.5 0-.752-.139-1.367-.309-1.367-.287 0-1.018-2.306-1.554-4.9-.125-.605-.387-1.1-.582-1.1-.195 0-.355-.529-.355-1.176 0-.647-.16-1.275-.355-1.396-.195-.121-.473-.851-.618-1.624-.145-.772-.435-1.404-.645-1.404-.21 0-.382-.45-.382-1s-.18-1-.4-1c-.22 0-.4-.36-.4-.8 0-.44-.157-.8-.35-.8-.192 0-.467-.584-.609-1.297-.314-1.568-1.139-3.503-1.494-3.503-.142 0-.376-.63-.521-1.4-.144-.77-.434-1.4-.644-1.4-.21 0-.382-.45-.382-1s-.14-1-.312-1-.661-.9-1.088-2c-.427-1.1-.873-2-.99-2-.118 0-.42-.495-.67-1.1-1.533-3.7-1.927-4.5-2.217-4.5-.178 0-.323-.36-.323-.8 0-.44-.158-.8-.351-.8-.193 0-.868-1.035-1.5-2.3s-1.239-2.39-1.349-2.5c-.177-.177-.586-.89-2.171-3.785-.419-.766-.712-1.17-1.729-2.384-.275-.329-.5-.785-.5-1.014a.41.41 0 0 0-.4-.417c-.22 0-.4-.248-.4-.551 0-.303-.264-.77-.587-1.038-.323-.268-.55-.605-.503-.749.143-.447-1.167-2.072-1.446-1.793-.145.145-.264-.126-.264-.602 0-.477-.18-.867-.4-.867-.22 0-.4-.227-.4-.504s-.45-.989-1-1.583c-.55-.593-1-1.247-1-1.453 0-.206-.27-.478-.6-.605-.33-.126-.6-.506-.6-.842 0-.337-.18-.613-.4-.613-.22 0-.4-.281-.4-.624 0-.343-.18-.512-.4-.376-.22.136-.4.017-.4-.264s-.462-.907-1.026-1.393c-.565-.485-1.015-.985-1-1.112.091-.795-.023-1.048-.374-.831-.22.136-.4-.008-.4-.32 0-.313-.45-.906-1-1.319-.55-.413-1-.941-1-1.173 0-.232-.63-1.089-1.4-1.906-.77-.816-1.4-1.633-1.4-1.815 0-.183-.45-.573-1-.867-.55-.294-1-.775-1-1.068 0-.292-.135-.533-.3-.533-.165-.001-.66-.542-1.1-1.202-.44-.661-1.115-1.303-1.5-1.426-.385-.124-.7-.385-.7-.58 0-.476-1.937-2.391-2.418-2.391-.21 0-.382-.197-.382-.437 0-.496-1.428-2.415-1.774-2.384-.124.012-.181-.053-.126-.143.154-.252-1.97-1.836-2.463-1.836a.43.43 0 0 1-.437-.419c0-.231-.495-.858-1.1-1.394-1.382-1.225-1.789-1.618-2.343-2.268-.617-.724-2.521-2.319-2.767-2.319-.113 0-1.322-1.08-2.688-2.4-1.365-1.32-2.67-2.4-2.898-2.4-.228 0-.752-.45-1.165-1-.413-.55-1.006-1-1.319-1-.312 0-.456-.18-.32-.4.212-.343-.377-.589-.718-.3-.065.055-.613-.395-1.218-1s-1.283-1.1-1.506-1.1c-.223 0-.294-.18-.158-.4.136-.22-.033-.4-.376-.4-.343 0-.624-.18-.624-.4 0-.22-.276-.4-.613-.4-.336 0-.716-.27-.842-.6-.127-.33-.404-.6-.616-.6-.213 0-.637-.225-.944-.5-1.308-1.173-1.773-1.5-2.135-1.5a.596.596 0 0 1-.517-.37c-.073-.204-.399-.429-.723-.5-.325-.072-.924-.537-1.332-1.034-.408-.497-.893-.81-1.078-.696-.184.114-.607-.064-.939-.396-.332-.332-.797-.604-1.032-.604-.236 0-.429-.18-.429-.4 0-.22-.227-.4-.504-.4s-.956-.405-1.507-.9c-.552-.495-2.035-1.44-3.295-2.1-1.26-.66-2.292-1.335-2.293-1.5 0-.165-.361-.3-.801-.3-.44 0-.8-.16-.8-.357 0-.196-.409-.459-.908-.584-.499-.125-1.302-.595-1.783-1.044-.482-.448-1.111-.815-1.399-.815-.289 0-1.187-.45-1.996-1-.809-.55-1.751-1-2.093-1-.341 0-.621-.18-.621-.4 0-.22-.347-.4-.771-.4-.425 0-1.017-.225-1.316-.5-.85-.782-2.243-1.5-2.908-1.5-.333 0-.605-.191-.605-.424 0-.233-.151-.33-.336-.216-.185.115-.994-.145-1.798-.576-.805-.431-1.734-.784-2.065-.784-.33 0-.601-.18-.601-.4 0-.22-.36-.4-.8-.4-.44 0-.8-.164-.8-.365 0-.201-.72-.486-1.6-.635-.88-.149-1.6-.434-1.6-.635s-.354-.365-.786-.365c-.432 0-1.592-.45-2.577-1-.985-.55-2.251-1-2.814-1-.563 0-1.023-.18-1.023-.4 0-.22-.45-.4-1-.4s-1-.18-1-.4c0-.22-.553-.4-1.229-.4-.675 0-1.498-.27-1.828-.6-.33-.33-1.127-.6-1.772-.6-.644 0-1.171-.18-1.171-.4 0-.22-.615-.4-1.367-.4-.751 0-1.426-.164-1.5-.364-.117-.32-1.446-.683-3.625-.989-.38-.054-.815-.221-.967-.372-.151-.151-.774-.275-1.384-.275-.61 0-1.209-.161-1.331-.358-.121-.197-.897-.458-1.723-.582-3.775-.563-6.925-1.305-6.66-1.57.16-.159-.82-.29-2.176-.29-1.378 0-2.467-.177-2.467-.4 0-.22-.9-.4-2-.4s-2-.141-2-.313c0-.172-.495-.366-1.1-.431a62.637 62.637 0 0 1-1.9-.237c-.44-.064-1.936-.14-3.324-.168-1.388-.028-2.431-.201-2.317-.384.321-.52-41.255-1.238-41.771-.721M218.6 38.571C263.069 44.369 299.68 64.732 327.248 99c4.102 5.1 13.152 18.331 13.152 19.229 0 .103.428.864.95 1.692 4.646 7.359 11.548 23.62 14.636 34.479l1.026 3.6c1.691 5.922 3.212 13.992 4.674 24.8.684 5.06.706 31.008.03 35.2-.266 1.65-.687 4.44-.936 6.2-.71 5.036-2.719 14.833-3.814 18.6-11.552 39.738-34.273 71.042-67.576 93.101-4.729 3.132-5.499 3.592-12.19 7.274-15.464 8.512-35.454 15.202-52.6 17.602-1.76.247-4.37.617-5.8.822-6.497.936-18.731 1.32-26.9.845-4.455-.259-9.27-.639-10.7-.845-1.43-.205-4.04-.575-5.8-.822-17.146-2.4-37.136-9.09-52.6-17.602-6.691-3.682-7.461-4.142-12.19-7.274-33.303-22.059-56.024-53.363-67.576-93.101-4.668-16.056-6.871-44.521-4.66-60.2.248-1.76.634-4.55.858-6.2.706-5.197 2.511-14.04 3.756-18.4l1.026-3.6c3.088-10.859 9.99-27.12 14.636-34.479.522-.828.95-1.591.95-1.696 0-.934 8.822-13.824 13.158-19.225 29.121-36.276 69.074-57.263 116.442-61.166 4.444-.367 24.864.146 29.4.737M192.932 176.39c-13.988 4.132-21.663 20.357-15.875 33.56.519 1.182.943 2.305.943 2.495 0 .19.26.663.578 1.05l2.1 2.563c.837 1.021 2.332 2.517 3.322 3.324l2.505 2.043c.387.316.81.575.939.575.13 0 2.26.81 4.735 1.8 5.447 2.179 12.892 2.508 14.221.628.11-.156 1.01-.599 2-.985 22.462-8.761 21.438-40.512-1.518-47.077-3.576-1.022-10.447-1.011-13.95.024" fill="#444a53"/><path id="path1" d="M197.172 62.928c-4.24 1.188-7.338 3.935-8.78 7.787C187.623 72.77 187.061 178 187.82 178c.121 0 .706-.251 1.3-.558 3.208-1.658 6.271-2.307 10.88-2.307 4.609 0 7.672.649 10.88 2.307.594.307 1.179.558 1.3.558.768 0 .196-105.234-.583-107.317-2.125-5.68-8.877-9.31-14.425-7.755m27.095 144.539c-.147.146-.267.556-.267.911 0 .721-2.002 4.721-3.302 6.599-2.655 3.834-7.815 7.64-12.464 9.193-.983.328.95 2.376 26.644 28.244 16.597 16.71 19.802 19.758 21.669 20.613 10.727 4.911 21.36-5.793 16.448-16.558-.914-2.004-47.124-49.199-48.228-49.257-.129-.006-.354.108-.5.255" fill="#e8e9e7"/><path id="path2" d="M189.6 50.23c-8.588.697-15.606 1.717-25.2 3.663-5.119 1.038-17.872 4.9-22.905 6.937-1.152.466-2.815 1.135-3.695 1.486-24.854 9.912-51.388 30.491-67.414 52.284-2.214 3.011-7.986 11.414-7.986 11.626 0 .087-.665 1.197-1.477 2.466-4.464 6.977-12.167 23.346-14.543 30.908-3.873 12.323-5.382 18.552-6.931 28.6-1.886 12.241-1.667 27.397.556 38.4.222 1.1.781 3.89 1.241 6.2 1.861 9.333 4.011 16.672 7.691 26.258 2.359 6.145 6.292 14.431 9.54 20.099 1.057 1.847 1.923 3.406 1.923 3.465 0 .301 5.33 8.445 7.58 11.581 17.866 24.909 44.607 45.979 71.369 56.233 1.128.432 2.456.961 2.951 1.175 2.07.895 2.808 1.164 4.9 1.789 1.21.361 2.56.818 3 1.015 2.331 1.043 14.051 3.907 22.8 5.571 8.889 1.691 24.739 2.621 34.5 2.025 7.528-.459 15.77-1.315 19.5-2.025 8.749-1.664 20.469-4.528 22.8-5.571.44-.197 1.79-.654 3-1.015 2.092-.625 2.83-.894 4.9-1.789.495-.214 1.823-.743 2.951-1.175 26.647-10.21 54.011-31.729 71.182-55.978 2.21-3.121 7.767-11.587 7.767-11.833 0-.061.868-1.621 1.928-3.468 4.779-8.323 8.946-17.794 12.477-28.357 2.284-6.835 3.26-10.532 4.749-18l1.237-6.2c2.225-11.126 2.444-26.17.56-38.4-1.549-10.048-3.058-16.277-6.931-28.6-2.376-7.562-10.079-23.931-14.543-30.908-.812-1.269-1.477-2.379-1.477-2.466 0-.209-5.741-8.572-7.982-11.626-15.858-21.619-42.676-42.417-67.418-52.284-.88-.351-2.543-1.02-3.695-1.486-5.033-2.037-17.786-5.899-22.905-6.937-4.94-1.002-9.94-1.897-12.6-2.255-1.76-.236-4.64-.628-6.4-.869-3.112-.427-23.39-.831-27-.539m15.883 13.799c2.947 1.43 4.991 3.654 6.114 6.654.789 2.11.803 3.056.803 54.883v52.737l1.3.537c3.383 1.397 8.434 7.807 10.214 12.96 1.674 4.849 1.921 13.175.437 14.78-.513.556-.428 1.022.149.818 1.004-.355 47.333 46.524 48.495 49.071 4.912 10.765-5.721 21.469-16.448 16.558-2.847-1.303-48.98-47.451-48.647-48.663.055-.2-.176-.364-.514-.364-1.25 0 .596 1.966 23.412 24.936 22.79 22.945 23.73 23.806 27.721 25.413 3.417 1.376 9.267-.198 12.288-3.307 1.822-1.874 2.182-1.816 2.832.458 2.372 8.303-3.303 15.92-11.839 15.888-5.495-.02-4.328.947-31.311-25.952L206.378 237.4l-5.689-.036c-8.348-.052-14.898-2.714-18.818-7.647-.401-.504-.941-.917-1.201-.917-.26 0-13.16 12.689-28.668 28.198l-28.197 28.199.129 2.503c.369 7.177-5.622 13.294-12.793 13.061l-2.765-.09-4.11 4.045c-6.224 6.125-10.478 6.673-13.125 1.69-1.78-3.348-.994-5.23 4.498-10.784l3.736-3.778-.112-2.496c-.345-7.672 6.311-14.144 13.557-13.183l2.021.268 30.232-30.22 30.231-30.22-.206-1.539c-.114-.847-.071-2.78.095-4.297.201-1.833.114-3.958-.26-6.339-1.477-9.4 4.281-22.051 11.367-24.978l1.3-.537v-52.737c0-51.577.017-52.782.792-54.851 2.625-7.012 10.261-9.999 17.091-6.686m-90.807 35.733c11.245 2.994 12.501 18.077 1.924 23.098-9.266 4.399-19.8-4.723-16.815-14.56 1.969-6.49 8.506-10.238 14.891-8.538m176.739-.016c11.376 3.03 12.621 18.228 1.894 23.118-6.404 2.92-13.941-.292-16.455-7.011-3.452-9.226 5.057-18.638 14.561-16.107m-92.115 75.33c.385.1 1.015.1 1.4 0 .385-.101.07-.183-.7-.183s-1.085.082-.7.183M80.281 189.057c6.097 2.881 8.711 10.429 5.7 16.454-5.263 10.533-20.693 8.467-22.998-3.078-1.988-9.953 8.076-17.735 17.298-13.376m249.919-.067c6.668 3.002 9.08 11.025 5.27 17.527-6.089 10.39-22.67 5.921-22.67-6.11 0-9.327 8.971-15.213 17.4-11.417m-106.568 19.416c-.018.333-.403 1.297-.856 2.143-.453.845-.735 1.625-.628 1.733.308.307 1.922-3.485 1.707-4.012-.116-.283-.204-.23-.223.136m-3.133 6.094c-1.636 2.25-3.846 4.469-5.969 5.993-.951.683-1.651 1.32-1.556 1.415.556.556 7.001-5.504 8.349-7.85 1.015-1.768.635-1.564-.824.442M210 223.068c-.99.527-1.35.84-.8.695 1.185-.313 3.2-1.304 3.2-1.573 0-.315-.514-.127-2.4.878m81.415 53.478c9.561 2.546 12.517 14.253 5.283 20.921-6.41 5.908-16.818 3.36-19.878-4.867-3.408-9.165 5.143-18.571 14.595-16.054m-87.272 36.896c8.088 2.756 10.718 13.969 4.723 20.135-7.706 7.926-20.927 2.647-20.981-8.377-.042-8.635 8.113-14.533 16.258-11.758" fill="#82ba53"/><path id="path3" d="M135.047 256.222c-23.697 23.663-43.437 43.598-43.865 44.3-3.071 5.037 2.732 11.054 8.171 8.473 1.328-.63 87.447-86.533 87.447-87.227 0-.218-.517-.701-1.149-1.074-1.484-.877-5.468-4.861-6.345-6.345-.373-.632-.79-1.149-.926-1.149-.135 0-19.635 19.36-43.333 43.022" fill="#e84c4b"/><path id="path4" d="M189.2 37.834C141.832 41.737 101.879 62.724 72.758 99c-4.336 5.401-13.158 18.291-13.158 19.225 0 .105-.428.868-.95 1.696-4.646 7.359-11.548 23.62-14.636 34.479l-1.026 3.6c-1.743 6.102-3.252 14.191-4.665 25-1.147 8.77-.621 33.086.891 41.2.53 2.844.409-.171-.192-4.8-1.595-12.271-1.066-24.757 1.609-38 1.739-8.609 2.449-11.3 5.749-21.8 2.376-7.562 10.079-23.931 14.543-30.908.812-1.269 1.477-2.379 1.477-2.466 0-.212 5.772-8.615 7.986-11.626 16.026-21.793 42.56-42.372 67.414-52.284.88-.351 2.543-1.02 3.695-1.486 5.033-2.037 17.786-5.899 22.905-6.937 4.357-.884 9.897-1.885 12.4-2.241 9.096-1.293 11.639-1.452 23.2-1.452s14.104.159 23.2 1.452c2.503.356 8.043 1.357 12.4 2.241 5.119 1.038 17.872 4.9 22.905 6.937 1.152.466 2.815 1.135 3.695 1.486 24.742 9.867 51.56 30.665 67.418 52.284 2.241 3.054 7.982 11.417 7.982 11.626 0 .087.665 1.197 1.477 2.466 4.464 6.977 12.167 23.346 14.543 30.908 2.66 8.464 3.686 12.108 4.618 16.4 3.813 17.556 4.532 29.078 2.714 43.485-.339 2.687-.543 5.207-.452 5.6.09.393.296-.545.457-2.085.162-1.54.5-3.79.752-5 .662-3.178.645-30.264-.023-35.2-1.462-10.808-2.983-18.878-4.674-24.8l-1.026-3.6c-3.088-10.859-9.99-27.12-14.636-34.479-.522-.828-.95-1.589-.95-1.692 0-.898-9.05-14.129-13.152-19.229C299.68 64.732 263.069 44.369 218.6 38.571c-4.536-.591-24.956-1.104-29.4-.737m-80.849 61.947c-2.504.691-5.271 2.668-6.759 4.83-8.627 12.54 8.766 26.522 19.054 15.317 8.285-9.024-.489-23.402-12.295-20.147m176.83-.007c-11.193 3.089-12.303 18.252-1.69 23.09 10.799 4.923 21.691-7.492 15.429-17.587-2.949-4.755-8.457-6.961-13.739-5.503m-87.081 75.72a29.38 29.38 0 0 0 3.8 0c1.045-.082.19-.15-1.9-.15s-2.945.068-1.9.15M186 179.03c-7.692 4.359-12.573 15.375-11.032 24.901.328 2.032.51 3.922.403 4.2-.107.279-.236 2.247-.287 4.375l-.092 3.869 1.504-1.469c1.765-1.724 1.809-2.11.561-4.956-4.646-10.599-.321-24.553 9.521-30.712 2.381-1.49 1.955-1.644-.578-.208m27.422.208c8.387 5.249 12.706 15.577 10.858 25.962-.198 1.112-.179 1.647.051 1.4 1.502-1.617 1.268-9.919-.417-14.8-1.813-5.248-6.321-10.97-10.198-12.943-2.438-1.24-2.584-1.052-.294.381m-140.885 8.779c-6.615 1.308-10.885 7.751-9.554 14.416 2.305 11.545 17.735 13.611 22.998 3.078 4.482-8.969-3.57-19.447-13.444-17.494m250.152.01c-7.714 1.252-12.23 10.359-8.67 17.484 4.328 8.663 16.626 9.239 21.451 1.006 5.464-9.323-2.074-20.229-12.781-18.49M221.053 213.3l-.72 1.3.825-1c.731-.887 1.056-1.6.728-1.6-.062 0-.437.585-.833 1.3m-5.083 5.8-.97 1.1 1.2-1c.66-.55 1.275-1.045 1.367-1.1.091-.055-.012-.1-.231-.1-.218 0-.833.495-1.366 1.1m-2.97 2.1c-.66.437-1.02.792-.8.788.401-.006 2.576-1.565 2.2-1.576-.11-.004-.74.351-1.4.788m-29.451 4.054-3.05 3.183 1.25 1.251c5.721 5.722 10.41 7.623 18.94 7.676l5.689.036 24.111 24.036c26.983 26.899 25.816 25.932 31.311 25.952 8.536.032 14.211-7.585 11.839-15.888-.65-2.274-1.01-2.332-2.832-.458-3.021 3.109-8.871 4.683-12.288 3.307-3.792-1.527-4.98-2.602-24.168-21.878-10.879-10.929-21.619-21.795-23.866-24.146-2.247-2.351-4.085-4.128-4.085-3.947 0 1.934-8.84 1.575-14.221-.578-5.589-2.236-4.998-2.336-8.63 1.454m-143.908 1.232c-.053.885 1.47 8.759 1.748 9.036.336.336.253-.483-.409-4.014-.733-3.917-1.282-5.976-1.339-5.022m320.176.914c-.157.88-.54 2.897-.851 4.483-.596 3.038-.692 3.976-.372 3.656.341-.341 1.874-8.738 1.688-9.248-.099-.27-.308.229-.465 1.109m-318.21 9.233c.004.422.348 2.027.765 3.567l1.406 5.2c9.465 35.058 34.682 69.205 66.832 90.501 4.729 3.132 5.499 3.592 12.19 7.274 6.825 3.757 20.965 9.993 21.483 9.475.127-.127-.109-.342-.526-.477a19.954 19.954 0 0 1-1.557-.598 88.893 88.893 0 0 0-2.851-1.139c-26.762-10.254-53.503-31.324-71.369-56.233-2.25-3.136-7.58-11.28-7.58-11.581 0-.059-.866-1.618-1.923-3.465-6.8-11.868-13.77-29.654-16.116-41.124-.394-1.926-.765-2.614-.754-1.4m316.422-.433c-1.662 10.418-9.433 30.647-16.501 42.957-1.06 1.847-1.928 3.407-1.928 3.468 0 .246-5.557 8.712-7.767 11.833-17.171 24.249-44.535 45.768-71.182 55.978a88.893 88.893 0 0 0-2.851 1.139c-.44.194-1.141.463-1.557.598-.417.135-.653.35-.526.477.518.518 14.658-5.718 21.483-9.475 6.691-3.682 7.461-4.142 12.19-7.274 32.151-21.296 57.357-55.429 66.832-90.501 1.929-7.139 2.205-8.345 2.045-8.944-.096-.361-.203-.476-.238-.256m-249.885 40.38c-4.086 1.341-6.879 4.126-8.336 8.309-.668 1.916-.811 5.738-.229 6.098.432.267 14.997-14.144 14.648-14.493-.487-.487-4.51-.43-6.083.086m177.053-.01c-9.203 2.542-12.177 13.737-5.441 20.474 4.765 4.764 12.035 4.946 16.942.423 9.414-8.678.816-24.3-11.501-20.897m-169.123 16.356c-8.354 8.363-8.064 7.874-4.665 7.874 6.825 0 12.591-5.767 12.591-12.591 0-3.198-.05-3.168-7.926 4.717m79.619 20.541c-7.946 2.812-10.486 14.014-4.559 20.11 7.706 7.926 20.927 2.647 20.981-8.377.042-8.661-8.286-14.612-16.422-11.733m-50.845 39.514c1.707 1.707 29.207 8.325 33.952 8.171 1.089-.035.911-.119-.8-.378-9.222-1.393-24.47-4.879-27.8-6.356-2.07-.918-5.847-1.932-5.352-1.437m107.352.59c-1.1.379-2.27.804-2.6.943-3.458 1.458-18.706 4.917-27.6 6.26-1.711.259-1.889.343-.8.378 4.745.154 32.245-6.464 33.952-8.171.356-.356-.985-.088-2.952.59m-70.6 7.996c5.082 1.268 26.303 1.376 36.126.184 4.563-.553.892-.515-7.965.082-9.655.652-10.226.643-26.761-.433-2.114-.137-2.457-.096-1.4.167" fill="#6ca149"/></g></svg>